%TF.GenerationSoftware,KiCad,Pcbnew,(6.0.0-0)*%
%TF.CreationDate,2023-01-16T13:09:05-05:00*%
%TF.ProjectId,Clank_controller,436c616e-6b5f-4636-9f6e-74726f6c6c65,rev?*%
%TF.SameCoordinates,Original*%
%TF.FileFunction,Soldermask,Top*%
%TF.FilePolarity,Negative*%
%FSLAX46Y46*%
G04 Gerber Fmt 4.6, Leading zero omitted, Abs format (unit mm)*
G04 Created by KiCad (PCBNEW (6.0.0-0)) date 2023-01-16 13:09:05*
%MOMM*%
%LPD*%
G01*
G04 APERTURE LIST*
G04 Aperture macros list*
%AMRoundRect*
0 Rectangle with rounded corners*
0 $1 Rounding radius*
0 $2 $3 $4 $5 $6 $7 $8 $9 X,Y pos of 4 corners*
0 Add a 4 corners polygon primitive as box body*
4,1,4,$2,$3,$4,$5,$6,$7,$8,$9,$2,$3,0*
0 Add four circle primitives for the rounded corners*
1,1,$1+$1,$2,$3*
1,1,$1+$1,$4,$5*
1,1,$1+$1,$6,$7*
1,1,$1+$1,$8,$9*
0 Add four rect primitives between the rounded corners*
20,1,$1+$1,$2,$3,$4,$5,0*
20,1,$1+$1,$4,$5,$6,$7,0*
20,1,$1+$1,$6,$7,$8,$9,0*
20,1,$1+$1,$8,$9,$2,$3,0*%
G04 Aperture macros list end*
%ADD10R,1.700000X1.700000*%
%ADD11O,1.700000X1.700000*%
%ADD12RoundRect,0.250000X-0.600000X0.600000X-0.600000X-0.600000X0.600000X-0.600000X0.600000X0.600000X0*%
%ADD13C,1.700000*%
%ADD14RoundRect,0.250001X-0.624999X0.462499X-0.624999X-0.462499X0.624999X-0.462499X0.624999X0.462499X0*%
%ADD15RoundRect,0.250000X-0.625000X0.400000X-0.625000X-0.400000X0.625000X-0.400000X0.625000X0.400000X0*%
%ADD16C,3.200000*%
%ADD17R,2.800000X2.800000*%
%ADD18C,2.800000*%
%ADD19R,1.600000X1.600000*%
%ADD20C,1.600000*%
%ADD21R,2.400000X2.400000*%
%ADD22C,2.400000*%
G04 APERTURE END LIST*
D10*
%TO.C,J3*%
X100555000Y-115078750D03*
D11*
X103095000Y-115078750D03*
X100555000Y-117618750D03*
X103095000Y-117618750D03*
%TD*%
D10*
%TO.C,J17*%
X147265000Y-74450000D03*
D11*
X149805000Y-74450000D03*
%TD*%
D12*
%TO.C,J16*%
X160330000Y-62140000D03*
D13*
X160330000Y-64680000D03*
X157790000Y-62140000D03*
X157790000Y-64680000D03*
X155250000Y-62140000D03*
X155250000Y-64680000D03*
X152710000Y-62140000D03*
X152710000Y-64680000D03*
X150170000Y-62140000D03*
X150170000Y-64680000D03*
X147630000Y-62140000D03*
X147630000Y-64680000D03*
X145090000Y-62140000D03*
X145090000Y-64680000D03*
X142550000Y-62140000D03*
X142550000Y-64680000D03*
X140010000Y-62140000D03*
X140010000Y-64680000D03*
X137470000Y-62140000D03*
X137470000Y-64680000D03*
X134930000Y-62140000D03*
X134930000Y-64680000D03*
X132390000Y-62140000D03*
X132390000Y-64680000D03*
X129850000Y-62140000D03*
X129850000Y-64680000D03*
%TD*%
D14*
%TO.C,D2*%
X183330000Y-59262500D03*
X183330000Y-62237500D03*
%TD*%
D10*
%TO.C,J15*%
X142915000Y-70750000D03*
D11*
X140375000Y-70750000D03*
%TD*%
D15*
%TO.C,R2*%
X180830000Y-59222500D03*
X180830000Y-62322500D03*
%TD*%
D10*
%TO.C,J7*%
X100555000Y-89210000D03*
D11*
X103095000Y-89210000D03*
X100555000Y-91750000D03*
X103095000Y-91750000D03*
X100555000Y-94290000D03*
X103095000Y-94290000D03*
%TD*%
D10*
%TO.C,J18*%
X140365000Y-74450000D03*
D11*
X142905000Y-74450000D03*
%TD*%
D10*
%TO.C,J6*%
X100555000Y-137867500D03*
D11*
X103095000Y-137867500D03*
X100555000Y-140407500D03*
X103095000Y-140407500D03*
%TD*%
D10*
%TO.C,J4*%
X100555000Y-122675000D03*
D11*
X103095000Y-122675000D03*
X100555000Y-125215000D03*
X103095000Y-125215000D03*
%TD*%
D10*
%TO.C,J14*%
X149815000Y-70750000D03*
D11*
X147275000Y-70750000D03*
%TD*%
D16*
%TO.C,H4*%
X120830000Y-148250000D03*
%TD*%
D14*
%TO.C,D1*%
X107330000Y-59262500D03*
X107330000Y-62237500D03*
%TD*%
D10*
%TO.C,J9*%
X100555000Y-79378750D03*
D11*
X103095000Y-79378750D03*
X100555000Y-81918750D03*
X103095000Y-81918750D03*
X100555000Y-84458750D03*
X103095000Y-84458750D03*
%TD*%
D16*
%TO.C,H3*%
X99830000Y-61250000D03*
%TD*%
D10*
%TO.C,J8*%
X100555000Y-69225000D03*
D11*
X103095000Y-69225000D03*
X100555000Y-71765000D03*
X103095000Y-71765000D03*
X100555000Y-74305000D03*
X103095000Y-74305000D03*
%TD*%
D10*
%TO.C,J2*%
X100555000Y-107482500D03*
D11*
X103095000Y-107482500D03*
X100555000Y-110022500D03*
X103095000Y-110022500D03*
%TD*%
D17*
%TO.C,J10*%
X119830000Y-62750000D03*
D18*
X114830000Y-62750000D03*
%TD*%
D15*
%TO.C,R3*%
X184810000Y-65210000D03*
X184810000Y-68310000D03*
%TD*%
%TO.C,R1*%
X109850000Y-59177500D03*
X109850000Y-62277500D03*
%TD*%
D10*
%TO.C,J1*%
X100555000Y-99886250D03*
D11*
X103095000Y-99886250D03*
X100555000Y-102426250D03*
X103095000Y-102426250D03*
%TD*%
D10*
%TO.C,J12*%
X117015000Y-75740000D03*
D11*
X117015000Y-78280000D03*
%TD*%
D17*
%TO.C,J11*%
X175410000Y-63000000D03*
D18*
X170410000Y-63000000D03*
%TD*%
D16*
%TO.C,H5*%
X120830000Y-96250000D03*
%TD*%
%TO.C,H6*%
X195830000Y-88250000D03*
%TD*%
D19*
%TO.C,C1*%
X111930000Y-75804888D03*
D20*
X111930000Y-78304888D03*
%TD*%
D17*
%TO.C,J13*%
X194880000Y-76750000D03*
D18*
X194880000Y-71750000D03*
%TD*%
D10*
%TO.C,J5*%
X100555000Y-130271250D03*
D11*
X103095000Y-130271250D03*
X100555000Y-132811250D03*
X103095000Y-132811250D03*
%TD*%
D16*
%TO.C,H1*%
X195830000Y-61250000D03*
%TD*%
%TO.C,H2*%
X99830000Y-148250000D03*
%TD*%
D21*
%TO.C,C2*%
X176330000Y-81250000D03*
D22*
X176330000Y-86250000D03*
%TD*%
M02*
