M48
; DRILL file {KiCad (6.0.0-0)} date Monday, January 16, 2023 at 01:09:09 PM
; FORMAT={-:-/ absolute / inch / decimal}
; #@! TF.CreationDate,2023-01-16T13:09:09-05:00
; #@! TF.GenerationSoftware,Kicad,Pcbnew,(6.0.0-0)
; #@! TF.FileFunction,Plated,1,2,PTH
FMAT,2
INCH
; #@! TA.AperFunction,Plated,PTH,ViaDrill
T1C0.0150
; #@! TA.AperFunction,Plated,PTH,ComponentDrill
T2C0.0315
; #@! TA.AperFunction,Plated,PTH,ComponentDrill
T3C0.0394
; #@! TA.AperFunction,Plated,PTH,ComponentDrill
T4C0.0472
; #@! TA.AperFunction,Plated,PTH,ComponentDrill
T5C0.0551
%
G90
G05
T1
X4.0287Y-2.5492
X4.1272Y-2.3524
X4.1272Y-2.4508
X4.1272Y-2.5492
X4.1272Y-2.6476
X4.1272Y-3.5335
X4.1272Y-3.6319
X4.1272Y-3.7303
X4.1272Y-3.8287
X4.1272Y-3.9272
X4.1272Y-4.0256
X4.1272Y-4.124
X4.1272Y-4.2224
X4.1272Y-4.3209
X4.1272Y-4.4193
X4.1272Y-4.5177
X4.1272Y-4.6161
X4.1272Y-4.7146
X4.1272Y-4.813
X4.1272Y-4.9114
X4.1272Y-5.0098
X4.1272Y-5.1083
X4.1272Y-5.2067
X4.1272Y-5.3051
X4.1272Y-5.4035
X4.1272Y-5.502
X4.1272Y-5.6004
X4.1272Y-5.6988
X4.1272Y-5.7972
X4.1272Y-5.8957
X4.2256Y-2.5492
X4.2256Y-3.435
X4.2256Y-3.5335
X4.2256Y-3.6319
X4.2256Y-3.7303
X4.2256Y-3.8287
X4.2256Y-3.9272
X4.2256Y-4.0256
X4.2256Y-4.124
X4.2256Y-4.2224
X4.2256Y-4.3209
X4.2256Y-4.4193
X4.2256Y-4.5177
X4.2256Y-4.6161
X4.2256Y-4.7146
X4.2256Y-4.813
X4.2256Y-4.9114
X4.2256Y-5.0098
X4.2256Y-5.1083
X4.2256Y-5.2067
X4.2256Y-5.3051
X4.2256Y-5.4035
X4.2256Y-5.502
X4.2256Y-5.6004
X4.2256Y-5.6988
X4.2256Y-5.7972
X4.2256Y-5.8957
X4.324Y-2.5492
X4.324Y-3.2382
X4.324Y-3.3366
X4.324Y-3.435
X4.324Y-3.5335
X4.324Y-3.6319
X4.324Y-3.7303
X4.324Y-3.8287
X4.324Y-3.9272
X4.324Y-4.0256
X4.324Y-4.124
X4.324Y-4.2224
X4.324Y-4.3209
X4.324Y-4.4193
X4.324Y-4.5177
X4.324Y-4.6161
X4.324Y-4.7146
X4.324Y-4.813
X4.324Y-4.9114
X4.324Y-5.0098
X4.324Y-5.1083
X4.324Y-5.2067
X4.324Y-5.3051
X4.324Y-5.4035
X4.324Y-5.502
X4.324Y-5.6004
X4.324Y-5.6988
X4.324Y-5.7972
X4.324Y-5.8957
X4.4224Y-3.2382
X4.4224Y-3.3366
X4.4224Y-3.435
X4.4224Y-3.5335
X4.4224Y-3.6319
X4.4224Y-3.7303
X4.4224Y-3.8287
X4.4224Y-3.9272
X4.4224Y-4.0256
X4.4224Y-4.124
X4.4224Y-4.2224
X4.4224Y-4.3209
X4.4224Y-4.4193
X4.4224Y-4.5177
X4.4224Y-4.6161
X4.4224Y-4.7146
X4.4224Y-4.813
X4.4224Y-4.9114
X4.4224Y-5.0098
X4.4224Y-5.1083
X4.4224Y-5.2067
X4.4224Y-5.3051
X4.4224Y-5.4035
X4.4224Y-5.502
X4.4224Y-5.6004
X4.4224Y-5.6988
X4.4224Y-5.7972
X4.4224Y-5.8957
X4.5209Y-3.2382
X4.5209Y-3.3366
X4.5209Y-3.435
X4.5209Y-3.5335
X4.5209Y-3.6319
X4.5209Y-3.7303
X4.5209Y-3.8287
X4.5209Y-3.9272
X4.5209Y-4.0256
X4.5209Y-4.124
X4.5209Y-4.2224
X4.5209Y-4.3209
X4.5209Y-4.4193
X4.5209Y-5.6004
X4.5209Y-5.6988
X4.5209Y-5.7972
X4.5209Y-5.8957
X4.6193Y-3.2382
X4.6193Y-3.3366
X4.6193Y-3.435
X4.6193Y-3.5335
X4.6193Y-3.6319
X4.6193Y-3.9272
X4.6193Y-4.0256
X4.6193Y-4.124
X4.6193Y-4.2224
X4.6193Y-4.3209
X4.6193Y-4.4193
X4.6193Y-5.6004
X4.6193Y-5.6988
X4.7177Y-3.1398
X4.7177Y-3.2382
X4.7177Y-3.3366
X4.7177Y-3.435
X4.7177Y-3.5335
X4.7177Y-3.6319
X4.7177Y-4.0256
X4.7177Y-4.124
X4.7177Y-4.2224
X4.7177Y-4.3209
X4.7177Y-4.4193
X4.7177Y-5.6004
X4.8161Y-2.9429
X4.8161Y-3.0413
X4.8161Y-3.1398
X4.8161Y-3.2382
X4.8161Y-3.3366
X4.8161Y-3.435
X4.8161Y-3.5335
X4.8161Y-3.6319
X4.8161Y-4.0256
X4.8161Y-4.124
X4.8161Y-4.2224
X4.8161Y-4.3209
X4.8161Y-4.4193
X4.8161Y-5.6004
X4.9146Y-2.7461
X4.9146Y-2.8445
X4.9146Y-2.9429
X4.9146Y-3.0413
X4.9146Y-3.1398
X4.9146Y-3.5335
X5.013Y-2.7461
X5.013Y-2.8445
X5.013Y-2.9429
X5.013Y-3.0413
X5.013Y-3.1398
X5.013Y-3.5335
X5.1114Y-2.7461
X5.1114Y-2.8445
X5.1114Y-2.9429
X5.1114Y-3.0413
X5.1114Y-3.1398
X5.1114Y-3.5335
X5.2098Y-2.7461
X5.2098Y-2.8445
X5.2098Y-2.9429
X5.2098Y-3.0413
X5.2098Y-3.1398
X5.2098Y-3.5335
X5.3083Y-2.7461
X5.3083Y-2.8445
X5.3083Y-2.9429
X5.3083Y-3.0413
X5.3083Y-3.1398
X5.3083Y-3.5335
X5.4067Y-2.7461
X5.4067Y-2.8445
X5.4067Y-2.9429
X5.4067Y-3.0413
X5.4067Y-3.1398
X5.4067Y-3.5335
X5.5051Y-3.0413
X5.5051Y-3.1398
X5.5051Y-3.5335
X5.6035Y-3.0413
X5.6035Y-3.1398
X5.6035Y-3.5335
X5.702Y-3.0413
X5.702Y-3.1398
X5.702Y-3.5335
X5.8004Y-3.0413
X5.8004Y-3.1398
X5.8004Y-3.5335
X5.8988Y-3.0413
X5.8988Y-3.1398
X5.8988Y-3.5335
X5.9972Y-2.3524
X5.9972Y-2.7461
X5.9972Y-2.8445
X5.9972Y-2.9429
X5.9972Y-3.0413
X5.9972Y-3.1398
X5.9972Y-3.5335
X6.0957Y-2.3524
X6.0957Y-2.8445
X6.0957Y-2.9429
X6.0957Y-3.0413
X6.0957Y-3.1398
X6.0957Y-3.5335
X6.1941Y-2.3524
X6.1941Y-2.6476
X6.1941Y-2.9429
X6.1941Y-3.0413
X6.1941Y-3.1398
X6.1941Y-3.5335
X6.2925Y-2.3524
X6.2925Y-2.6476
X6.2925Y-2.7461
X6.2925Y-3.0413
X6.2925Y-3.1398
X6.2925Y-3.5335
X6.3909Y-2.3524
X6.3909Y-2.4508
X6.3909Y-2.5492
X6.3909Y-2.6476
X6.3909Y-2.7461
X6.3909Y-2.8445
X6.3909Y-3.1398
X6.3909Y-3.5335
X6.4894Y-2.3524
X6.4894Y-2.4508
X6.4894Y-2.5492
X6.4894Y-2.6476
X6.4894Y-2.7461
X6.4894Y-2.8445
X6.4894Y-2.9429
X6.4894Y-3.2382
X6.4894Y-3.3366
X6.4894Y-3.435
X6.4894Y-3.5335
X6.5878Y-2.3524
X6.5878Y-2.4508
X6.5878Y-2.5492
X6.5878Y-2.6476
X6.5878Y-2.7461
X6.5878Y-2.8445
X6.5878Y-2.9429
X6.5878Y-3.0413
X6.5878Y-3.3366
X6.5878Y-3.435
X6.5878Y-3.5335
X6.6862Y-2.6476
X6.6862Y-2.7461
X6.6862Y-2.8445
X6.6862Y-2.9429
X6.6862Y-3.0413
X6.6862Y-3.1398
X6.6862Y-3.3366
X6.6862Y-3.435
X6.6862Y-3.5335
X6.7846Y-2.6476
X6.7846Y-2.7461
X6.7846Y-2.8445
X6.7846Y-2.9429
X6.7846Y-3.0413
X6.7846Y-3.1398
X6.7846Y-3.3366
X6.7846Y-3.435
X6.7846Y-3.5335
X6.8831Y-2.6476
X6.8831Y-2.7461
X6.8831Y-2.8445
X6.8831Y-2.9429
X6.8831Y-3.0413
X6.8831Y-3.5335
X6.9815Y-2.6476
X6.9815Y-2.7461
X6.9815Y-2.8445
X6.9815Y-2.9429
X6.9815Y-3.0413
X6.9815Y-3.5335
X7.0799Y-2.6476
X7.0799Y-2.7461
X7.0799Y-2.8445
X7.0799Y-2.9429
X7.0799Y-3.0413
X7.0799Y-3.3366
X7.0799Y-3.435
X7.0799Y-3.5335
X7.1783Y-2.6476
X7.1783Y-2.7461
X7.1783Y-2.8445
X7.1783Y-2.9429
X7.1783Y-3.2382
X7.1783Y-3.3366
X7.1783Y-3.435
X7.1783Y-3.5335
X7.2768Y-2.7461
X7.2768Y-2.8445
X7.2768Y-3.1398
X7.2768Y-3.2382
X7.2768Y-3.3366
X7.2768Y-3.435
X7.2768Y-3.5335
X7.3752Y-2.3524
X7.3752Y-2.4508
X7.3752Y-2.5492
X7.3752Y-2.6476
X7.3752Y-2.7461
X7.3752Y-2.8445
X7.3752Y-3.0413
X7.3752Y-3.1398
X7.3752Y-3.2382
X7.3752Y-3.3366
X7.3752Y-3.435
X7.3752Y-3.5335
X7.4736Y-2.3524
X7.4736Y-2.4508
X7.4736Y-2.5492
X7.4736Y-2.6476
X7.4736Y-2.7461
X7.4736Y-2.8445
X7.4736Y-3.0413
X7.4736Y-3.1398
X7.4736Y-3.2382
X7.4736Y-3.3366
X7.4736Y-3.435
X7.4736Y-3.5335
X7.572Y-2.5492
X7.572Y-2.6476
X7.572Y-2.7461
X7.572Y-3.1398
X7.572Y-3.2382
X7.572Y-3.3366
X7.6705Y-2.6476
X7.6705Y-3.1398
X7.6705Y-3.2382
X7.7689Y-3.0413
X7.7689Y-3.1398
X7.7689Y-3.2382
T2
X4.4067Y-2.9844
X4.4067Y-3.0829
T3
X3.9589Y-2.7254
X3.9589Y-2.8254
X3.9589Y-2.9254
X3.9589Y-3.1251
X3.9589Y-3.2251
X3.9589Y-3.3251
X3.9589Y-3.5122
X3.9589Y-3.6122
X3.9589Y-3.7122
X3.9589Y-3.9325
X3.9589Y-4.0325
X3.9589Y-4.2316
X3.9589Y-4.3316
X3.9589Y-4.5307
X3.9589Y-4.6307
X3.9589Y-4.8297
X3.9589Y-4.9297
X3.9589Y-5.1288
X3.9589Y-5.2288
X3.9589Y-5.4279
X3.9589Y-5.5279
X4.0589Y-2.7254
X4.0589Y-2.8254
X4.0589Y-2.9254
X4.0589Y-3.1251
X4.0589Y-3.2251
X4.0589Y-3.3251
X4.0589Y-3.5122
X4.0589Y-3.6122
X4.0589Y-3.7122
X4.0589Y-3.9325
X4.0589Y-4.0325
X4.0589Y-4.2316
X4.0589Y-4.3316
X4.0589Y-4.5307
X4.0589Y-4.6307
X4.0589Y-4.8297
X4.0589Y-4.9297
X4.0589Y-5.1288
X4.0589Y-5.2288
X4.0589Y-5.4279
X4.0589Y-5.5279
X4.6069Y-2.9819
X4.6069Y-3.0819
X5.1122Y-2.4465
X5.1122Y-2.5465
X5.2122Y-2.4465
X5.2122Y-2.5465
X5.3122Y-2.4465
X5.3122Y-2.5465
X5.4122Y-2.4465
X5.4122Y-2.5465
X5.5122Y-2.4465
X5.5122Y-2.5465
X5.5262Y-2.9311
X5.5266Y-2.7854
X5.6122Y-2.4465
X5.6122Y-2.5465
X5.6262Y-2.9311
X5.6266Y-2.7854
X5.7122Y-2.4465
X5.7122Y-2.5465
X5.7978Y-2.9311
X5.7982Y-2.7854
X5.8122Y-2.4465
X5.8122Y-2.5465
X5.8978Y-2.9311
X5.8982Y-2.7854
X5.9122Y-2.4465
X5.9122Y-2.5465
X6.0122Y-2.4465
X6.0122Y-2.5465
X6.1122Y-2.4465
X6.1122Y-2.5465
X6.2122Y-2.4465
X6.2122Y-2.5465
X6.3122Y-2.4465
X6.3122Y-2.5465
T4
X6.9421Y-3.1988
X6.9421Y-3.3957
T5
X4.5209Y-2.4705
X4.7177Y-2.4705
X6.7091Y-2.4803
X6.9059Y-2.4803
X7.6724Y-2.8248
X7.6724Y-3.0217
T0
M30
