%TF.GenerationSoftware,KiCad,Pcbnew,(6.0.0-0)*%
%TF.CreationDate,2023-01-16T12:55:46-05:00*%
%TF.ProjectId,Spindle_Driver,5370696e-646c-4655-9f44-72697665722e,rev?*%
%TF.SameCoordinates,Original*%
%TF.FileFunction,Copper,L2,Bot*%
%TF.FilePolarity,Positive*%
%FSLAX46Y46*%
G04 Gerber Fmt 4.6, Leading zero omitted, Abs format (unit mm)*
G04 Created by KiCad (PCBNEW (6.0.0-0)) date 2023-01-16 12:55:46*
%MOMM*%
%LPD*%
G01*
G04 APERTURE LIST*
G04 Aperture macros list*
%AMRoundRect*
0 Rectangle with rounded corners*
0 $1 Rounding radius*
0 $2 $3 $4 $5 $6 $7 $8 $9 X,Y pos of 4 corners*
0 Add a 4 corners polygon primitive as box body*
4,1,4,$2,$3,$4,$5,$6,$7,$8,$9,$2,$3,0*
0 Add four circle primitives for the rounded corners*
1,1,$1+$1,$2,$3*
1,1,$1+$1,$4,$5*
1,1,$1+$1,$6,$7*
1,1,$1+$1,$8,$9*
0 Add four rect primitives between the rounded corners*
20,1,$1+$1,$2,$3,$4,$5,0*
20,1,$1+$1,$4,$5,$6,$7,0*
20,1,$1+$1,$6,$7,$8,$9,0*
20,1,$1+$1,$8,$9,$2,$3,0*%
G04 Aperture macros list end*
%TA.AperFunction,ComponentPad*%
%ADD10R,2.400000X2.400000*%
%TD*%
%TA.AperFunction,ComponentPad*%
%ADD11C,2.400000*%
%TD*%
%TA.AperFunction,ComponentPad*%
%ADD12R,1.700000X1.700000*%
%TD*%
%TA.AperFunction,ComponentPad*%
%ADD13O,1.700000X1.700000*%
%TD*%
%TA.AperFunction,ComponentPad*%
%ADD14R,2.800000X2.800000*%
%TD*%
%TA.AperFunction,ComponentPad*%
%ADD15C,2.800000*%
%TD*%
%TA.AperFunction,ComponentPad*%
%ADD16R,3.200000X3.200000*%
%TD*%
%TA.AperFunction,ComponentPad*%
%ADD17O,3.200000X3.200000*%
%TD*%
%TA.AperFunction,ComponentPad*%
%ADD18R,2.000000X1.905000*%
%TD*%
%TA.AperFunction,ComponentPad*%
%ADD19O,2.000000X1.905000*%
%TD*%
%TA.AperFunction,ComponentPad*%
%ADD20RoundRect,0.250000X-0.600000X0.600000X-0.600000X-0.600000X0.600000X-0.600000X0.600000X0.600000X0*%
%TD*%
%TA.AperFunction,ComponentPad*%
%ADD21C,1.700000*%
%TD*%
%TA.AperFunction,ViaPad*%
%ADD22C,0.800000*%
%TD*%
%TA.AperFunction,Conductor*%
%ADD23C,0.254000*%
%TD*%
G04 APERTURE END LIST*
D10*
%TO.P,C1,1*%
%TO.N,+24V*%
X163500000Y-88100000D03*
D11*
%TO.P,C1,2*%
%TO.N,GND*%
X158500000Y-88100000D03*
%TD*%
D12*
%TO.P,J5,1,Pin_1*%
%TO.N,Net-(J5-Pad1)*%
X144650000Y-81110000D03*
D13*
%TO.P,J5,2,Pin_2*%
%TO.N,Net-(J5-Pad2)*%
X142110000Y-81110000D03*
%TD*%
D14*
%TO.P,J4,1,Pin_1*%
%TO.N,/Motor+*%
X138330000Y-109880000D03*
D15*
%TO.P,J4,2,Pin_2*%
%TO.N,/Motor-*%
X138330000Y-114880000D03*
%TD*%
D12*
%TO.P,J9,1,Pin_1*%
%TO.N,Net-(J8-Pad16)*%
X135725000Y-84800000D03*
D13*
%TO.P,J9,2,Pin_2*%
%TO.N,Net-(J8-Pad14)*%
X138265000Y-84800000D03*
%TD*%
D12*
%TO.P,J6,1,Pin_1*%
%TO.N,Net-(J6-Pad1)*%
X142100000Y-84800000D03*
D13*
%TO.P,J6,2,Pin_2*%
%TO.N,Net-(J6-Pad2)*%
X144640000Y-84800000D03*
%TD*%
D14*
%TO.P,J3,1,Pin_1*%
%TO.N,/PWM*%
X138425000Y-91400000D03*
D15*
%TO.P,J3,2,Pin_2*%
%TO.N,GND*%
X138425000Y-96400000D03*
%TD*%
D12*
%TO.P,J7,1,Pin_1*%
%TO.N,Net-(J7-Pad1)*%
X138275000Y-81110000D03*
D13*
%TO.P,J7,2,Pin_2*%
%TO.N,/PWM*%
X135735000Y-81110000D03*
%TD*%
D16*
%TO.P,D1,1,K*%
%TO.N,+24V*%
X170545000Y-99220000D03*
D17*
%TO.P,D1,2,A*%
%TO.N,/net_D*%
X170545000Y-114460000D03*
%TD*%
D18*
%TO.P,Q1,1,G*%
%TO.N,Net-(Q1-Pad1)*%
X178700000Y-104300000D03*
D19*
%TO.P,Q1,2,D*%
%TO.N,/net_D*%
X178700000Y-106840000D03*
%TO.P,Q1,3,S*%
%TO.N,GND*%
X178700000Y-109380000D03*
%TD*%
D20*
%TO.P,J8,1,Pin_1*%
%TO.N,+24V*%
X170040000Y-71947500D03*
D21*
%TO.P,J8,2,Pin_2*%
X170040000Y-74487500D03*
%TO.P,J8,3,Pin_3*%
X167500000Y-71947500D03*
%TO.P,J8,4,Pin_4*%
X167500000Y-74487500D03*
%TO.P,J8,5,Pin_5*%
X164960000Y-71947500D03*
%TO.P,J8,6,Pin_6*%
X164960000Y-74487500D03*
%TO.P,J8,7,Pin_7*%
X162420000Y-71947500D03*
%TO.P,J8,8,Pin_8*%
X162420000Y-74487500D03*
%TO.P,J8,9,Pin_9*%
%TO.N,Net-(J5-Pad1)*%
X159880000Y-71947500D03*
%TO.P,J8,10,Pin_10*%
%TO.N,Net-(J6-Pad2)*%
X159880000Y-74487500D03*
%TO.P,J8,11,Pin_11*%
%TO.N,Net-(J5-Pad2)*%
X157340000Y-71947500D03*
%TO.P,J8,12,Pin_12*%
%TO.N,Net-(J6-Pad1)*%
X157340000Y-74487500D03*
%TO.P,J8,13,Pin_13*%
%TO.N,Net-(J7-Pad1)*%
X154800000Y-71947500D03*
%TO.P,J8,14,Pin_14*%
%TO.N,Net-(J8-Pad14)*%
X154800000Y-74487500D03*
%TO.P,J8,15,Pin_15*%
%TO.N,/PWM*%
X152260000Y-71947500D03*
%TO.P,J8,16,Pin_16*%
%TO.N,Net-(J8-Pad16)*%
X152260000Y-74487500D03*
%TO.P,J8,17,Pin_17*%
%TO.N,GND*%
X149720000Y-71947500D03*
%TO.P,J8,18,Pin_18*%
X149720000Y-74487500D03*
%TO.P,J8,19,Pin_19*%
X147180000Y-71947500D03*
%TO.P,J8,20,Pin_20*%
X147180000Y-74487500D03*
%TO.P,J8,21,Pin_21*%
X144640000Y-71947500D03*
%TO.P,J8,22,Pin_22*%
X144640000Y-74487500D03*
%TO.P,J8,23,Pin_23*%
X142100000Y-71947500D03*
%TO.P,J8,24,Pin_24*%
X142100000Y-74487500D03*
%TO.P,J8,25,Pin_25*%
X139560000Y-71947500D03*
%TO.P,J8,26,Pin_26*%
X139560000Y-74487500D03*
%TD*%
D14*
%TO.P,J1,1,Pin_1*%
%TO.N,+24V*%
X184825000Y-72800000D03*
D15*
%TO.P,J1,2,Pin_2*%
%TO.N,GND*%
X179825000Y-72800000D03*
%TD*%
D22*
%TO.N,GND*%
X161600000Y-116200000D03*
X163200000Y-116200000D03*
%TO.N,+24V*%
X173000000Y-100000000D03*
X163210000Y-114480000D03*
X166000000Y-102000000D03*
X168000000Y-98000000D03*
X168000000Y-100000000D03*
X160010000Y-114480000D03*
X170000000Y-102000000D03*
X168000000Y-102000000D03*
X166000000Y-100000000D03*
X166000000Y-98000000D03*
%TO.N,GND*%
X151320000Y-96420000D03*
X191720000Y-70860000D03*
%TO.N,Net-(Q1-Pad1)*%
X151305000Y-94587500D03*
%TD*%
D23*
%TO.N,/PWM*%
X151260000Y-77730000D02*
X136340000Y-77730000D01*
X153569489Y-73256989D02*
X153569489Y-75420511D01*
X136340000Y-77730000D02*
X135735000Y-78335000D01*
X135735000Y-78335000D02*
X135735000Y-81110000D01*
X135735000Y-81110000D02*
X136955511Y-82330511D01*
X152260000Y-71947500D02*
X153569489Y-73256989D01*
X153569489Y-75420511D02*
X151260000Y-77730000D01*
X136955511Y-82330511D02*
X136955511Y-89930511D01*
X136955511Y-89930511D02*
X138425000Y-91400000D01*
%TO.N,Net-(Q1-Pad1)*%
X178700000Y-98410000D02*
X178700000Y-104300000D01*
X151305000Y-94587500D02*
X174877500Y-94587500D01*
X174877500Y-94587500D02*
X178700000Y-98410000D01*
%TD*%
%TA.AperFunction,Conductor*%
%TO.N,GND*%
G36*
X199688121Y-67274002D02*
G01*
X199734614Y-67327658D01*
X199746000Y-67380000D01*
X199746000Y-149620000D01*
X199725998Y-149688121D01*
X199672342Y-149734614D01*
X199620000Y-149746000D01*
X168380000Y-149746000D01*
X168311879Y-149725998D01*
X168265386Y-149672342D01*
X168254000Y-149620000D01*
X168254000Y-146042186D01*
X171141018Y-146042186D01*
X171166579Y-146310100D01*
X171230547Y-146571518D01*
X171331583Y-146820963D01*
X171467569Y-147053210D01*
X171635658Y-147263395D01*
X171832327Y-147447113D01*
X172053457Y-147600516D01*
X172294416Y-147720391D01*
X172298750Y-147721812D01*
X172298753Y-147721813D01*
X172545823Y-147802807D01*
X172545829Y-147802808D01*
X172550156Y-147804227D01*
X172554647Y-147805007D01*
X172554648Y-147805007D01*
X172811538Y-147849611D01*
X172811546Y-147849612D01*
X172815319Y-147850267D01*
X172819156Y-147850458D01*
X172898777Y-147854422D01*
X172898785Y-147854422D01*
X172900348Y-147854500D01*
X173068374Y-147854500D01*
X173070642Y-147854335D01*
X173070654Y-147854335D01*
X173201457Y-147844844D01*
X173268425Y-147839985D01*
X173272880Y-147839001D01*
X173272883Y-147839001D01*
X173526770Y-147782947D01*
X173526772Y-147782946D01*
X173531226Y-147781963D01*
X173782900Y-147686613D01*
X174018172Y-147555931D01*
X174164842Y-147443996D01*
X174228491Y-147395421D01*
X174228495Y-147395417D01*
X174232116Y-147392654D01*
X174420249Y-147200203D01*
X174527242Y-147053210D01*
X174575942Y-146986304D01*
X174575947Y-146986297D01*
X174578630Y-146982610D01*
X174703941Y-146744433D01*
X174793557Y-146490662D01*
X174818688Y-146363156D01*
X174844720Y-146231083D01*
X174844721Y-146231077D01*
X174845601Y-146226611D01*
X174854782Y-146042186D01*
X174858755Y-145962383D01*
X174858755Y-145962377D01*
X174858982Y-145957814D01*
X174833421Y-145689900D01*
X174769453Y-145428482D01*
X174668417Y-145179037D01*
X174532431Y-144946790D01*
X174364342Y-144736605D01*
X174167673Y-144552887D01*
X173946543Y-144399484D01*
X173705584Y-144279609D01*
X173701250Y-144278188D01*
X173701247Y-144278187D01*
X173454177Y-144197193D01*
X173454171Y-144197192D01*
X173449844Y-144195773D01*
X173445352Y-144194993D01*
X173188462Y-144150389D01*
X173188454Y-144150388D01*
X173184681Y-144149733D01*
X173174718Y-144149237D01*
X173101223Y-144145578D01*
X173101215Y-144145578D01*
X173099652Y-144145500D01*
X172931626Y-144145500D01*
X172929358Y-144145665D01*
X172929346Y-144145665D01*
X172798543Y-144155156D01*
X172731575Y-144160015D01*
X172727120Y-144160999D01*
X172727117Y-144160999D01*
X172473230Y-144217053D01*
X172473228Y-144217054D01*
X172468774Y-144218037D01*
X172217100Y-144313387D01*
X171981828Y-144444069D01*
X171978196Y-144446841D01*
X171771509Y-144604579D01*
X171771505Y-144604583D01*
X171767884Y-144607346D01*
X171579751Y-144799797D01*
X171577066Y-144803486D01*
X171424058Y-145013696D01*
X171424053Y-145013703D01*
X171421370Y-145017390D01*
X171296059Y-145255567D01*
X171206443Y-145509338D01*
X171205560Y-145513820D01*
X171170855Y-145689900D01*
X171154399Y-145773389D01*
X171154172Y-145777942D01*
X171154172Y-145777945D01*
X171144991Y-145962383D01*
X171141018Y-146042186D01*
X168254000Y-146042186D01*
X168254000Y-142037425D01*
X168256421Y-142012844D01*
X168256555Y-142012170D01*
X168258976Y-142000000D01*
X168239263Y-141900894D01*
X168183124Y-141816876D01*
X168099106Y-141760737D01*
X168025017Y-141746000D01*
X168012172Y-141743445D01*
X168000000Y-141741024D01*
X167987153Y-141743579D01*
X167962575Y-141746000D01*
X133680000Y-141746000D01*
X133611879Y-141725998D01*
X133565386Y-141672342D01*
X133554000Y-141620000D01*
X133554000Y-124042186D01*
X194141018Y-124042186D01*
X194166579Y-124310100D01*
X194230547Y-124571518D01*
X194331583Y-124820963D01*
X194467569Y-125053210D01*
X194635658Y-125263395D01*
X194832327Y-125447113D01*
X195053457Y-125600516D01*
X195294416Y-125720391D01*
X195298750Y-125721812D01*
X195298753Y-125721813D01*
X195545823Y-125802807D01*
X195545829Y-125802808D01*
X195550156Y-125804227D01*
X195554647Y-125805007D01*
X195554648Y-125805007D01*
X195811538Y-125849611D01*
X195811546Y-125849612D01*
X195815319Y-125850267D01*
X195819156Y-125850458D01*
X195898777Y-125854422D01*
X195898785Y-125854422D01*
X195900348Y-125854500D01*
X196068374Y-125854500D01*
X196070642Y-125854335D01*
X196070654Y-125854335D01*
X196201457Y-125844844D01*
X196268425Y-125839985D01*
X196272880Y-125839001D01*
X196272883Y-125839001D01*
X196526770Y-125782947D01*
X196526772Y-125782946D01*
X196531226Y-125781963D01*
X196782900Y-125686613D01*
X197018172Y-125555931D01*
X197164842Y-125443996D01*
X197228491Y-125395421D01*
X197228495Y-125395417D01*
X197232116Y-125392654D01*
X197420249Y-125200203D01*
X197527242Y-125053210D01*
X197575942Y-124986304D01*
X197575947Y-124986297D01*
X197578630Y-124982610D01*
X197703941Y-124744433D01*
X197793557Y-124490662D01*
X197818688Y-124363156D01*
X197844720Y-124231083D01*
X197844721Y-124231077D01*
X197845601Y-124226611D01*
X197854782Y-124042186D01*
X197858755Y-123962383D01*
X197858755Y-123962377D01*
X197858982Y-123957814D01*
X197833421Y-123689900D01*
X197769453Y-123428482D01*
X197668417Y-123179037D01*
X197532431Y-122946790D01*
X197364342Y-122736605D01*
X197167673Y-122552887D01*
X196946543Y-122399484D01*
X196705584Y-122279609D01*
X196701250Y-122278188D01*
X196701247Y-122278187D01*
X196454177Y-122197193D01*
X196454171Y-122197192D01*
X196449844Y-122195773D01*
X196445352Y-122194993D01*
X196188462Y-122150389D01*
X196188454Y-122150388D01*
X196184681Y-122149733D01*
X196174718Y-122149237D01*
X196101223Y-122145578D01*
X196101215Y-122145578D01*
X196099652Y-122145500D01*
X195931626Y-122145500D01*
X195929358Y-122145665D01*
X195929346Y-122145665D01*
X195798543Y-122155156D01*
X195731575Y-122160015D01*
X195727120Y-122160999D01*
X195727117Y-122160999D01*
X195473230Y-122217053D01*
X195473228Y-122217054D01*
X195468774Y-122218037D01*
X195217100Y-122313387D01*
X194981828Y-122444069D01*
X194978196Y-122446841D01*
X194771509Y-122604579D01*
X194771505Y-122604583D01*
X194767884Y-122607346D01*
X194579751Y-122799797D01*
X194577066Y-122803486D01*
X194424058Y-123013696D01*
X194424053Y-123013703D01*
X194421370Y-123017390D01*
X194296059Y-123255567D01*
X194206443Y-123509338D01*
X194205560Y-123513820D01*
X194170855Y-123689900D01*
X194154399Y-123773389D01*
X194154172Y-123777942D01*
X194154172Y-123777945D01*
X194144991Y-123962383D01*
X194141018Y-124042186D01*
X133554000Y-124042186D01*
X133554000Y-114880000D01*
X136670384Y-114880000D01*
X136690817Y-115139621D01*
X136691971Y-115144428D01*
X136691972Y-115144434D01*
X136730915Y-115306642D01*
X136751611Y-115392850D01*
X136753504Y-115397421D01*
X136753505Y-115397423D01*
X136848079Y-115625743D01*
X136851271Y-115633450D01*
X136987342Y-115855498D01*
X136990553Y-115859258D01*
X136990557Y-115859263D01*
X137092242Y-115978320D01*
X137156474Y-116053526D01*
X137160236Y-116056739D01*
X137350737Y-116219443D01*
X137350742Y-116219447D01*
X137354502Y-116222658D01*
X137576550Y-116358729D01*
X137581120Y-116360622D01*
X137581124Y-116360624D01*
X137812577Y-116456495D01*
X137817150Y-116458389D01*
X137903358Y-116479085D01*
X138065566Y-116518028D01*
X138065572Y-116518029D01*
X138070379Y-116519183D01*
X138330000Y-116539616D01*
X138589621Y-116519183D01*
X138594428Y-116518029D01*
X138594434Y-116518028D01*
X138756642Y-116479085D01*
X138842850Y-116458389D01*
X138847423Y-116456495D01*
X139078876Y-116360624D01*
X139078880Y-116360622D01*
X139083450Y-116358729D01*
X139305498Y-116222658D01*
X139309258Y-116219447D01*
X139309263Y-116219443D01*
X139499764Y-116056739D01*
X139503526Y-116053526D01*
X139567758Y-115978320D01*
X139669443Y-115859263D01*
X139669447Y-115859258D01*
X139672658Y-115855498D01*
X139808729Y-115633450D01*
X139811922Y-115625743D01*
X139906495Y-115397423D01*
X139906496Y-115397421D01*
X139908389Y-115392850D01*
X139929085Y-115306642D01*
X139968028Y-115144434D01*
X139968029Y-115144428D01*
X139969183Y-115139621D01*
X139989616Y-114880000D01*
X139969183Y-114620379D01*
X139908389Y-114367150D01*
X139849491Y-114224957D01*
X139838246Y-114197810D01*
X158746000Y-114197810D01*
X158747455Y-114224957D01*
X158750334Y-114251740D01*
X158779950Y-114346325D01*
X158782916Y-114351757D01*
X158782917Y-114351759D01*
X158793949Y-114371962D01*
X158813976Y-114408637D01*
X158816671Y-114412237D01*
X158854603Y-114462908D01*
X158854607Y-114462912D01*
X158857300Y-114466510D01*
X159533490Y-115142700D01*
X159534743Y-115143826D01*
X159534753Y-115143835D01*
X159535420Y-115144434D01*
X159553712Y-115160865D01*
X159574686Y-115177768D01*
X159662509Y-115223709D01*
X159668447Y-115225452D01*
X159668448Y-115225453D01*
X159686278Y-115230688D01*
X159730630Y-115243711D01*
X159735089Y-115244352D01*
X159735093Y-115244353D01*
X159759166Y-115247814D01*
X159802190Y-115254000D01*
X163947810Y-115254000D01*
X163974957Y-115252545D01*
X163976628Y-115252365D01*
X163976645Y-115252364D01*
X163990599Y-115250864D01*
X164001740Y-115249666D01*
X164096325Y-115220050D01*
X164101757Y-115217084D01*
X164101759Y-115217083D01*
X164154689Y-115188180D01*
X164154691Y-115188179D01*
X164158637Y-115186024D01*
X164192245Y-115160865D01*
X164212908Y-115145397D01*
X164212912Y-115145393D01*
X164216510Y-115142700D01*
X164957610Y-114401600D01*
X168686680Y-114401600D01*
X168696991Y-114664022D01*
X168744174Y-114922373D01*
X168745583Y-114926596D01*
X168818060Y-115143835D01*
X168827289Y-115171499D01*
X168886228Y-115289455D01*
X168935488Y-115388038D01*
X168944677Y-115406429D01*
X169093995Y-115622474D01*
X169097011Y-115625736D01*
X169097016Y-115625743D01*
X169269249Y-115812063D01*
X169269254Y-115812067D01*
X169272265Y-115815325D01*
X169475929Y-115981134D01*
X169479747Y-115983433D01*
X169479749Y-115983434D01*
X169631827Y-116074992D01*
X169700924Y-116116592D01*
X169813947Y-116164451D01*
X169938663Y-116217262D01*
X169938666Y-116217263D01*
X169942761Y-116218997D01*
X169947053Y-116220135D01*
X169947056Y-116220136D01*
X170192317Y-116285166D01*
X170192321Y-116285167D01*
X170196614Y-116286305D01*
X170201023Y-116286827D01*
X170201029Y-116286828D01*
X170371509Y-116307005D01*
X170457418Y-116317173D01*
X170719970Y-116310986D01*
X170800543Y-116297575D01*
X170974640Y-116268597D01*
X170974644Y-116268596D01*
X170979030Y-116267866D01*
X170983271Y-116266525D01*
X170983274Y-116266524D01*
X171225185Y-116190018D01*
X171225187Y-116190017D01*
X171229431Y-116188675D01*
X171233442Y-116186749D01*
X171233447Y-116186747D01*
X171462156Y-116076922D01*
X171462157Y-116076921D01*
X171466175Y-116074992D01*
X171575984Y-116001620D01*
X171680831Y-115931563D01*
X171680835Y-115931560D01*
X171684539Y-115929085D01*
X171687856Y-115926114D01*
X171687860Y-115926111D01*
X171876849Y-115756839D01*
X171876850Y-115756838D01*
X171880167Y-115753867D01*
X172049154Y-115552832D01*
X172188130Y-115329992D01*
X172221767Y-115253908D01*
X172292522Y-115093861D01*
X172294320Y-115089794D01*
X172365607Y-114837030D01*
X172388845Y-114664022D01*
X172400141Y-114579924D01*
X172400142Y-114579916D01*
X172400568Y-114576742D01*
X172403932Y-114469697D01*
X172404136Y-114463222D01*
X172404136Y-114463217D01*
X172404237Y-114460000D01*
X172385689Y-114198031D01*
X172372339Y-114136020D01*
X172331350Y-113945636D01*
X172331350Y-113945634D01*
X172330414Y-113941289D01*
X172239515Y-113694897D01*
X172114806Y-113463771D01*
X171958775Y-113252522D01*
X171948390Y-113241972D01*
X171777666Y-113068547D01*
X171774535Y-113065366D01*
X171565764Y-112906036D01*
X171336625Y-112777712D01*
X171332466Y-112776103D01*
X171095846Y-112684561D01*
X171095840Y-112684559D01*
X171091691Y-112682954D01*
X171087359Y-112681950D01*
X171087356Y-112681949D01*
X170982747Y-112657702D01*
X170835849Y-112623653D01*
X170574204Y-112600992D01*
X170569769Y-112601236D01*
X170569765Y-112601236D01*
X170316419Y-112615179D01*
X170316412Y-112615180D01*
X170311976Y-112615424D01*
X170054397Y-112666659D01*
X169806608Y-112753677D01*
X169802657Y-112755730D01*
X169802651Y-112755732D01*
X169577501Y-112872688D01*
X169573551Y-112874740D01*
X169569936Y-112877323D01*
X169569930Y-112877327D01*
X169525975Y-112908738D01*
X169359878Y-113027433D01*
X169169851Y-113208710D01*
X169167095Y-113212206D01*
X169167094Y-113212207D01*
X169095120Y-113303505D01*
X169007261Y-113414954D01*
X168947898Y-113517156D01*
X168877588Y-113638202D01*
X168877585Y-113638208D01*
X168875354Y-113642049D01*
X168873684Y-113646172D01*
X168852257Y-113699074D01*
X168776761Y-113885464D01*
X168775690Y-113889777D01*
X168775688Y-113889782D01*
X168762894Y-113941289D01*
X168713448Y-114140343D01*
X168686680Y-114401600D01*
X164957610Y-114401600D01*
X169706489Y-109652721D01*
X177475093Y-109652721D01*
X177481140Y-109687909D01*
X177484118Y-109699026D01*
X177556866Y-109896218D01*
X177561818Y-109906600D01*
X177669285Y-110087236D01*
X177676049Y-110096545D01*
X177814637Y-110254575D01*
X177822972Y-110262485D01*
X177988041Y-110392614D01*
X177997692Y-110398882D01*
X178183698Y-110496744D01*
X178194332Y-110501149D01*
X178395063Y-110563478D01*
X178406317Y-110565870D01*
X178428012Y-110568438D01*
X178442431Y-110565995D01*
X178445629Y-110554579D01*
X178954000Y-110554579D01*
X178958271Y-110569124D01*
X178968339Y-110570835D01*
X178973872Y-110569810D01*
X179176164Y-110512758D01*
X179186903Y-110508636D01*
X179375415Y-110415673D01*
X179385222Y-110409663D01*
X179553641Y-110283899D01*
X179562181Y-110276210D01*
X179704863Y-110121857D01*
X179711864Y-110112732D01*
X179824024Y-109934969D01*
X179829245Y-109924722D01*
X179907132Y-109729497D01*
X179910398Y-109718470D01*
X179923665Y-109651770D01*
X179922513Y-109638894D01*
X179907360Y-109634000D01*
X178972115Y-109634000D01*
X178956876Y-109638475D01*
X178955671Y-109639865D01*
X178954000Y-109647548D01*
X178954000Y-110554579D01*
X178445629Y-110554579D01*
X178446000Y-110553254D01*
X178446000Y-109652115D01*
X178441525Y-109636876D01*
X178440135Y-109635671D01*
X178432452Y-109634000D01*
X177489991Y-109634000D01*
X177477029Y-109637806D01*
X177475093Y-109652721D01*
X169706489Y-109652721D01*
X171642700Y-107716510D01*
X171660865Y-107696288D01*
X171677768Y-107675314D01*
X171723709Y-107587491D01*
X171743711Y-107519370D01*
X171754000Y-107447810D01*
X171754000Y-104157400D01*
X171774002Y-104089279D01*
X171790905Y-104068305D01*
X173642700Y-102216510D01*
X173660865Y-102196288D01*
X173677768Y-102175314D01*
X173723709Y-102087491D01*
X173743711Y-102019370D01*
X173754000Y-101947810D01*
X173754000Y-98052190D01*
X173752545Y-98025043D01*
X173749666Y-97998260D01*
X173720050Y-97903675D01*
X173704772Y-97875695D01*
X173688180Y-97845311D01*
X173688179Y-97845309D01*
X173686024Y-97841363D01*
X173681735Y-97835634D01*
X173645397Y-97787092D01*
X173645393Y-97787088D01*
X173642700Y-97783490D01*
X172716510Y-96857300D01*
X172715257Y-96856174D01*
X172715247Y-96856165D01*
X172697559Y-96840277D01*
X172696288Y-96839135D01*
X172675314Y-96822232D01*
X172587491Y-96776291D01*
X172581553Y-96774548D01*
X172581552Y-96774547D01*
X172547467Y-96764539D01*
X172519370Y-96756289D01*
X172514911Y-96755648D01*
X172514907Y-96755647D01*
X172477953Y-96750334D01*
X172447810Y-96746000D01*
X166052190Y-96746000D01*
X166025043Y-96747455D01*
X166023372Y-96747635D01*
X166023355Y-96747636D01*
X166009401Y-96749136D01*
X165998260Y-96750334D01*
X165903675Y-96779950D01*
X165898243Y-96782916D01*
X165898241Y-96782917D01*
X165845311Y-96811820D01*
X165841363Y-96813976D01*
X165837763Y-96816671D01*
X165787092Y-96854603D01*
X165787088Y-96854607D01*
X165783490Y-96857300D01*
X165357300Y-97283490D01*
X165339135Y-97303712D01*
X165322232Y-97324686D01*
X165276291Y-97412509D01*
X165256289Y-97480630D01*
X165246000Y-97552190D01*
X165246000Y-102447810D01*
X165247455Y-102474957D01*
X165250334Y-102501740D01*
X165279950Y-102596325D01*
X165313976Y-102658637D01*
X165316671Y-102662237D01*
X165354603Y-102712908D01*
X165354607Y-102712912D01*
X165357300Y-102716510D01*
X166709095Y-104068305D01*
X166743121Y-104130617D01*
X166746000Y-104157400D01*
X166746000Y-107842600D01*
X166725998Y-107910721D01*
X166709095Y-107931695D01*
X163431695Y-111209095D01*
X163369383Y-111243121D01*
X163342600Y-111246000D01*
X159802190Y-111246000D01*
X159775043Y-111247455D01*
X159773372Y-111247635D01*
X159773355Y-111247636D01*
X159759401Y-111249136D01*
X159748260Y-111250334D01*
X159653675Y-111279950D01*
X159648243Y-111282916D01*
X159648241Y-111282917D01*
X159596562Y-111311137D01*
X159591363Y-111313976D01*
X159587763Y-111316671D01*
X159537092Y-111354603D01*
X159537088Y-111354607D01*
X159533490Y-111357300D01*
X158857300Y-112033490D01*
X158839135Y-112053712D01*
X158822232Y-112074686D01*
X158776291Y-112162509D01*
X158756289Y-112230630D01*
X158746000Y-112302190D01*
X158746000Y-114197810D01*
X139838246Y-114197810D01*
X139810624Y-114131124D01*
X139810622Y-114131120D01*
X139808729Y-114126550D01*
X139672658Y-113904502D01*
X139669447Y-113900742D01*
X139669443Y-113900737D01*
X139506739Y-113710236D01*
X139503526Y-113706474D01*
X139484504Y-113690228D01*
X139309263Y-113540557D01*
X139309258Y-113540553D01*
X139305498Y-113537342D01*
X139083450Y-113401271D01*
X139078880Y-113399378D01*
X139078876Y-113399376D01*
X138847423Y-113303505D01*
X138847421Y-113303504D01*
X138842850Y-113301611D01*
X138756642Y-113280915D01*
X138594434Y-113241972D01*
X138594428Y-113241971D01*
X138589621Y-113240817D01*
X138330000Y-113220384D01*
X138070379Y-113240817D01*
X138065572Y-113241971D01*
X138065566Y-113241972D01*
X137903358Y-113280915D01*
X137817150Y-113301611D01*
X137812579Y-113303504D01*
X137812577Y-113303505D01*
X137581124Y-113399376D01*
X137581120Y-113399378D01*
X137576550Y-113401271D01*
X137354502Y-113537342D01*
X137350742Y-113540553D01*
X137350737Y-113540557D01*
X137175496Y-113690228D01*
X137156474Y-113706474D01*
X137153261Y-113710236D01*
X136990557Y-113900737D01*
X136990553Y-113900742D01*
X136987342Y-113904502D01*
X136851271Y-114126550D01*
X136849378Y-114131120D01*
X136849376Y-114131124D01*
X136810509Y-114224957D01*
X136751611Y-114367150D01*
X136690817Y-114620379D01*
X136670384Y-114880000D01*
X133554000Y-114880000D01*
X133554000Y-108454933D01*
X136675500Y-108454933D01*
X136675501Y-111305066D01*
X136682612Y-111340818D01*
X136685354Y-111354603D01*
X136690266Y-111379301D01*
X136746516Y-111463484D01*
X136830699Y-111519734D01*
X136904933Y-111534500D01*
X138329769Y-111534500D01*
X139755066Y-111534499D01*
X139790818Y-111527388D01*
X139817126Y-111522156D01*
X139817128Y-111522155D01*
X139829301Y-111519734D01*
X139839621Y-111512839D01*
X139839622Y-111512838D01*
X139903168Y-111470377D01*
X139913484Y-111463484D01*
X139969734Y-111379301D01*
X139984500Y-111305067D01*
X139984499Y-108454934D01*
X139969734Y-108380699D01*
X139960839Y-108367386D01*
X139920377Y-108306832D01*
X139913484Y-108296516D01*
X139829301Y-108240266D01*
X139755067Y-108225500D01*
X138330231Y-108225500D01*
X136904934Y-108225501D01*
X136876296Y-108231197D01*
X136842874Y-108237844D01*
X136842872Y-108237845D01*
X136830699Y-108240266D01*
X136820379Y-108247161D01*
X136820378Y-108247162D01*
X136802889Y-108258848D01*
X136746516Y-108296516D01*
X136690266Y-108380699D01*
X136675500Y-108454933D01*
X133554000Y-108454933D01*
X133554000Y-97739366D01*
X137450989Y-97739366D01*
X137455416Y-97745694D01*
X137667558Y-97875695D01*
X137676352Y-97880176D01*
X137907733Y-97976017D01*
X137917118Y-97979066D01*
X138160644Y-98037533D01*
X138170391Y-98039076D01*
X138420070Y-98058726D01*
X138429930Y-98058726D01*
X138679609Y-98039076D01*
X138689356Y-98037533D01*
X138932882Y-97979066D01*
X138942267Y-97976017D01*
X139173648Y-97880176D01*
X139182442Y-97875695D01*
X139393163Y-97746565D01*
X139399085Y-97737492D01*
X139393080Y-97727290D01*
X138437812Y-96772022D01*
X138423868Y-96764408D01*
X138422035Y-96764539D01*
X138415420Y-96768790D01*
X137458382Y-97725828D01*
X137450989Y-97739366D01*
X133554000Y-97739366D01*
X133554000Y-96404930D01*
X136766274Y-96404930D01*
X136785924Y-96654609D01*
X136787467Y-96664356D01*
X136845934Y-96907882D01*
X136848983Y-96917267D01*
X136944824Y-97148648D01*
X136949305Y-97157442D01*
X137078435Y-97368163D01*
X137087508Y-97374085D01*
X137097710Y-97368080D01*
X138052978Y-96412812D01*
X138059356Y-96401132D01*
X138789408Y-96401132D01*
X138789539Y-96402965D01*
X138793790Y-96409580D01*
X139750828Y-97366618D01*
X139764366Y-97374011D01*
X139770694Y-97369584D01*
X139900695Y-97157442D01*
X139905176Y-97148648D01*
X140001017Y-96917267D01*
X140004066Y-96907882D01*
X140062533Y-96664356D01*
X140064076Y-96654609D01*
X140083726Y-96404930D01*
X140083726Y-96395070D01*
X140064076Y-96145391D01*
X140062533Y-96135644D01*
X140004066Y-95892118D01*
X140001017Y-95882733D01*
X139905176Y-95651352D01*
X139900695Y-95642558D01*
X139771565Y-95431837D01*
X139762492Y-95425915D01*
X139752290Y-95431920D01*
X138797022Y-96387188D01*
X138789408Y-96401132D01*
X138059356Y-96401132D01*
X138060592Y-96398868D01*
X138060461Y-96397035D01*
X138056210Y-96390420D01*
X137099172Y-95433382D01*
X137085634Y-95425989D01*
X137079306Y-95430416D01*
X136949305Y-95642558D01*
X136944824Y-95651352D01*
X136848983Y-95882733D01*
X136845934Y-95892118D01*
X136787467Y-96135644D01*
X136785924Y-96145391D01*
X136766274Y-96395070D01*
X136766274Y-96404930D01*
X133554000Y-96404930D01*
X133554000Y-95062508D01*
X137450915Y-95062508D01*
X137456920Y-95072710D01*
X138412188Y-96027978D01*
X138426132Y-96035592D01*
X138427965Y-96035461D01*
X138434580Y-96031210D01*
X139391618Y-95074172D01*
X139399011Y-95060634D01*
X139394584Y-95054306D01*
X139182442Y-94924305D01*
X139173648Y-94919824D01*
X138942267Y-94823983D01*
X138932882Y-94820934D01*
X138689356Y-94762467D01*
X138679609Y-94760924D01*
X138429930Y-94741274D01*
X138420070Y-94741274D01*
X138170391Y-94760924D01*
X138160644Y-94762467D01*
X137917118Y-94820934D01*
X137907733Y-94823983D01*
X137676352Y-94919824D01*
X137667558Y-94924305D01*
X137456837Y-95053435D01*
X137450915Y-95062508D01*
X133554000Y-95062508D01*
X133554000Y-94580596D01*
X150645729Y-94580596D01*
X150663113Y-94738053D01*
X150665723Y-94745184D01*
X150665723Y-94745186D01*
X150694559Y-94823983D01*
X150717553Y-94886819D01*
X150721789Y-94893122D01*
X150721789Y-94893123D01*
X150797576Y-95005905D01*
X150805908Y-95018305D01*
X150811527Y-95023418D01*
X150811528Y-95023419D01*
X150867305Y-95074172D01*
X150923076Y-95124919D01*
X151062293Y-95200508D01*
X151215522Y-95240707D01*
X151299477Y-95242026D01*
X151366319Y-95243076D01*
X151366322Y-95243076D01*
X151373916Y-95243195D01*
X151528332Y-95207829D01*
X151598742Y-95172417D01*
X151663072Y-95140063D01*
X151663075Y-95140061D01*
X151669855Y-95136651D01*
X151675626Y-95131722D01*
X151675629Y-95131720D01*
X151784542Y-95038699D01*
X151784543Y-95038698D01*
X151790314Y-95033769D01*
X151794745Y-95027603D01*
X151799150Y-95021473D01*
X151855145Y-94977826D01*
X151901472Y-94969000D01*
X174667288Y-94969000D01*
X174735409Y-94989002D01*
X174756383Y-95005905D01*
X178281595Y-98531118D01*
X178315621Y-98593430D01*
X178318500Y-98620213D01*
X178318500Y-102967001D01*
X178298498Y-103035122D01*
X178244842Y-103081615D01*
X178192500Y-103093001D01*
X177674934Y-103093001D01*
X177639182Y-103100112D01*
X177612874Y-103105344D01*
X177612872Y-103105345D01*
X177600699Y-103107766D01*
X177590379Y-103114661D01*
X177590378Y-103114662D01*
X177529985Y-103155016D01*
X177516516Y-103164016D01*
X177460266Y-103248199D01*
X177445500Y-103322433D01*
X177445501Y-105277566D01*
X177460266Y-105351801D01*
X177516516Y-105435984D01*
X177600699Y-105492234D01*
X177674933Y-105507000D01*
X178086520Y-105507000D01*
X178154641Y-105527002D01*
X178201134Y-105580658D01*
X178211238Y-105650932D01*
X178181744Y-105715512D01*
X178140764Y-105746726D01*
X178035603Y-105796885D01*
X178031042Y-105800162D01*
X178031041Y-105800163D01*
X177922059Y-105878475D01*
X177860633Y-105922614D01*
X177710693Y-106077340D01*
X177590522Y-106256173D01*
X177503919Y-106453460D01*
X177453622Y-106662965D01*
X177453299Y-106668570D01*
X177445286Y-106807541D01*
X177441219Y-106878066D01*
X177467103Y-107091964D01*
X177468753Y-107097326D01*
X177506827Y-107221086D01*
X177530457Y-107297897D01*
X177629277Y-107489357D01*
X177760439Y-107660292D01*
X177801395Y-107697559D01*
X177915652Y-107801525D01*
X177915655Y-107801527D01*
X177919799Y-107805298D01*
X177924550Y-107808279D01*
X177924551Y-107808279D01*
X178097562Y-107916809D01*
X178097566Y-107916811D01*
X178102318Y-107919792D01*
X178288213Y-107994521D01*
X178343954Y-108038485D01*
X178367079Y-108105610D01*
X178350242Y-108174581D01*
X178298790Y-108223501D01*
X178275415Y-108232695D01*
X178223836Y-108247242D01*
X178213097Y-108251364D01*
X178024585Y-108344327D01*
X178014778Y-108350337D01*
X177846359Y-108476101D01*
X177837819Y-108483790D01*
X177695137Y-108638143D01*
X177688136Y-108647268D01*
X177575976Y-108825031D01*
X177570755Y-108835278D01*
X177492868Y-109030503D01*
X177489602Y-109041530D01*
X177476335Y-109108230D01*
X177477487Y-109121106D01*
X177492640Y-109126000D01*
X179910009Y-109126000D01*
X179922971Y-109122194D01*
X179924907Y-109107279D01*
X179918860Y-109072091D01*
X179915882Y-109060974D01*
X179843134Y-108863782D01*
X179838182Y-108853400D01*
X179730715Y-108672764D01*
X179723951Y-108663455D01*
X179585363Y-108505425D01*
X179577028Y-108497515D01*
X179411959Y-108367386D01*
X179402308Y-108361118D01*
X179216302Y-108263256D01*
X179205661Y-108258848D01*
X179116612Y-108231197D01*
X179057487Y-108191894D01*
X179028997Y-108126865D01*
X179040187Y-108056756D01*
X179087504Y-108003826D01*
X179120729Y-107989331D01*
X179169927Y-107975872D01*
X179174985Y-107973460D01*
X179174989Y-107973458D01*
X179359330Y-107885532D01*
X179359332Y-107885531D01*
X179364397Y-107883115D01*
X179368959Y-107879837D01*
X179534807Y-107760663D01*
X179534809Y-107760661D01*
X179539367Y-107757386D01*
X179689307Y-107602660D01*
X179809478Y-107423827D01*
X179896081Y-107226540D01*
X179946378Y-107017035D01*
X179954391Y-106878066D01*
X179958458Y-106807541D01*
X179958458Y-106807538D01*
X179958781Y-106801934D01*
X179932897Y-106588036D01*
X179901220Y-106485070D01*
X179871193Y-106387465D01*
X179871191Y-106387461D01*
X179869543Y-106382103D01*
X179770723Y-106190643D01*
X179639561Y-106019708D01*
X179532856Y-105922614D01*
X179484348Y-105878475D01*
X179484345Y-105878473D01*
X179480201Y-105874702D01*
X179361376Y-105800163D01*
X179302438Y-105763191D01*
X179302434Y-105763189D01*
X179297682Y-105760208D01*
X179272053Y-105749905D01*
X179216310Y-105705939D01*
X179193185Y-105638815D01*
X179210022Y-105569843D01*
X179261474Y-105520923D01*
X179319050Y-105506999D01*
X179725066Y-105506999D01*
X179760818Y-105499888D01*
X179787126Y-105494656D01*
X179787128Y-105494655D01*
X179799301Y-105492234D01*
X179809621Y-105485339D01*
X179809622Y-105485338D01*
X179873168Y-105442877D01*
X179883484Y-105435984D01*
X179939734Y-105351801D01*
X179954500Y-105277567D01*
X179954499Y-103322434D01*
X179939734Y-103248199D01*
X179883484Y-103164016D01*
X179799301Y-103107766D01*
X179725067Y-103093000D01*
X179207500Y-103093000D01*
X179139379Y-103072998D01*
X179092886Y-103019342D01*
X179081500Y-102967000D01*
X179081500Y-98464136D01*
X179084085Y-98439847D01*
X179084153Y-98438400D01*
X179086345Y-98428220D01*
X179082373Y-98394660D01*
X179082020Y-98388679D01*
X179081928Y-98388687D01*
X179081500Y-98383508D01*
X179081500Y-98378308D01*
X179080647Y-98373181D01*
X179080646Y-98373173D01*
X179078312Y-98359151D01*
X179077475Y-98353275D01*
X179072641Y-98312431D01*
X179072640Y-98312429D01*
X179071417Y-98302092D01*
X179067433Y-98293795D01*
X179065922Y-98284717D01*
X179060978Y-98275555D01*
X179060977Y-98275551D01*
X179041447Y-98239356D01*
X179038751Y-98234066D01*
X179019871Y-98194747D01*
X179019871Y-98194746D01*
X179016440Y-98187602D01*
X179012830Y-98183308D01*
X179010898Y-98181376D01*
X179009111Y-98179427D01*
X179009082Y-98179374D01*
X179009212Y-98179254D01*
X179008710Y-98178685D01*
X179005612Y-98172943D01*
X178965792Y-98136133D01*
X178962227Y-98132704D01*
X175185544Y-94356021D01*
X175170185Y-94337005D01*
X175169219Y-94335944D01*
X175163571Y-94327196D01*
X175137028Y-94306271D01*
X175132553Y-94302294D01*
X175132492Y-94302365D01*
X175128535Y-94299012D01*
X175124852Y-94295329D01*
X175109061Y-94284045D01*
X175104315Y-94280482D01*
X175072007Y-94255012D01*
X175072006Y-94255011D01*
X175063830Y-94248566D01*
X175055143Y-94245515D01*
X175047657Y-94240166D01*
X175037681Y-94237183D01*
X175037680Y-94237182D01*
X174998289Y-94225402D01*
X174992657Y-94223572D01*
X174943998Y-94206484D01*
X174938409Y-94206000D01*
X174935698Y-94206000D01*
X174933031Y-94205885D01*
X174932968Y-94205866D01*
X174932975Y-94205692D01*
X174932229Y-94205645D01*
X174925976Y-94203775D01*
X174877192Y-94205692D01*
X174871822Y-94205903D01*
X174866875Y-94206000D01*
X151903283Y-94206000D01*
X151835162Y-94185998D01*
X151808768Y-94163324D01*
X151803854Y-94157750D01*
X151799553Y-94151492D01*
X151681275Y-94046111D01*
X151673889Y-94042200D01*
X151547988Y-93975539D01*
X151547989Y-93975539D01*
X151541274Y-93971984D01*
X151387633Y-93933392D01*
X151380034Y-93933352D01*
X151380033Y-93933352D01*
X151314181Y-93933007D01*
X151229221Y-93932562D01*
X151221841Y-93934334D01*
X151221839Y-93934334D01*
X151082563Y-93967771D01*
X151082560Y-93967772D01*
X151075184Y-93969543D01*
X150934414Y-94042200D01*
X150815039Y-94146338D01*
X150723950Y-94275944D01*
X150666406Y-94423537D01*
X150645729Y-94580596D01*
X133554000Y-94580596D01*
X133554000Y-83924933D01*
X134620500Y-83924933D01*
X134620501Y-85675066D01*
X134635266Y-85749301D01*
X134642161Y-85759620D01*
X134642162Y-85759622D01*
X134682516Y-85820015D01*
X134691516Y-85833484D01*
X134775699Y-85889734D01*
X134849933Y-85904500D01*
X134930628Y-85904500D01*
X136448011Y-85904499D01*
X136516132Y-85924501D01*
X136562625Y-85978157D01*
X136574011Y-86030499D01*
X136574011Y-89876376D01*
X136571425Y-89900675D01*
X136571357Y-89902113D01*
X136569166Y-89912291D01*
X136570390Y-89922631D01*
X136573138Y-89945853D01*
X136573490Y-89951831D01*
X136573583Y-89951823D01*
X136574011Y-89957001D01*
X136574011Y-89962203D01*
X136575120Y-89968863D01*
X136577197Y-89981343D01*
X136578033Y-89987215D01*
X136584093Y-90038418D01*
X136588078Y-90046717D01*
X136589589Y-90055794D01*
X136614069Y-90101162D01*
X136616750Y-90106425D01*
X136635638Y-90145761D01*
X136635641Y-90145765D01*
X136639071Y-90152909D01*
X136642681Y-90157203D01*
X136644613Y-90159135D01*
X136646400Y-90161084D01*
X136646429Y-90161137D01*
X136646299Y-90161256D01*
X136646800Y-90161824D01*
X136649899Y-90167568D01*
X136657544Y-90174635D01*
X136689719Y-90204377D01*
X136693285Y-90207807D01*
X136733595Y-90248117D01*
X136767621Y-90310429D01*
X136770500Y-90337212D01*
X136770501Y-92825066D01*
X136785266Y-92899301D01*
X136841516Y-92983484D01*
X136925699Y-93039734D01*
X136999933Y-93054500D01*
X138424769Y-93054500D01*
X139850066Y-93054499D01*
X139885818Y-93047388D01*
X139912126Y-93042156D01*
X139912128Y-93042155D01*
X139924301Y-93039734D01*
X139934621Y-93032839D01*
X139934622Y-93032838D01*
X139998168Y-92990377D01*
X140008484Y-92983484D01*
X140064734Y-92899301D01*
X140079500Y-92825067D01*
X140079499Y-89974934D01*
X140064734Y-89900699D01*
X140008484Y-89816516D01*
X139924301Y-89760266D01*
X139850067Y-89745500D01*
X139732444Y-89745500D01*
X137463011Y-89745501D01*
X137394890Y-89725499D01*
X137348397Y-89671843D01*
X137337011Y-89619501D01*
X137337011Y-89295035D01*
X157669794Y-89295035D01*
X157675075Y-89302090D01*
X157865136Y-89413153D01*
X157874419Y-89417600D01*
X158088126Y-89499207D01*
X158098028Y-89502084D01*
X158322175Y-89547687D01*
X158332427Y-89548910D01*
X158561020Y-89557292D01*
X158571306Y-89556825D01*
X158798209Y-89527758D01*
X158808295Y-89525615D01*
X159027399Y-89459880D01*
X159036994Y-89456119D01*
X159242414Y-89355485D01*
X159251273Y-89350204D01*
X159318077Y-89302554D01*
X159326478Y-89291854D01*
X159319492Y-89278703D01*
X158512811Y-88472021D01*
X158498868Y-88464408D01*
X158497034Y-88464539D01*
X158490420Y-88468790D01*
X157676551Y-89282660D01*
X157669794Y-89295035D01*
X137337011Y-89295035D01*
X137337011Y-88069510D01*
X157041750Y-88069510D01*
X157054918Y-88297882D01*
X157056354Y-88308103D01*
X157106644Y-88531253D01*
X157109724Y-88541081D01*
X157195788Y-88753036D01*
X157200431Y-88762227D01*
X157296645Y-88919234D01*
X157307102Y-88928694D01*
X157315878Y-88924911D01*
X158127979Y-88112811D01*
X158134356Y-88101132D01*
X158864408Y-88101132D01*
X158864539Y-88102966D01*
X158868790Y-88109580D01*
X159679269Y-88920058D01*
X159691275Y-88926614D01*
X159703014Y-88917646D01*
X159747575Y-88855632D01*
X159752886Y-88846793D01*
X159854234Y-88641729D01*
X159858032Y-88632136D01*
X159924531Y-88413263D01*
X159926708Y-88403193D01*
X159956804Y-88174593D01*
X159957323Y-88167919D01*
X159958901Y-88103364D01*
X159958707Y-88096646D01*
X159939816Y-87866871D01*
X159938131Y-87856691D01*
X159882404Y-87634832D01*
X159879084Y-87625081D01*
X159787867Y-87415293D01*
X159783001Y-87406218D01*
X159702492Y-87281772D01*
X159691805Y-87272568D01*
X159682240Y-87276971D01*
X158872021Y-88087189D01*
X158864408Y-88101132D01*
X158134356Y-88101132D01*
X158135592Y-88098868D01*
X158135461Y-88097034D01*
X158131210Y-88090420D01*
X157320758Y-87279969D01*
X157309227Y-87273673D01*
X157296942Y-87283298D01*
X157234341Y-87375068D01*
X157229243Y-87384042D01*
X157132934Y-87591521D01*
X157129371Y-87601208D01*
X157068242Y-87821631D01*
X157066311Y-87831751D01*
X157042002Y-88059221D01*
X157041750Y-88069510D01*
X137337011Y-88069510D01*
X137337011Y-86907857D01*
X157672653Y-86907857D01*
X157679397Y-86920186D01*
X158487189Y-87727979D01*
X158501132Y-87735592D01*
X158502966Y-87735461D01*
X158509580Y-87731210D01*
X159321746Y-86919043D01*
X159328763Y-86906192D01*
X159320989Y-86895523D01*
X159311449Y-86887988D01*
X159302858Y-86882281D01*
X159289547Y-86874933D01*
X162045500Y-86874933D01*
X162045501Y-89325066D01*
X162060266Y-89399301D01*
X162067161Y-89409620D01*
X162067162Y-89409622D01*
X162072493Y-89417600D01*
X162116516Y-89483484D01*
X162200699Y-89539734D01*
X162274933Y-89554500D01*
X163499802Y-89554500D01*
X164725066Y-89554499D01*
X164760818Y-89547388D01*
X164787126Y-89542156D01*
X164787128Y-89542155D01*
X164799301Y-89539734D01*
X164809621Y-89532839D01*
X164809622Y-89532838D01*
X164873168Y-89490377D01*
X164883484Y-89483484D01*
X164939734Y-89399301D01*
X164954500Y-89325067D01*
X164954499Y-86874934D01*
X164939734Y-86800699D01*
X164908136Y-86753409D01*
X164890377Y-86726832D01*
X164883484Y-86716516D01*
X164799301Y-86660266D01*
X164725067Y-86645500D01*
X163500199Y-86645500D01*
X162274934Y-86645501D01*
X162239182Y-86652612D01*
X162212874Y-86657844D01*
X162212872Y-86657845D01*
X162200699Y-86660266D01*
X162190379Y-86667161D01*
X162190378Y-86667162D01*
X162167657Y-86682344D01*
X162116516Y-86716516D01*
X162060266Y-86800699D01*
X162045500Y-86874933D01*
X159289547Y-86874933D01*
X159102605Y-86771735D01*
X159093193Y-86767505D01*
X158877566Y-86691147D01*
X158867595Y-86688513D01*
X158642391Y-86648398D01*
X158632138Y-86647429D01*
X158403395Y-86644634D01*
X158393112Y-86645354D01*
X158166997Y-86679955D01*
X158156969Y-86682344D01*
X157939539Y-86753409D01*
X157930031Y-86757406D01*
X157727136Y-86863028D01*
X157718401Y-86868529D01*
X157681107Y-86896530D01*
X157672653Y-86907857D01*
X137337011Y-86907857D01*
X137337011Y-85736697D01*
X137357013Y-85668576D01*
X137410669Y-85622083D01*
X137480943Y-85611979D01*
X137545523Y-85641473D01*
X137550918Y-85646429D01*
X137566938Y-85662035D01*
X137735720Y-85774812D01*
X137741023Y-85777090D01*
X137741026Y-85777092D01*
X137872283Y-85833484D01*
X137922228Y-85854942D01*
X137995244Y-85871464D01*
X138114579Y-85898467D01*
X138114584Y-85898468D01*
X138120216Y-85899742D01*
X138125987Y-85899969D01*
X138125989Y-85899969D01*
X138185756Y-85902317D01*
X138323053Y-85907712D01*
X138430348Y-85892155D01*
X138518231Y-85879413D01*
X138518236Y-85879412D01*
X138523945Y-85878584D01*
X138529409Y-85876729D01*
X138529414Y-85876728D01*
X138710693Y-85815192D01*
X138710698Y-85815190D01*
X138716165Y-85813334D01*
X138893276Y-85714147D01*
X138932969Y-85681135D01*
X139044913Y-85588031D01*
X139049345Y-85584345D01*
X139179147Y-85428276D01*
X139278334Y-85251165D01*
X139280190Y-85245698D01*
X139280192Y-85245693D01*
X139341728Y-85064414D01*
X139341729Y-85064409D01*
X139343584Y-85058945D01*
X139344412Y-85053236D01*
X139344413Y-85053231D01*
X139372179Y-84861727D01*
X139372712Y-84858053D01*
X139374232Y-84800000D01*
X139355658Y-84597859D01*
X139354090Y-84592299D01*
X139302125Y-84408046D01*
X139302124Y-84408044D01*
X139300557Y-84402487D01*
X139289978Y-84381033D01*
X139213331Y-84225609D01*
X139210776Y-84220428D01*
X139089320Y-84057779D01*
X138945609Y-83924933D01*
X140995500Y-83924933D01*
X140995501Y-85675066D01*
X141010266Y-85749301D01*
X141017161Y-85759620D01*
X141017162Y-85759622D01*
X141057516Y-85820015D01*
X141066516Y-85833484D01*
X141150699Y-85889734D01*
X141224933Y-85904500D01*
X142099858Y-85904500D01*
X142975066Y-85904499D01*
X143010818Y-85897388D01*
X143037126Y-85892156D01*
X143037128Y-85892155D01*
X143049301Y-85889734D01*
X143059621Y-85882839D01*
X143059622Y-85882838D01*
X143123168Y-85840377D01*
X143133484Y-85833484D01*
X143189734Y-85749301D01*
X143204500Y-85675067D01*
X143204499Y-84770964D01*
X143531148Y-84770964D01*
X143544424Y-84973522D01*
X143545845Y-84979118D01*
X143545846Y-84979123D01*
X143566119Y-85058945D01*
X143594392Y-85170269D01*
X143596809Y-85175512D01*
X143634010Y-85256208D01*
X143679377Y-85354616D01*
X143796533Y-85520389D01*
X143941938Y-85662035D01*
X144110720Y-85774812D01*
X144116023Y-85777090D01*
X144116026Y-85777092D01*
X144247283Y-85833484D01*
X144297228Y-85854942D01*
X144370244Y-85871464D01*
X144489579Y-85898467D01*
X144489584Y-85898468D01*
X144495216Y-85899742D01*
X144500987Y-85899969D01*
X144500989Y-85899969D01*
X144560756Y-85902317D01*
X144698053Y-85907712D01*
X144805348Y-85892155D01*
X144893231Y-85879413D01*
X144893236Y-85879412D01*
X144898945Y-85878584D01*
X144904409Y-85876729D01*
X144904414Y-85876728D01*
X145085693Y-85815192D01*
X145085698Y-85815190D01*
X145091165Y-85813334D01*
X145268276Y-85714147D01*
X145307969Y-85681135D01*
X145419913Y-85588031D01*
X145424345Y-85584345D01*
X145554147Y-85428276D01*
X145653334Y-85251165D01*
X145655190Y-85245698D01*
X145655192Y-85245693D01*
X145716728Y-85064414D01*
X145716729Y-85064409D01*
X145718584Y-85058945D01*
X145719412Y-85053236D01*
X145719413Y-85053231D01*
X145747179Y-84861727D01*
X145747712Y-84858053D01*
X145749232Y-84800000D01*
X145730658Y-84597859D01*
X145729090Y-84592299D01*
X145677125Y-84408046D01*
X145677124Y-84408044D01*
X145675557Y-84402487D01*
X145664978Y-84381033D01*
X145588331Y-84225609D01*
X145585776Y-84220428D01*
X145464320Y-84057779D01*
X145315258Y-83919987D01*
X145310375Y-83916906D01*
X145310371Y-83916903D01*
X145148464Y-83814748D01*
X145143581Y-83811667D01*
X144955039Y-83736446D01*
X144949379Y-83735320D01*
X144949375Y-83735319D01*
X144761613Y-83697971D01*
X144761610Y-83697971D01*
X144755946Y-83696844D01*
X144750171Y-83696768D01*
X144750167Y-83696768D01*
X144648793Y-83695441D01*
X144552971Y-83694187D01*
X144547274Y-83695166D01*
X144547273Y-83695166D01*
X144459397Y-83710266D01*
X144352910Y-83728564D01*
X144162463Y-83798824D01*
X143988010Y-83902612D01*
X143983670Y-83906418D01*
X143983666Y-83906421D01*
X143950716Y-83935318D01*
X143835392Y-84036455D01*
X143709720Y-84195869D01*
X143707031Y-84200980D01*
X143707029Y-84200983D01*
X143694073Y-84225609D01*
X143615203Y-84375515D01*
X143555007Y-84569378D01*
X143531148Y-84770964D01*
X143204499Y-84770964D01*
X143204499Y-83924934D01*
X143197388Y-83889182D01*
X143192156Y-83862874D01*
X143192155Y-83862872D01*
X143189734Y-83850699D01*
X143163654Y-83811667D01*
X143140377Y-83776832D01*
X143133484Y-83766516D01*
X143049301Y-83710266D01*
X142975067Y-83695500D01*
X142100142Y-83695500D01*
X141224934Y-83695501D01*
X141189182Y-83702612D01*
X141162874Y-83707844D01*
X141162872Y-83707845D01*
X141150699Y-83710266D01*
X141140379Y-83717161D01*
X141140378Y-83717162D01*
X141079985Y-83757516D01*
X141066516Y-83766516D01*
X141010266Y-83850699D01*
X140995500Y-83924933D01*
X138945609Y-83924933D01*
X138940258Y-83919987D01*
X138935375Y-83916906D01*
X138935371Y-83916903D01*
X138773464Y-83814748D01*
X138768581Y-83811667D01*
X138580039Y-83736446D01*
X138574379Y-83735320D01*
X138574375Y-83735319D01*
X138386613Y-83697971D01*
X138386610Y-83697971D01*
X138380946Y-83696844D01*
X138375171Y-83696768D01*
X138375167Y-83696768D01*
X138273793Y-83695441D01*
X138177971Y-83694187D01*
X138172274Y-83695166D01*
X138172273Y-83695166D01*
X138084397Y-83710266D01*
X137977910Y-83728564D01*
X137787463Y-83798824D01*
X137613010Y-83902612D01*
X137608667Y-83906421D01*
X137608660Y-83906426D01*
X137546088Y-83961300D01*
X137481684Y-83991177D01*
X137411351Y-83981491D01*
X137357420Y-83935318D01*
X137337011Y-83866568D01*
X137337011Y-82384646D01*
X137339597Y-82360346D01*
X137339665Y-82358909D01*
X137341856Y-82348731D01*
X137340632Y-82338392D01*
X137340813Y-82334564D01*
X137364002Y-82267461D01*
X137419789Y-82223548D01*
X137466673Y-82214500D01*
X139001544Y-82214499D01*
X139150066Y-82214499D01*
X139185818Y-82207388D01*
X139212126Y-82202156D01*
X139212128Y-82202155D01*
X139224301Y-82199734D01*
X139234621Y-82192839D01*
X139234622Y-82192838D01*
X139298168Y-82150377D01*
X139308484Y-82143484D01*
X139364734Y-82059301D01*
X139379500Y-81985067D01*
X139379499Y-81080964D01*
X141001148Y-81080964D01*
X141014424Y-81283522D01*
X141015845Y-81289118D01*
X141015846Y-81289123D01*
X141036119Y-81368945D01*
X141064392Y-81480269D01*
X141066809Y-81485512D01*
X141104010Y-81566208D01*
X141149377Y-81664616D01*
X141266533Y-81830389D01*
X141411938Y-81972035D01*
X141580720Y-82084812D01*
X141586023Y-82087090D01*
X141586026Y-82087092D01*
X141708764Y-82139824D01*
X141767228Y-82164942D01*
X141840244Y-82181464D01*
X141959579Y-82208467D01*
X141959584Y-82208468D01*
X141965216Y-82209742D01*
X141970987Y-82209969D01*
X141970989Y-82209969D01*
X142030756Y-82212317D01*
X142168053Y-82217712D01*
X142275348Y-82202155D01*
X142363231Y-82189413D01*
X142363236Y-82189412D01*
X142368945Y-82188584D01*
X142374409Y-82186729D01*
X142374414Y-82186728D01*
X142555693Y-82125192D01*
X142555698Y-82125190D01*
X142561165Y-82123334D01*
X142738276Y-82024147D01*
X142777969Y-81991135D01*
X142889913Y-81898031D01*
X142894345Y-81894345D01*
X143024147Y-81738276D01*
X143123334Y-81561165D01*
X143125190Y-81555698D01*
X143125192Y-81555693D01*
X143186728Y-81374414D01*
X143186729Y-81374409D01*
X143188584Y-81368945D01*
X143189412Y-81363236D01*
X143189413Y-81363231D01*
X143217179Y-81171727D01*
X143217712Y-81168053D01*
X143219232Y-81110000D01*
X143200658Y-80907859D01*
X143199090Y-80902299D01*
X143147125Y-80718046D01*
X143147124Y-80718044D01*
X143145557Y-80712487D01*
X143134978Y-80691033D01*
X143058331Y-80535609D01*
X143055776Y-80530428D01*
X142934320Y-80367779D01*
X142790609Y-80234933D01*
X143545500Y-80234933D01*
X143545501Y-81985066D01*
X143560266Y-82059301D01*
X143567161Y-82069620D01*
X143567162Y-82069622D01*
X143607516Y-82130015D01*
X143616516Y-82143484D01*
X143700699Y-82199734D01*
X143774933Y-82214500D01*
X144649858Y-82214500D01*
X145525066Y-82214499D01*
X145560818Y-82207388D01*
X145587126Y-82202156D01*
X145587128Y-82202155D01*
X145599301Y-82199734D01*
X145609621Y-82192839D01*
X145609622Y-82192838D01*
X145673168Y-82150377D01*
X145683484Y-82143484D01*
X145739734Y-82059301D01*
X145754500Y-81985067D01*
X145754499Y-80234934D01*
X145739734Y-80160699D01*
X145713654Y-80121667D01*
X145690377Y-80086832D01*
X145683484Y-80076516D01*
X145599301Y-80020266D01*
X145525067Y-80005500D01*
X144650142Y-80005500D01*
X143774934Y-80005501D01*
X143739182Y-80012612D01*
X143712874Y-80017844D01*
X143712872Y-80017845D01*
X143700699Y-80020266D01*
X143690379Y-80027161D01*
X143690378Y-80027162D01*
X143650665Y-80053698D01*
X143616516Y-80076516D01*
X143560266Y-80160699D01*
X143545500Y-80234933D01*
X142790609Y-80234933D01*
X142785258Y-80229987D01*
X142780375Y-80226906D01*
X142780371Y-80226903D01*
X142618464Y-80124748D01*
X142613581Y-80121667D01*
X142425039Y-80046446D01*
X142419379Y-80045320D01*
X142419375Y-80045319D01*
X142231613Y-80007971D01*
X142231610Y-80007971D01*
X142225946Y-80006844D01*
X142220171Y-80006768D01*
X142220167Y-80006768D01*
X142118793Y-80005441D01*
X142022971Y-80004187D01*
X142017274Y-80005166D01*
X142017273Y-80005166D01*
X141929397Y-80020266D01*
X141822910Y-80038564D01*
X141632463Y-80108824D01*
X141458010Y-80212612D01*
X141453670Y-80216418D01*
X141453666Y-80216421D01*
X141309733Y-80342648D01*
X141305392Y-80346455D01*
X141179720Y-80505869D01*
X141177031Y-80510980D01*
X141177029Y-80510983D01*
X141164073Y-80535609D01*
X141085203Y-80685515D01*
X141025007Y-80879378D01*
X141001148Y-81080964D01*
X139379499Y-81080964D01*
X139379499Y-80234934D01*
X139364734Y-80160699D01*
X139338654Y-80121667D01*
X139315377Y-80086832D01*
X139308484Y-80076516D01*
X139224301Y-80020266D01*
X139150067Y-80005500D01*
X138275142Y-80005500D01*
X137399934Y-80005501D01*
X137364182Y-80012612D01*
X137337874Y-80017844D01*
X137337872Y-80017845D01*
X137325699Y-80020266D01*
X137315379Y-80027161D01*
X137315378Y-80027162D01*
X137275665Y-80053698D01*
X137241516Y-80076516D01*
X137185266Y-80160699D01*
X137170500Y-80234933D01*
X137170501Y-81106305D01*
X137170501Y-81701789D01*
X137150499Y-81769910D01*
X137096843Y-81816403D01*
X137026569Y-81826507D01*
X136961989Y-81797014D01*
X136955406Y-81790884D01*
X136797998Y-81633476D01*
X136763972Y-81571164D01*
X136767780Y-81503880D01*
X136811728Y-81374414D01*
X136811729Y-81374409D01*
X136813584Y-81368945D01*
X136814412Y-81363236D01*
X136814413Y-81363231D01*
X136842179Y-81171727D01*
X136842712Y-81168053D01*
X136844232Y-81110000D01*
X136825658Y-80907859D01*
X136824090Y-80902299D01*
X136772125Y-80718046D01*
X136772124Y-80718044D01*
X136770557Y-80712487D01*
X136759978Y-80691033D01*
X136683331Y-80535609D01*
X136680776Y-80530428D01*
X136559320Y-80367779D01*
X136410258Y-80229987D01*
X136405375Y-80226906D01*
X136405371Y-80226903D01*
X136243464Y-80124748D01*
X136238581Y-80121667D01*
X136233221Y-80119528D01*
X136233214Y-80119525D01*
X136195808Y-80104601D01*
X136139949Y-80060780D01*
X136116500Y-79987572D01*
X136116500Y-78545213D01*
X136136502Y-78477092D01*
X136153405Y-78456117D01*
X136461119Y-78148404D01*
X136523431Y-78114379D01*
X136550214Y-78111500D01*
X151205865Y-78111500D01*
X151230164Y-78114086D01*
X151231602Y-78114154D01*
X151241780Y-78116345D01*
X151275341Y-78112373D01*
X151281320Y-78112021D01*
X151281312Y-78111928D01*
X151286490Y-78111500D01*
X151291692Y-78111500D01*
X151310846Y-78108312D01*
X151316704Y-78107478D01*
X151333318Y-78105512D01*
X151357567Y-78102642D01*
X151357568Y-78102642D01*
X151367907Y-78101418D01*
X151376206Y-78097433D01*
X151385283Y-78095922D01*
X151430651Y-78071442D01*
X151435914Y-78068761D01*
X151475250Y-78049873D01*
X151475254Y-78049870D01*
X151482398Y-78046440D01*
X151486692Y-78042830D01*
X151488624Y-78040898D01*
X151490573Y-78039111D01*
X151490626Y-78039082D01*
X151490745Y-78039212D01*
X151491313Y-78038711D01*
X151497057Y-78035612D01*
X151533868Y-77995790D01*
X151537297Y-77992225D01*
X153800965Y-75728557D01*
X153819988Y-75713193D01*
X153821047Y-75712229D01*
X153829793Y-75706582D01*
X153836241Y-75698403D01*
X153836243Y-75698401D01*
X153850723Y-75680034D01*
X153854698Y-75675561D01*
X153854626Y-75675500D01*
X153857979Y-75671543D01*
X153861660Y-75667862D01*
X153872944Y-75652071D01*
X153876508Y-75647325D01*
X153901976Y-75615019D01*
X153908423Y-75606841D01*
X153911473Y-75598156D01*
X153916824Y-75590668D01*
X153931599Y-75541261D01*
X153933415Y-75535674D01*
X153950505Y-75487009D01*
X153950989Y-75481420D01*
X153950989Y-75478851D01*
X153951683Y-75476818D01*
X153952858Y-75471360D01*
X153953498Y-75471498D01*
X153973911Y-75411679D01*
X154029527Y-75367550D01*
X154100172Y-75360495D01*
X154146866Y-75379555D01*
X154270720Y-75462312D01*
X154276023Y-75464590D01*
X154276026Y-75464592D01*
X154363634Y-75502231D01*
X154457228Y-75542442D01*
X154530244Y-75558964D01*
X154649579Y-75585967D01*
X154649584Y-75585968D01*
X154655216Y-75587242D01*
X154660987Y-75587469D01*
X154660989Y-75587469D01*
X154720756Y-75589817D01*
X154858053Y-75595212D01*
X154958499Y-75580648D01*
X155053231Y-75566913D01*
X155053236Y-75566912D01*
X155058945Y-75566084D01*
X155064409Y-75564229D01*
X155064414Y-75564228D01*
X155245693Y-75502692D01*
X155245698Y-75502690D01*
X155251165Y-75500834D01*
X155257026Y-75497552D01*
X155362652Y-75438398D01*
X155428276Y-75401647D01*
X155490934Y-75349535D01*
X155579913Y-75275531D01*
X155584345Y-75271845D01*
X155714147Y-75115776D01*
X155813334Y-74938665D01*
X155815190Y-74933198D01*
X155815192Y-74933193D01*
X155876728Y-74751914D01*
X155876729Y-74751909D01*
X155878584Y-74746445D01*
X155879412Y-74740736D01*
X155879413Y-74740731D01*
X155907179Y-74549227D01*
X155907712Y-74545553D01*
X155909232Y-74487500D01*
X155906564Y-74458464D01*
X156231148Y-74458464D01*
X156244424Y-74661022D01*
X156245845Y-74666618D01*
X156245846Y-74666623D01*
X156266119Y-74746445D01*
X156294392Y-74857769D01*
X156296809Y-74863012D01*
X156333915Y-74943502D01*
X156379377Y-75042116D01*
X156382710Y-75046832D01*
X156490989Y-75200044D01*
X156496533Y-75207889D01*
X156641938Y-75349535D01*
X156810720Y-75462312D01*
X156816023Y-75464590D01*
X156816026Y-75464592D01*
X156903634Y-75502231D01*
X156997228Y-75542442D01*
X157070244Y-75558964D01*
X157189579Y-75585967D01*
X157189584Y-75585968D01*
X157195216Y-75587242D01*
X157200987Y-75587469D01*
X157200989Y-75587469D01*
X157260756Y-75589817D01*
X157398053Y-75595212D01*
X157498499Y-75580648D01*
X157593231Y-75566913D01*
X157593236Y-75566912D01*
X157598945Y-75566084D01*
X157604409Y-75564229D01*
X157604414Y-75564228D01*
X157785693Y-75502692D01*
X157785698Y-75502690D01*
X157791165Y-75500834D01*
X157797026Y-75497552D01*
X157902652Y-75438398D01*
X157968276Y-75401647D01*
X158030934Y-75349535D01*
X158119913Y-75275531D01*
X158124345Y-75271845D01*
X158254147Y-75115776D01*
X158353334Y-74938665D01*
X158355190Y-74933198D01*
X158355192Y-74933193D01*
X158416728Y-74751914D01*
X158416729Y-74751909D01*
X158418584Y-74746445D01*
X158419412Y-74740736D01*
X158419413Y-74740731D01*
X158447179Y-74549227D01*
X158447712Y-74545553D01*
X158449232Y-74487500D01*
X158446564Y-74458464D01*
X158771148Y-74458464D01*
X158784424Y-74661022D01*
X158785845Y-74666618D01*
X158785846Y-74666623D01*
X158806119Y-74746445D01*
X158834392Y-74857769D01*
X158836809Y-74863012D01*
X158873915Y-74943502D01*
X158919377Y-75042116D01*
X158922710Y-75046832D01*
X159030989Y-75200044D01*
X159036533Y-75207889D01*
X159181938Y-75349535D01*
X159350720Y-75462312D01*
X159356023Y-75464590D01*
X159356026Y-75464592D01*
X159443634Y-75502231D01*
X159537228Y-75542442D01*
X159610244Y-75558964D01*
X159729579Y-75585967D01*
X159729584Y-75585968D01*
X159735216Y-75587242D01*
X159740987Y-75587469D01*
X159740989Y-75587469D01*
X159800756Y-75589817D01*
X159938053Y-75595212D01*
X160038499Y-75580648D01*
X160133231Y-75566913D01*
X160133236Y-75566912D01*
X160138945Y-75566084D01*
X160144409Y-75564229D01*
X160144414Y-75564228D01*
X160325693Y-75502692D01*
X160325698Y-75502690D01*
X160331165Y-75500834D01*
X160337026Y-75497552D01*
X160442652Y-75438398D01*
X160508276Y-75401647D01*
X160570934Y-75349535D01*
X160659913Y-75275531D01*
X160664345Y-75271845D01*
X160794147Y-75115776D01*
X160893334Y-74938665D01*
X160895190Y-74933198D01*
X160895192Y-74933193D01*
X160956728Y-74751914D01*
X160956729Y-74751909D01*
X160958584Y-74746445D01*
X160959412Y-74740736D01*
X160959413Y-74740731D01*
X160987179Y-74549227D01*
X160987712Y-74545553D01*
X160989232Y-74487500D01*
X160986564Y-74458464D01*
X161311148Y-74458464D01*
X161324424Y-74661022D01*
X161325845Y-74666618D01*
X161325846Y-74666623D01*
X161346119Y-74746445D01*
X161374392Y-74857769D01*
X161376809Y-74863012D01*
X161413915Y-74943502D01*
X161459377Y-75042116D01*
X161462710Y-75046832D01*
X161570989Y-75200044D01*
X161576533Y-75207889D01*
X161721938Y-75349535D01*
X161890720Y-75462312D01*
X161896023Y-75464590D01*
X161896026Y-75464592D01*
X161983634Y-75502231D01*
X162077228Y-75542442D01*
X162150244Y-75558964D01*
X162269579Y-75585967D01*
X162269584Y-75585968D01*
X162275216Y-75587242D01*
X162280987Y-75587469D01*
X162280989Y-75587469D01*
X162340756Y-75589817D01*
X162478053Y-75595212D01*
X162578499Y-75580648D01*
X162673231Y-75566913D01*
X162673236Y-75566912D01*
X162678945Y-75566084D01*
X162684409Y-75564229D01*
X162684414Y-75564228D01*
X162865693Y-75502692D01*
X162865698Y-75502690D01*
X162871165Y-75500834D01*
X162877026Y-75497552D01*
X162982652Y-75438398D01*
X163048276Y-75401647D01*
X163110934Y-75349535D01*
X163199913Y-75275531D01*
X163204345Y-75271845D01*
X163334147Y-75115776D01*
X163433334Y-74938665D01*
X163435190Y-74933198D01*
X163435192Y-74933193D01*
X163496728Y-74751914D01*
X163496729Y-74751909D01*
X163498584Y-74746445D01*
X163499412Y-74740736D01*
X163499413Y-74740731D01*
X163527179Y-74549227D01*
X163527712Y-74545553D01*
X163529232Y-74487500D01*
X163526564Y-74458464D01*
X163851148Y-74458464D01*
X163864424Y-74661022D01*
X163865845Y-74666618D01*
X163865846Y-74666623D01*
X163886119Y-74746445D01*
X163914392Y-74857769D01*
X163916809Y-74863012D01*
X163953915Y-74943502D01*
X163999377Y-75042116D01*
X164002710Y-75046832D01*
X164110989Y-75200044D01*
X164116533Y-75207889D01*
X164261938Y-75349535D01*
X164430720Y-75462312D01*
X164436023Y-75464590D01*
X164436026Y-75464592D01*
X164523634Y-75502231D01*
X164617228Y-75542442D01*
X164690244Y-75558964D01*
X164809579Y-75585967D01*
X164809584Y-75585968D01*
X164815216Y-75587242D01*
X164820987Y-75587469D01*
X164820989Y-75587469D01*
X164880756Y-75589817D01*
X165018053Y-75595212D01*
X165118499Y-75580648D01*
X165213231Y-75566913D01*
X165213236Y-75566912D01*
X165218945Y-75566084D01*
X165224409Y-75564229D01*
X165224414Y-75564228D01*
X165405693Y-75502692D01*
X165405698Y-75502690D01*
X165411165Y-75500834D01*
X165417026Y-75497552D01*
X165522652Y-75438398D01*
X165588276Y-75401647D01*
X165650934Y-75349535D01*
X165739913Y-75275531D01*
X165744345Y-75271845D01*
X165874147Y-75115776D01*
X165973334Y-74938665D01*
X165975190Y-74933198D01*
X165975192Y-74933193D01*
X166036728Y-74751914D01*
X166036729Y-74751909D01*
X166038584Y-74746445D01*
X166039412Y-74740736D01*
X166039413Y-74740731D01*
X166067179Y-74549227D01*
X166067712Y-74545553D01*
X166069232Y-74487500D01*
X166066564Y-74458464D01*
X166391148Y-74458464D01*
X166404424Y-74661022D01*
X166405845Y-74666618D01*
X166405846Y-74666623D01*
X166426119Y-74746445D01*
X166454392Y-74857769D01*
X166456809Y-74863012D01*
X166493915Y-74943502D01*
X166539377Y-75042116D01*
X166542710Y-75046832D01*
X166650989Y-75200044D01*
X166656533Y-75207889D01*
X166801938Y-75349535D01*
X166970720Y-75462312D01*
X166976023Y-75464590D01*
X166976026Y-75464592D01*
X167063634Y-75502231D01*
X167157228Y-75542442D01*
X167230244Y-75558964D01*
X167349579Y-75585967D01*
X167349584Y-75585968D01*
X167355216Y-75587242D01*
X167360987Y-75587469D01*
X167360989Y-75587469D01*
X167420756Y-75589817D01*
X167558053Y-75595212D01*
X167658499Y-75580648D01*
X167753231Y-75566913D01*
X167753236Y-75566912D01*
X167758945Y-75566084D01*
X167764409Y-75564229D01*
X167764414Y-75564228D01*
X167945693Y-75502692D01*
X167945698Y-75502690D01*
X167951165Y-75500834D01*
X167957026Y-75497552D01*
X168062652Y-75438398D01*
X168128276Y-75401647D01*
X168190934Y-75349535D01*
X168279913Y-75275531D01*
X168284345Y-75271845D01*
X168414147Y-75115776D01*
X168513334Y-74938665D01*
X168515190Y-74933198D01*
X168515192Y-74933193D01*
X168576728Y-74751914D01*
X168576729Y-74751909D01*
X168578584Y-74746445D01*
X168579412Y-74740736D01*
X168579413Y-74740731D01*
X168607179Y-74549227D01*
X168607712Y-74545553D01*
X168609232Y-74487500D01*
X168606564Y-74458464D01*
X168931148Y-74458464D01*
X168944424Y-74661022D01*
X168945845Y-74666618D01*
X168945846Y-74666623D01*
X168966119Y-74746445D01*
X168994392Y-74857769D01*
X168996809Y-74863012D01*
X169033915Y-74943502D01*
X169079377Y-75042116D01*
X169082710Y-75046832D01*
X169190989Y-75200044D01*
X169196533Y-75207889D01*
X169341938Y-75349535D01*
X169510720Y-75462312D01*
X169516023Y-75464590D01*
X169516026Y-75464592D01*
X169603634Y-75502231D01*
X169697228Y-75542442D01*
X169770244Y-75558964D01*
X169889579Y-75585967D01*
X169889584Y-75585968D01*
X169895216Y-75587242D01*
X169900987Y-75587469D01*
X169900989Y-75587469D01*
X169960756Y-75589817D01*
X170098053Y-75595212D01*
X170198499Y-75580648D01*
X170293231Y-75566913D01*
X170293236Y-75566912D01*
X170298945Y-75566084D01*
X170304409Y-75564229D01*
X170304414Y-75564228D01*
X170485693Y-75502692D01*
X170485698Y-75502690D01*
X170491165Y-75500834D01*
X170497026Y-75497552D01*
X170602652Y-75438398D01*
X170668276Y-75401647D01*
X170730934Y-75349535D01*
X170819913Y-75275531D01*
X170824345Y-75271845D01*
X170954147Y-75115776D01*
X171053334Y-74938665D01*
X171055190Y-74933198D01*
X171055192Y-74933193D01*
X171116728Y-74751914D01*
X171116729Y-74751909D01*
X171118584Y-74746445D01*
X171119412Y-74740736D01*
X171119413Y-74740731D01*
X171147179Y-74549227D01*
X171147712Y-74545553D01*
X171149232Y-74487500D01*
X171137797Y-74363051D01*
X171131187Y-74291113D01*
X171131186Y-74291110D01*
X171130658Y-74285359D01*
X171129090Y-74279799D01*
X171089484Y-74139366D01*
X178850989Y-74139366D01*
X178855416Y-74145694D01*
X179067558Y-74275695D01*
X179076352Y-74280176D01*
X179307733Y-74376017D01*
X179317118Y-74379066D01*
X179560644Y-74437533D01*
X179570391Y-74439076D01*
X179820070Y-74458726D01*
X179829930Y-74458726D01*
X180079609Y-74439076D01*
X180089356Y-74437533D01*
X180332882Y-74379066D01*
X180342267Y-74376017D01*
X180573648Y-74280176D01*
X180582442Y-74275695D01*
X180793163Y-74146565D01*
X180799085Y-74137492D01*
X180793080Y-74127290D01*
X179837812Y-73172022D01*
X179823868Y-73164408D01*
X179822035Y-73164539D01*
X179815420Y-73168790D01*
X178858382Y-74125828D01*
X178850989Y-74139366D01*
X171089484Y-74139366D01*
X171077125Y-74095546D01*
X171077124Y-74095544D01*
X171075557Y-74089987D01*
X171065074Y-74068728D01*
X170988331Y-73913109D01*
X170985776Y-73907928D01*
X170864320Y-73745279D01*
X170715258Y-73607487D01*
X170710375Y-73604406D01*
X170710371Y-73604403D01*
X170548464Y-73502248D01*
X170543581Y-73499167D01*
X170355039Y-73423946D01*
X170349379Y-73422820D01*
X170349375Y-73422819D01*
X170161613Y-73385471D01*
X170161610Y-73385471D01*
X170155946Y-73384344D01*
X170150171Y-73384268D01*
X170150167Y-73384268D01*
X170048793Y-73382941D01*
X169952971Y-73381687D01*
X169947274Y-73382666D01*
X169947273Y-73382666D01*
X169759032Y-73415012D01*
X169752910Y-73416064D01*
X169562463Y-73486324D01*
X169388010Y-73590112D01*
X169383670Y-73593918D01*
X169383666Y-73593921D01*
X169363723Y-73611411D01*
X169235392Y-73723955D01*
X169109720Y-73883369D01*
X169107031Y-73888480D01*
X169107029Y-73888483D01*
X169092594Y-73915920D01*
X169015203Y-74063015D01*
X168955007Y-74256878D01*
X168931148Y-74458464D01*
X168606564Y-74458464D01*
X168597797Y-74363051D01*
X168591187Y-74291113D01*
X168591186Y-74291110D01*
X168590658Y-74285359D01*
X168589090Y-74279799D01*
X168537125Y-74095546D01*
X168537124Y-74095544D01*
X168535557Y-74089987D01*
X168525074Y-74068728D01*
X168448331Y-73913109D01*
X168445776Y-73907928D01*
X168324320Y-73745279D01*
X168175258Y-73607487D01*
X168170375Y-73604406D01*
X168170371Y-73604403D01*
X168008464Y-73502248D01*
X168003581Y-73499167D01*
X167815039Y-73423946D01*
X167809379Y-73422820D01*
X167809375Y-73422819D01*
X167621613Y-73385471D01*
X167621610Y-73385471D01*
X167615946Y-73384344D01*
X167610171Y-73384268D01*
X167610167Y-73384268D01*
X167508793Y-73382941D01*
X167412971Y-73381687D01*
X167407274Y-73382666D01*
X167407273Y-73382666D01*
X167219032Y-73415012D01*
X167212910Y-73416064D01*
X167022463Y-73486324D01*
X166848010Y-73590112D01*
X166843670Y-73593918D01*
X166843666Y-73593921D01*
X166823723Y-73611411D01*
X166695392Y-73723955D01*
X166569720Y-73883369D01*
X166567031Y-73888480D01*
X166567029Y-73888483D01*
X166552594Y-73915920D01*
X166475203Y-74063015D01*
X166415007Y-74256878D01*
X166391148Y-74458464D01*
X166066564Y-74458464D01*
X166057797Y-74363051D01*
X166051187Y-74291113D01*
X166051186Y-74291110D01*
X166050658Y-74285359D01*
X166049090Y-74279799D01*
X165997125Y-74095546D01*
X165997124Y-74095544D01*
X165995557Y-74089987D01*
X165985074Y-74068728D01*
X165908331Y-73913109D01*
X165905776Y-73907928D01*
X165784320Y-73745279D01*
X165635258Y-73607487D01*
X165630375Y-73604406D01*
X165630371Y-73604403D01*
X165468464Y-73502248D01*
X165463581Y-73499167D01*
X165275039Y-73423946D01*
X165269379Y-73422820D01*
X165269375Y-73422819D01*
X165081613Y-73385471D01*
X165081610Y-73385471D01*
X165075946Y-73384344D01*
X165070171Y-73384268D01*
X165070167Y-73384268D01*
X164968793Y-73382941D01*
X164872971Y-73381687D01*
X164867274Y-73382666D01*
X164867273Y-73382666D01*
X164679032Y-73415012D01*
X164672910Y-73416064D01*
X164482463Y-73486324D01*
X164308010Y-73590112D01*
X164303670Y-73593918D01*
X164303666Y-73593921D01*
X164283723Y-73611411D01*
X164155392Y-73723955D01*
X164029720Y-73883369D01*
X164027031Y-73888480D01*
X164027029Y-73888483D01*
X164012594Y-73915920D01*
X163935203Y-74063015D01*
X163875007Y-74256878D01*
X163851148Y-74458464D01*
X163526564Y-74458464D01*
X163517797Y-74363051D01*
X163511187Y-74291113D01*
X163511186Y-74291110D01*
X163510658Y-74285359D01*
X163509090Y-74279799D01*
X163457125Y-74095546D01*
X163457124Y-74095544D01*
X163455557Y-74089987D01*
X163445074Y-74068728D01*
X163368331Y-73913109D01*
X163365776Y-73907928D01*
X163244320Y-73745279D01*
X163095258Y-73607487D01*
X163090375Y-73604406D01*
X163090371Y-73604403D01*
X162928464Y-73502248D01*
X162923581Y-73499167D01*
X162735039Y-73423946D01*
X162729379Y-73422820D01*
X162729375Y-73422819D01*
X162541613Y-73385471D01*
X162541610Y-73385471D01*
X162535946Y-73384344D01*
X162530171Y-73384268D01*
X162530167Y-73384268D01*
X162428793Y-73382941D01*
X162332971Y-73381687D01*
X162327274Y-73382666D01*
X162327273Y-73382666D01*
X162139032Y-73415012D01*
X162132910Y-73416064D01*
X161942463Y-73486324D01*
X161768010Y-73590112D01*
X161763670Y-73593918D01*
X161763666Y-73593921D01*
X161743723Y-73611411D01*
X161615392Y-73723955D01*
X161489720Y-73883369D01*
X161487031Y-73888480D01*
X161487029Y-73888483D01*
X161472594Y-73915920D01*
X161395203Y-74063015D01*
X161335007Y-74256878D01*
X161311148Y-74458464D01*
X160986564Y-74458464D01*
X160977797Y-74363051D01*
X160971187Y-74291113D01*
X160971186Y-74291110D01*
X160970658Y-74285359D01*
X160969090Y-74279799D01*
X160917125Y-74095546D01*
X160917124Y-74095544D01*
X160915557Y-74089987D01*
X160905074Y-74068728D01*
X160828331Y-73913109D01*
X160825776Y-73907928D01*
X160704320Y-73745279D01*
X160555258Y-73607487D01*
X160550375Y-73604406D01*
X160550371Y-73604403D01*
X160388464Y-73502248D01*
X160383581Y-73499167D01*
X160195039Y-73423946D01*
X160189379Y-73422820D01*
X160189375Y-73422819D01*
X160001613Y-73385471D01*
X160001610Y-73385471D01*
X159995946Y-73384344D01*
X159990171Y-73384268D01*
X159990167Y-73384268D01*
X159888793Y-73382941D01*
X159792971Y-73381687D01*
X159787274Y-73382666D01*
X159787273Y-73382666D01*
X159599032Y-73415012D01*
X159592910Y-73416064D01*
X159402463Y-73486324D01*
X159228010Y-73590112D01*
X159223670Y-73593918D01*
X159223666Y-73593921D01*
X159203723Y-73611411D01*
X159075392Y-73723955D01*
X158949720Y-73883369D01*
X158947031Y-73888480D01*
X158947029Y-73888483D01*
X158932594Y-73915920D01*
X158855203Y-74063015D01*
X158795007Y-74256878D01*
X158771148Y-74458464D01*
X158446564Y-74458464D01*
X158437797Y-74363051D01*
X158431187Y-74291113D01*
X158431186Y-74291110D01*
X158430658Y-74285359D01*
X158429090Y-74279799D01*
X158377125Y-74095546D01*
X158377124Y-74095544D01*
X158375557Y-74089987D01*
X158365074Y-74068728D01*
X158288331Y-73913109D01*
X158285776Y-73907928D01*
X158164320Y-73745279D01*
X158015258Y-73607487D01*
X158010375Y-73604406D01*
X158010371Y-73604403D01*
X157848464Y-73502248D01*
X157843581Y-73499167D01*
X157655039Y-73423946D01*
X157649379Y-73422820D01*
X157649375Y-73422819D01*
X157461613Y-73385471D01*
X157461610Y-73385471D01*
X157455946Y-73384344D01*
X157450171Y-73384268D01*
X157450167Y-73384268D01*
X157348793Y-73382941D01*
X157252971Y-73381687D01*
X157247274Y-73382666D01*
X157247273Y-73382666D01*
X157059032Y-73415012D01*
X157052910Y-73416064D01*
X156862463Y-73486324D01*
X156688010Y-73590112D01*
X156683670Y-73593918D01*
X156683666Y-73593921D01*
X156663723Y-73611411D01*
X156535392Y-73723955D01*
X156409720Y-73883369D01*
X156407031Y-73888480D01*
X156407029Y-73888483D01*
X156392594Y-73915920D01*
X156315203Y-74063015D01*
X156255007Y-74256878D01*
X156231148Y-74458464D01*
X155906564Y-74458464D01*
X155897797Y-74363051D01*
X155891187Y-74291113D01*
X155891186Y-74291110D01*
X155890658Y-74285359D01*
X155889090Y-74279799D01*
X155837125Y-74095546D01*
X155837124Y-74095544D01*
X155835557Y-74089987D01*
X155825074Y-74068728D01*
X155748331Y-73913109D01*
X155745776Y-73907928D01*
X155624320Y-73745279D01*
X155475258Y-73607487D01*
X155470375Y-73604406D01*
X155470371Y-73604403D01*
X155308464Y-73502248D01*
X155303581Y-73499167D01*
X155115039Y-73423946D01*
X155109379Y-73422820D01*
X155109375Y-73422819D01*
X154921613Y-73385471D01*
X154921610Y-73385471D01*
X154915946Y-73384344D01*
X154910171Y-73384268D01*
X154910167Y-73384268D01*
X154808793Y-73382941D01*
X154712971Y-73381687D01*
X154707274Y-73382666D01*
X154707273Y-73382666D01*
X154519032Y-73415012D01*
X154512910Y-73416064D01*
X154322463Y-73486324D01*
X154317502Y-73489276D01*
X154317501Y-73489276D01*
X154202924Y-73557442D01*
X154148010Y-73590112D01*
X154147780Y-73589725D01*
X154084173Y-73612415D01*
X154015023Y-73596330D01*
X153965546Y-73545412D01*
X153950989Y-73486620D01*
X153950989Y-73311124D01*
X153953575Y-73286825D01*
X153953643Y-73285387D01*
X153955834Y-73275209D01*
X153951862Y-73241647D01*
X153951510Y-73235669D01*
X153951417Y-73235677D01*
X153950989Y-73230499D01*
X153950989Y-73225297D01*
X153947801Y-73206143D01*
X153946966Y-73200278D01*
X153942131Y-73159422D01*
X153942131Y-73159421D01*
X153940907Y-73149082D01*
X153936922Y-73140783D01*
X153935411Y-73131706D01*
X153910931Y-73086338D01*
X153908250Y-73081075D01*
X153889362Y-73041739D01*
X153889359Y-73041735D01*
X153885929Y-73034591D01*
X153882319Y-73030297D01*
X153880387Y-73028365D01*
X153878600Y-73026416D01*
X153878571Y-73026363D01*
X153878701Y-73026244D01*
X153878200Y-73025676D01*
X153875101Y-73019932D01*
X153835280Y-72983122D01*
X153831715Y-72979693D01*
X153322998Y-72470976D01*
X153288972Y-72408664D01*
X153292780Y-72341380D01*
X153336728Y-72211914D01*
X153336729Y-72211909D01*
X153338584Y-72206445D01*
X153339412Y-72200736D01*
X153339413Y-72200731D01*
X153361071Y-72051352D01*
X153367712Y-72005553D01*
X153369232Y-71947500D01*
X153366564Y-71918464D01*
X153691148Y-71918464D01*
X153704424Y-72121022D01*
X153705845Y-72126618D01*
X153705846Y-72126623D01*
X153726119Y-72206445D01*
X153754392Y-72317769D01*
X153756809Y-72323012D01*
X153793915Y-72403502D01*
X153839377Y-72502116D01*
X153842710Y-72506832D01*
X153948801Y-72656948D01*
X153956533Y-72667889D01*
X154101938Y-72809535D01*
X154270720Y-72922312D01*
X154276023Y-72924590D01*
X154276026Y-72924592D01*
X154450811Y-72999685D01*
X154457228Y-73002442D01*
X154526223Y-73018054D01*
X154649579Y-73045967D01*
X154649584Y-73045968D01*
X154655216Y-73047242D01*
X154660987Y-73047469D01*
X154660989Y-73047469D01*
X154720756Y-73049817D01*
X154858053Y-73055212D01*
X154958499Y-73040648D01*
X155053231Y-73026913D01*
X155053236Y-73026912D01*
X155058945Y-73026084D01*
X155064409Y-73024229D01*
X155064414Y-73024228D01*
X155245693Y-72962692D01*
X155245698Y-72962690D01*
X155251165Y-72960834D01*
X155257026Y-72957552D01*
X155362652Y-72898398D01*
X155428276Y-72861647D01*
X155486994Y-72812812D01*
X155579913Y-72735531D01*
X155584345Y-72731845D01*
X155653166Y-72649097D01*
X155710453Y-72580218D01*
X155710455Y-72580215D01*
X155714147Y-72575776D01*
X155813334Y-72398665D01*
X155815190Y-72393198D01*
X155815192Y-72393193D01*
X155876728Y-72211914D01*
X155876729Y-72211909D01*
X155878584Y-72206445D01*
X155879412Y-72200736D01*
X155879413Y-72200731D01*
X155901071Y-72051352D01*
X155907712Y-72005553D01*
X155909232Y-71947500D01*
X155906564Y-71918464D01*
X156231148Y-71918464D01*
X156244424Y-72121022D01*
X156245845Y-72126618D01*
X156245846Y-72126623D01*
X156266119Y-72206445D01*
X156294392Y-72317769D01*
X156296809Y-72323012D01*
X156333915Y-72403502D01*
X156379377Y-72502116D01*
X156382710Y-72506832D01*
X156488801Y-72656948D01*
X156496533Y-72667889D01*
X156641938Y-72809535D01*
X156810720Y-72922312D01*
X156816023Y-72924590D01*
X156816026Y-72924592D01*
X156990811Y-72999685D01*
X156997228Y-73002442D01*
X157066223Y-73018054D01*
X157189579Y-73045967D01*
X157189584Y-73045968D01*
X157195216Y-73047242D01*
X157200987Y-73047469D01*
X157200989Y-73047469D01*
X157260756Y-73049817D01*
X157398053Y-73055212D01*
X157498499Y-73040648D01*
X157593231Y-73026913D01*
X157593236Y-73026912D01*
X157598945Y-73026084D01*
X157604409Y-73024229D01*
X157604414Y-73024228D01*
X157785693Y-72962692D01*
X157785698Y-72962690D01*
X157791165Y-72960834D01*
X157797026Y-72957552D01*
X157902652Y-72898398D01*
X157968276Y-72861647D01*
X158026994Y-72812812D01*
X158119913Y-72735531D01*
X158124345Y-72731845D01*
X158193166Y-72649097D01*
X158250453Y-72580218D01*
X158250455Y-72580215D01*
X158254147Y-72575776D01*
X158353334Y-72398665D01*
X158355190Y-72393198D01*
X158355192Y-72393193D01*
X158416728Y-72211914D01*
X158416729Y-72211909D01*
X158418584Y-72206445D01*
X158419412Y-72200736D01*
X158419413Y-72200731D01*
X158441071Y-72051352D01*
X158447712Y-72005553D01*
X158449232Y-71947500D01*
X158446564Y-71918464D01*
X158771148Y-71918464D01*
X158784424Y-72121022D01*
X158785845Y-72126618D01*
X158785846Y-72126623D01*
X158806119Y-72206445D01*
X158834392Y-72317769D01*
X158836809Y-72323012D01*
X158873915Y-72403502D01*
X158919377Y-72502116D01*
X158922710Y-72506832D01*
X159028801Y-72656948D01*
X159036533Y-72667889D01*
X159181938Y-72809535D01*
X159350720Y-72922312D01*
X159356023Y-72924590D01*
X159356026Y-72924592D01*
X159530811Y-72999685D01*
X159537228Y-73002442D01*
X159606223Y-73018054D01*
X159729579Y-73045967D01*
X159729584Y-73045968D01*
X159735216Y-73047242D01*
X159740987Y-73047469D01*
X159740989Y-73047469D01*
X159800756Y-73049817D01*
X159938053Y-73055212D01*
X160038499Y-73040648D01*
X160133231Y-73026913D01*
X160133236Y-73026912D01*
X160138945Y-73026084D01*
X160144409Y-73024229D01*
X160144414Y-73024228D01*
X160325693Y-72962692D01*
X160325698Y-72962690D01*
X160331165Y-72960834D01*
X160337026Y-72957552D01*
X160442652Y-72898398D01*
X160508276Y-72861647D01*
X160566994Y-72812812D01*
X160659913Y-72735531D01*
X160664345Y-72731845D01*
X160733166Y-72649097D01*
X160790453Y-72580218D01*
X160790455Y-72580215D01*
X160794147Y-72575776D01*
X160893334Y-72398665D01*
X160895190Y-72393198D01*
X160895192Y-72393193D01*
X160956728Y-72211914D01*
X160956729Y-72211909D01*
X160958584Y-72206445D01*
X160959412Y-72200736D01*
X160959413Y-72200731D01*
X160981071Y-72051352D01*
X160987712Y-72005553D01*
X160989232Y-71947500D01*
X160986564Y-71918464D01*
X161311148Y-71918464D01*
X161324424Y-72121022D01*
X161325845Y-72126618D01*
X161325846Y-72126623D01*
X161346119Y-72206445D01*
X161374392Y-72317769D01*
X161376809Y-72323012D01*
X161413915Y-72403502D01*
X161459377Y-72502116D01*
X161462710Y-72506832D01*
X161568801Y-72656948D01*
X161576533Y-72667889D01*
X161721938Y-72809535D01*
X161890720Y-72922312D01*
X161896023Y-72924590D01*
X161896026Y-72924592D01*
X162070811Y-72999685D01*
X162077228Y-73002442D01*
X162146223Y-73018054D01*
X162269579Y-73045967D01*
X162269584Y-73045968D01*
X162275216Y-73047242D01*
X162280987Y-73047469D01*
X162280989Y-73047469D01*
X162340756Y-73049817D01*
X162478053Y-73055212D01*
X162578499Y-73040648D01*
X162673231Y-73026913D01*
X162673236Y-73026912D01*
X162678945Y-73026084D01*
X162684409Y-73024229D01*
X162684414Y-73024228D01*
X162865693Y-72962692D01*
X162865698Y-72962690D01*
X162871165Y-72960834D01*
X162877026Y-72957552D01*
X162982652Y-72898398D01*
X163048276Y-72861647D01*
X163106994Y-72812812D01*
X163199913Y-72735531D01*
X163204345Y-72731845D01*
X163273166Y-72649097D01*
X163330453Y-72580218D01*
X163330455Y-72580215D01*
X163334147Y-72575776D01*
X163433334Y-72398665D01*
X163435190Y-72393198D01*
X163435192Y-72393193D01*
X163496728Y-72211914D01*
X163496729Y-72211909D01*
X163498584Y-72206445D01*
X163499412Y-72200736D01*
X163499413Y-72200731D01*
X163521071Y-72051352D01*
X163527712Y-72005553D01*
X163529232Y-71947500D01*
X163526564Y-71918464D01*
X163851148Y-71918464D01*
X163864424Y-72121022D01*
X163865845Y-72126618D01*
X163865846Y-72126623D01*
X163886119Y-72206445D01*
X163914392Y-72317769D01*
X163916809Y-72323012D01*
X163953915Y-72403502D01*
X163999377Y-72502116D01*
X164002710Y-72506832D01*
X164108801Y-72656948D01*
X164116533Y-72667889D01*
X164261938Y-72809535D01*
X164430720Y-72922312D01*
X164436023Y-72924590D01*
X164436026Y-72924592D01*
X164610811Y-72999685D01*
X164617228Y-73002442D01*
X164686223Y-73018054D01*
X164809579Y-73045967D01*
X164809584Y-73045968D01*
X164815216Y-73047242D01*
X164820987Y-73047469D01*
X164820989Y-73047469D01*
X164880756Y-73049817D01*
X165018053Y-73055212D01*
X165118499Y-73040648D01*
X165213231Y-73026913D01*
X165213236Y-73026912D01*
X165218945Y-73026084D01*
X165224409Y-73024229D01*
X165224414Y-73024228D01*
X165405693Y-72962692D01*
X165405698Y-72962690D01*
X165411165Y-72960834D01*
X165417026Y-72957552D01*
X165522652Y-72898398D01*
X165588276Y-72861647D01*
X165646994Y-72812812D01*
X165739913Y-72735531D01*
X165744345Y-72731845D01*
X165813166Y-72649097D01*
X165870453Y-72580218D01*
X165870455Y-72580215D01*
X165874147Y-72575776D01*
X165973334Y-72398665D01*
X165975190Y-72393198D01*
X165975192Y-72393193D01*
X166036728Y-72211914D01*
X166036729Y-72211909D01*
X166038584Y-72206445D01*
X166039412Y-72200736D01*
X166039413Y-72200731D01*
X166061071Y-72051352D01*
X166067712Y-72005553D01*
X166069232Y-71947500D01*
X166066564Y-71918464D01*
X166391148Y-71918464D01*
X166404424Y-72121022D01*
X166405845Y-72126618D01*
X166405846Y-72126623D01*
X166426119Y-72206445D01*
X166454392Y-72317769D01*
X166456809Y-72323012D01*
X166493915Y-72403502D01*
X166539377Y-72502116D01*
X166542710Y-72506832D01*
X166648801Y-72656948D01*
X166656533Y-72667889D01*
X166801938Y-72809535D01*
X166970720Y-72922312D01*
X166976023Y-72924590D01*
X166976026Y-72924592D01*
X167150811Y-72999685D01*
X167157228Y-73002442D01*
X167226223Y-73018054D01*
X167349579Y-73045967D01*
X167349584Y-73045968D01*
X167355216Y-73047242D01*
X167360987Y-73047469D01*
X167360989Y-73047469D01*
X167420756Y-73049817D01*
X167558053Y-73055212D01*
X167658499Y-73040648D01*
X167753231Y-73026913D01*
X167753236Y-73026912D01*
X167758945Y-73026084D01*
X167764409Y-73024229D01*
X167764414Y-73024228D01*
X167945693Y-72962692D01*
X167945698Y-72962690D01*
X167951165Y-72960834D01*
X167957026Y-72957552D01*
X168062652Y-72898398D01*
X168128276Y-72861647D01*
X168186994Y-72812812D01*
X168279913Y-72735531D01*
X168284345Y-72731845D01*
X168353166Y-72649097D01*
X168397946Y-72595256D01*
X168935500Y-72595256D01*
X168942202Y-72656948D01*
X168944974Y-72664341D01*
X168944974Y-72664343D01*
X168947816Y-72671924D01*
X168992929Y-72792264D01*
X168998309Y-72799443D01*
X168998311Y-72799446D01*
X169042160Y-72857953D01*
X169079596Y-72907904D01*
X169086776Y-72913285D01*
X169188054Y-72989189D01*
X169188057Y-72989191D01*
X169195236Y-72994571D01*
X169273040Y-73023738D01*
X169323157Y-73042526D01*
X169323159Y-73042526D01*
X169330552Y-73045298D01*
X169338402Y-73046151D01*
X169338403Y-73046151D01*
X169388847Y-73051631D01*
X169392244Y-73052000D01*
X170687756Y-73052000D01*
X170691153Y-73051631D01*
X170741597Y-73046151D01*
X170741598Y-73046151D01*
X170749448Y-73045298D01*
X170756841Y-73042526D01*
X170756843Y-73042526D01*
X170806960Y-73023738D01*
X170884764Y-72994571D01*
X170891943Y-72989191D01*
X170891946Y-72989189D01*
X170993224Y-72913285D01*
X171000404Y-72907904D01*
X171037840Y-72857953D01*
X171077579Y-72804930D01*
X178166274Y-72804930D01*
X178185924Y-73054609D01*
X178187467Y-73064356D01*
X178245934Y-73307882D01*
X178248983Y-73317267D01*
X178344824Y-73548648D01*
X178349305Y-73557442D01*
X178478435Y-73768163D01*
X178487508Y-73774085D01*
X178497710Y-73768080D01*
X179452978Y-72812812D01*
X179459356Y-72801132D01*
X180189408Y-72801132D01*
X180189539Y-72802965D01*
X180193790Y-72809580D01*
X181150828Y-73766618D01*
X181164366Y-73774011D01*
X181170694Y-73769584D01*
X181300695Y-73557442D01*
X181305176Y-73548648D01*
X181401017Y-73317267D01*
X181404066Y-73307882D01*
X181462533Y-73064356D01*
X181464076Y-73054609D01*
X181483726Y-72804930D01*
X181483726Y-72795070D01*
X181464076Y-72545391D01*
X181462533Y-72535644D01*
X181404066Y-72292118D01*
X181401017Y-72282733D01*
X181305176Y-72051352D01*
X181300695Y-72042558D01*
X181171565Y-71831837D01*
X181162492Y-71825915D01*
X181152290Y-71831920D01*
X180197022Y-72787188D01*
X180189408Y-72801132D01*
X179459356Y-72801132D01*
X179460592Y-72798868D01*
X179460461Y-72797035D01*
X179456210Y-72790420D01*
X178499172Y-71833382D01*
X178485634Y-71825989D01*
X178479306Y-71830416D01*
X178349305Y-72042558D01*
X178344824Y-72051352D01*
X178248983Y-72282733D01*
X178245934Y-72292118D01*
X178187467Y-72535644D01*
X178185924Y-72545391D01*
X178166274Y-72795070D01*
X178166274Y-72804930D01*
X171077579Y-72804930D01*
X171081689Y-72799446D01*
X171081691Y-72799443D01*
X171087071Y-72792264D01*
X171132184Y-72671924D01*
X171135026Y-72664343D01*
X171135026Y-72664341D01*
X171137798Y-72656948D01*
X171144500Y-72595256D01*
X171144500Y-71462508D01*
X178850915Y-71462508D01*
X178856920Y-71472710D01*
X179812188Y-72427978D01*
X179826132Y-72435592D01*
X179827965Y-72435461D01*
X179834580Y-72431210D01*
X180791618Y-71474172D01*
X180799011Y-71460634D01*
X180794584Y-71454306D01*
X180665059Y-71374933D01*
X183170500Y-71374933D01*
X183170501Y-74225066D01*
X183185266Y-74299301D01*
X183241516Y-74383484D01*
X183325699Y-74439734D01*
X183399933Y-74454500D01*
X184824769Y-74454500D01*
X186250066Y-74454499D01*
X186285818Y-74447388D01*
X186312126Y-74442156D01*
X186312128Y-74442155D01*
X186324301Y-74439734D01*
X186334621Y-74432839D01*
X186334622Y-74432838D01*
X186398168Y-74390377D01*
X186408484Y-74383484D01*
X186464734Y-74299301D01*
X186479500Y-74225067D01*
X186479499Y-71374934D01*
X186464734Y-71300699D01*
X186408484Y-71216516D01*
X186324301Y-71160266D01*
X186250067Y-71145500D01*
X184825231Y-71145500D01*
X183399934Y-71145501D01*
X183364182Y-71152612D01*
X183337874Y-71157844D01*
X183337872Y-71157845D01*
X183325699Y-71160266D01*
X183315379Y-71167161D01*
X183315378Y-71167162D01*
X183290246Y-71183955D01*
X183241516Y-71216516D01*
X183185266Y-71300699D01*
X183170500Y-71374933D01*
X180665059Y-71374933D01*
X180582442Y-71324305D01*
X180573648Y-71319824D01*
X180342267Y-71223983D01*
X180332882Y-71220934D01*
X180089356Y-71162467D01*
X180079609Y-71160924D01*
X179829930Y-71141274D01*
X179820070Y-71141274D01*
X179570391Y-71160924D01*
X179560644Y-71162467D01*
X179317118Y-71220934D01*
X179307733Y-71223983D01*
X179076352Y-71319824D01*
X179067558Y-71324305D01*
X178856837Y-71453435D01*
X178850915Y-71462508D01*
X171144500Y-71462508D01*
X171144500Y-71299744D01*
X171137798Y-71238052D01*
X171087071Y-71102736D01*
X171081691Y-71095557D01*
X171081689Y-71095554D01*
X171005785Y-70994276D01*
X171000404Y-70987096D01*
X170946002Y-70946324D01*
X170891946Y-70905811D01*
X170891943Y-70905809D01*
X170884764Y-70900429D01*
X170795046Y-70866796D01*
X170756843Y-70852474D01*
X170756841Y-70852474D01*
X170749448Y-70849702D01*
X170741598Y-70848849D01*
X170741597Y-70848849D01*
X170691153Y-70843369D01*
X170691152Y-70843369D01*
X170687756Y-70843000D01*
X169392244Y-70843000D01*
X169388848Y-70843369D01*
X169388847Y-70843369D01*
X169338403Y-70848849D01*
X169338402Y-70848849D01*
X169330552Y-70849702D01*
X169323159Y-70852474D01*
X169323157Y-70852474D01*
X169284954Y-70866796D01*
X169195236Y-70900429D01*
X169188057Y-70905809D01*
X169188054Y-70905811D01*
X169133998Y-70946324D01*
X169079596Y-70987096D01*
X169074215Y-70994276D01*
X168998311Y-71095554D01*
X168998309Y-71095557D01*
X168992929Y-71102736D01*
X168942202Y-71238052D01*
X168935500Y-71299744D01*
X168935500Y-72595256D01*
X168397946Y-72595256D01*
X168410453Y-72580218D01*
X168410455Y-72580215D01*
X168414147Y-72575776D01*
X168513334Y-72398665D01*
X168515190Y-72393198D01*
X168515192Y-72393193D01*
X168576728Y-72211914D01*
X168576729Y-72211909D01*
X168578584Y-72206445D01*
X168579412Y-72200736D01*
X168579413Y-72200731D01*
X168601071Y-72051352D01*
X168607712Y-72005553D01*
X168609232Y-71947500D01*
X168597797Y-71823051D01*
X168591187Y-71751113D01*
X168591186Y-71751110D01*
X168590658Y-71745359D01*
X168584273Y-71722721D01*
X168537125Y-71555546D01*
X168537124Y-71555544D01*
X168535557Y-71549987D01*
X168525074Y-71528728D01*
X168448331Y-71373109D01*
X168445776Y-71367928D01*
X168324320Y-71205279D01*
X168175258Y-71067487D01*
X168170375Y-71064406D01*
X168170371Y-71064403D01*
X168008464Y-70962248D01*
X168003581Y-70959167D01*
X167815039Y-70883946D01*
X167809379Y-70882820D01*
X167809375Y-70882819D01*
X167621613Y-70845471D01*
X167621610Y-70845471D01*
X167615946Y-70844344D01*
X167610171Y-70844268D01*
X167610167Y-70844268D01*
X167508793Y-70842941D01*
X167412971Y-70841687D01*
X167407274Y-70842666D01*
X167407273Y-70842666D01*
X167218607Y-70875085D01*
X167212910Y-70876064D01*
X167022463Y-70946324D01*
X166848010Y-71050112D01*
X166843670Y-71053918D01*
X166843666Y-71053921D01*
X166722404Y-71160266D01*
X166695392Y-71183955D01*
X166569720Y-71343369D01*
X166567031Y-71348480D01*
X166567029Y-71348483D01*
X166519128Y-71439527D01*
X166475203Y-71523015D01*
X166415007Y-71716878D01*
X166391148Y-71918464D01*
X166066564Y-71918464D01*
X166057797Y-71823051D01*
X166051187Y-71751113D01*
X166051186Y-71751110D01*
X166050658Y-71745359D01*
X166044273Y-71722721D01*
X165997125Y-71555546D01*
X165997124Y-71555544D01*
X165995557Y-71549987D01*
X165985074Y-71528728D01*
X165908331Y-71373109D01*
X165905776Y-71367928D01*
X165784320Y-71205279D01*
X165635258Y-71067487D01*
X165630375Y-71064406D01*
X165630371Y-71064403D01*
X165468464Y-70962248D01*
X165463581Y-70959167D01*
X165275039Y-70883946D01*
X165269379Y-70882820D01*
X165269375Y-70882819D01*
X165081613Y-70845471D01*
X165081610Y-70845471D01*
X165075946Y-70844344D01*
X165070171Y-70844268D01*
X165070167Y-70844268D01*
X164968793Y-70842941D01*
X164872971Y-70841687D01*
X164867274Y-70842666D01*
X164867273Y-70842666D01*
X164678607Y-70875085D01*
X164672910Y-70876064D01*
X164482463Y-70946324D01*
X164308010Y-71050112D01*
X164303670Y-71053918D01*
X164303666Y-71053921D01*
X164182404Y-71160266D01*
X164155392Y-71183955D01*
X164029720Y-71343369D01*
X164027031Y-71348480D01*
X164027029Y-71348483D01*
X163979128Y-71439527D01*
X163935203Y-71523015D01*
X163875007Y-71716878D01*
X163851148Y-71918464D01*
X163526564Y-71918464D01*
X163517797Y-71823051D01*
X163511187Y-71751113D01*
X163511186Y-71751110D01*
X163510658Y-71745359D01*
X163504273Y-71722721D01*
X163457125Y-71555546D01*
X163457124Y-71555544D01*
X163455557Y-71549987D01*
X163445074Y-71528728D01*
X163368331Y-71373109D01*
X163365776Y-71367928D01*
X163244320Y-71205279D01*
X163095258Y-71067487D01*
X163090375Y-71064406D01*
X163090371Y-71064403D01*
X162928464Y-70962248D01*
X162923581Y-70959167D01*
X162735039Y-70883946D01*
X162729379Y-70882820D01*
X162729375Y-70882819D01*
X162541613Y-70845471D01*
X162541610Y-70845471D01*
X162535946Y-70844344D01*
X162530171Y-70844268D01*
X162530167Y-70844268D01*
X162428793Y-70842941D01*
X162332971Y-70841687D01*
X162327274Y-70842666D01*
X162327273Y-70842666D01*
X162138607Y-70875085D01*
X162132910Y-70876064D01*
X161942463Y-70946324D01*
X161768010Y-71050112D01*
X161763670Y-71053918D01*
X161763666Y-71053921D01*
X161642404Y-71160266D01*
X161615392Y-71183955D01*
X161489720Y-71343369D01*
X161487031Y-71348480D01*
X161487029Y-71348483D01*
X161439128Y-71439527D01*
X161395203Y-71523015D01*
X161335007Y-71716878D01*
X161311148Y-71918464D01*
X160986564Y-71918464D01*
X160977797Y-71823051D01*
X160971187Y-71751113D01*
X160971186Y-71751110D01*
X160970658Y-71745359D01*
X160964273Y-71722721D01*
X160917125Y-71555546D01*
X160917124Y-71555544D01*
X160915557Y-71549987D01*
X160905074Y-71528728D01*
X160828331Y-71373109D01*
X160825776Y-71367928D01*
X160704320Y-71205279D01*
X160555258Y-71067487D01*
X160550375Y-71064406D01*
X160550371Y-71064403D01*
X160388464Y-70962248D01*
X160383581Y-70959167D01*
X160195039Y-70883946D01*
X160189379Y-70882820D01*
X160189375Y-70882819D01*
X160001613Y-70845471D01*
X160001610Y-70845471D01*
X159995946Y-70844344D01*
X159990171Y-70844268D01*
X159990167Y-70844268D01*
X159888793Y-70842941D01*
X159792971Y-70841687D01*
X159787274Y-70842666D01*
X159787273Y-70842666D01*
X159598607Y-70875085D01*
X159592910Y-70876064D01*
X159402463Y-70946324D01*
X159228010Y-71050112D01*
X159223670Y-71053918D01*
X159223666Y-71053921D01*
X159102404Y-71160266D01*
X159075392Y-71183955D01*
X158949720Y-71343369D01*
X158947031Y-71348480D01*
X158947029Y-71348483D01*
X158899128Y-71439527D01*
X158855203Y-71523015D01*
X158795007Y-71716878D01*
X158771148Y-71918464D01*
X158446564Y-71918464D01*
X158437797Y-71823051D01*
X158431187Y-71751113D01*
X158431186Y-71751110D01*
X158430658Y-71745359D01*
X158424273Y-71722721D01*
X158377125Y-71555546D01*
X158377124Y-71555544D01*
X158375557Y-71549987D01*
X158365074Y-71528728D01*
X158288331Y-71373109D01*
X158285776Y-71367928D01*
X158164320Y-71205279D01*
X158015258Y-71067487D01*
X158010375Y-71064406D01*
X158010371Y-71064403D01*
X157848464Y-70962248D01*
X157843581Y-70959167D01*
X157655039Y-70883946D01*
X157649379Y-70882820D01*
X157649375Y-70882819D01*
X157461613Y-70845471D01*
X157461610Y-70845471D01*
X157455946Y-70844344D01*
X157450171Y-70844268D01*
X157450167Y-70844268D01*
X157348793Y-70842941D01*
X157252971Y-70841687D01*
X157247274Y-70842666D01*
X157247273Y-70842666D01*
X157058607Y-70875085D01*
X157052910Y-70876064D01*
X156862463Y-70946324D01*
X156688010Y-71050112D01*
X156683670Y-71053918D01*
X156683666Y-71053921D01*
X156562404Y-71160266D01*
X156535392Y-71183955D01*
X156409720Y-71343369D01*
X156407031Y-71348480D01*
X156407029Y-71348483D01*
X156359128Y-71439527D01*
X156315203Y-71523015D01*
X156255007Y-71716878D01*
X156231148Y-71918464D01*
X155906564Y-71918464D01*
X155897797Y-71823051D01*
X155891187Y-71751113D01*
X155891186Y-71751110D01*
X155890658Y-71745359D01*
X155884273Y-71722721D01*
X155837125Y-71555546D01*
X155837124Y-71555544D01*
X155835557Y-71549987D01*
X155825074Y-71528728D01*
X155748331Y-71373109D01*
X155745776Y-71367928D01*
X155624320Y-71205279D01*
X155475258Y-71067487D01*
X155470375Y-71064406D01*
X155470371Y-71064403D01*
X155308464Y-70962248D01*
X155303581Y-70959167D01*
X155115039Y-70883946D01*
X155109379Y-70882820D01*
X155109375Y-70882819D01*
X154921613Y-70845471D01*
X154921610Y-70845471D01*
X154915946Y-70844344D01*
X154910171Y-70844268D01*
X154910167Y-70844268D01*
X154808793Y-70842941D01*
X154712971Y-70841687D01*
X154707274Y-70842666D01*
X154707273Y-70842666D01*
X154518607Y-70875085D01*
X154512910Y-70876064D01*
X154322463Y-70946324D01*
X154148010Y-71050112D01*
X154143670Y-71053918D01*
X154143666Y-71053921D01*
X154022404Y-71160266D01*
X153995392Y-71183955D01*
X153869720Y-71343369D01*
X153867031Y-71348480D01*
X153867029Y-71348483D01*
X153819128Y-71439527D01*
X153775203Y-71523015D01*
X153715007Y-71716878D01*
X153691148Y-71918464D01*
X153366564Y-71918464D01*
X153357797Y-71823051D01*
X153351187Y-71751113D01*
X153351186Y-71751110D01*
X153350658Y-71745359D01*
X153344273Y-71722721D01*
X153297125Y-71555546D01*
X153297124Y-71555544D01*
X153295557Y-71549987D01*
X153285074Y-71528728D01*
X153208331Y-71373109D01*
X153205776Y-71367928D01*
X153084320Y-71205279D01*
X152935258Y-71067487D01*
X152930375Y-71064406D01*
X152930371Y-71064403D01*
X152768464Y-70962248D01*
X152763581Y-70959167D01*
X152575039Y-70883946D01*
X152569379Y-70882820D01*
X152569375Y-70882819D01*
X152381613Y-70845471D01*
X152381610Y-70845471D01*
X152375946Y-70844344D01*
X152370171Y-70844268D01*
X152370167Y-70844268D01*
X152268793Y-70842941D01*
X152172971Y-70841687D01*
X152167274Y-70842666D01*
X152167273Y-70842666D01*
X151978607Y-70875085D01*
X151972910Y-70876064D01*
X151782463Y-70946324D01*
X151608010Y-71050112D01*
X151603670Y-71053918D01*
X151603666Y-71053921D01*
X151482404Y-71160266D01*
X151455392Y-71183955D01*
X151329720Y-71343369D01*
X151327031Y-71348480D01*
X151327029Y-71348483D01*
X151279128Y-71439527D01*
X151235203Y-71523015D01*
X151175007Y-71716878D01*
X151151148Y-71918464D01*
X151164424Y-72121022D01*
X151165845Y-72126618D01*
X151165846Y-72126623D01*
X151186119Y-72206445D01*
X151214392Y-72317769D01*
X151216809Y-72323012D01*
X151253915Y-72403502D01*
X151299377Y-72502116D01*
X151302710Y-72506832D01*
X151408801Y-72656948D01*
X151416533Y-72667889D01*
X151561938Y-72809535D01*
X151730720Y-72922312D01*
X151736023Y-72924590D01*
X151736026Y-72924592D01*
X151910811Y-72999685D01*
X151917228Y-73002442D01*
X151986223Y-73018054D01*
X152109579Y-73045967D01*
X152109584Y-73045968D01*
X152115216Y-73047242D01*
X152120987Y-73047469D01*
X152120989Y-73047469D01*
X152180756Y-73049817D01*
X152318053Y-73055212D01*
X152418499Y-73040648D01*
X152513231Y-73026913D01*
X152513236Y-73026912D01*
X152518945Y-73026084D01*
X152524409Y-73024229D01*
X152524414Y-73024228D01*
X152653879Y-72980280D01*
X152724814Y-72977324D01*
X152783476Y-73010498D01*
X153151085Y-73378108D01*
X153185110Y-73440420D01*
X153187989Y-73467203D01*
X153187989Y-73553050D01*
X153167987Y-73621171D01*
X153114331Y-73667664D01*
X153044057Y-73677768D01*
X152976460Y-73645574D01*
X152939503Y-73611411D01*
X152935258Y-73607487D01*
X152930375Y-73604406D01*
X152930371Y-73604403D01*
X152768464Y-73502248D01*
X152763581Y-73499167D01*
X152575039Y-73423946D01*
X152569379Y-73422820D01*
X152569375Y-73422819D01*
X152381613Y-73385471D01*
X152381610Y-73385471D01*
X152375946Y-73384344D01*
X152370171Y-73384268D01*
X152370167Y-73384268D01*
X152268793Y-73382941D01*
X152172971Y-73381687D01*
X152167274Y-73382666D01*
X152167273Y-73382666D01*
X151979032Y-73415012D01*
X151972910Y-73416064D01*
X151782463Y-73486324D01*
X151608010Y-73590112D01*
X151603670Y-73593918D01*
X151603666Y-73593921D01*
X151583723Y-73611411D01*
X151455392Y-73723955D01*
X151329720Y-73883369D01*
X151327031Y-73888480D01*
X151327029Y-73888483D01*
X151312594Y-73915920D01*
X151235203Y-74063015D01*
X151175007Y-74256878D01*
X151151148Y-74458464D01*
X151164424Y-74661022D01*
X151165845Y-74666618D01*
X151165846Y-74666623D01*
X151186119Y-74746445D01*
X151214392Y-74857769D01*
X151216809Y-74863012D01*
X151253915Y-74943502D01*
X151299377Y-75042116D01*
X151302710Y-75046832D01*
X151410989Y-75200044D01*
X151416533Y-75207889D01*
X151561938Y-75349535D01*
X151730720Y-75462312D01*
X151736023Y-75464590D01*
X151736026Y-75464592D01*
X151823634Y-75502231D01*
X151917228Y-75542442D01*
X151990244Y-75558964D01*
X152109579Y-75585967D01*
X152109584Y-75585968D01*
X152115216Y-75587242D01*
X152120987Y-75587469D01*
X152120989Y-75587469D01*
X152180756Y-75589817D01*
X152318053Y-75595212D01*
X152418499Y-75580648D01*
X152513231Y-75566913D01*
X152513236Y-75566912D01*
X152518945Y-75566084D01*
X152524409Y-75564229D01*
X152524414Y-75564228D01*
X152560492Y-75551981D01*
X152631427Y-75549025D01*
X152692700Y-75584889D01*
X152724856Y-75648186D01*
X152717686Y-75718819D01*
X152690088Y-75760389D01*
X151138882Y-77311595D01*
X151076570Y-77345621D01*
X151049787Y-77348500D01*
X136394135Y-77348500D01*
X136369836Y-77345914D01*
X136368398Y-77345846D01*
X136358220Y-77343655D01*
X136328516Y-77347170D01*
X136324658Y-77347627D01*
X136318680Y-77347979D01*
X136318688Y-77348072D01*
X136313510Y-77348500D01*
X136308308Y-77348500D01*
X136289154Y-77351688D01*
X136283296Y-77352522D01*
X136266682Y-77354488D01*
X136242433Y-77357358D01*
X136242432Y-77357358D01*
X136232093Y-77358582D01*
X136223794Y-77362567D01*
X136214717Y-77364078D01*
X136169349Y-77388558D01*
X136164086Y-77391239D01*
X136124750Y-77410127D01*
X136124746Y-77410130D01*
X136117602Y-77413560D01*
X136113308Y-77417170D01*
X136111376Y-77419102D01*
X136109427Y-77420889D01*
X136109374Y-77420918D01*
X136109255Y-77420788D01*
X136108687Y-77421289D01*
X136102943Y-77424388D01*
X136095876Y-77432033D01*
X136066146Y-77464195D01*
X136062716Y-77467762D01*
X135503517Y-78026960D01*
X135484506Y-78042314D01*
X135483444Y-78043280D01*
X135474696Y-78048929D01*
X135468252Y-78057104D01*
X135468249Y-78057106D01*
X135453771Y-78075472D01*
X135449794Y-78079947D01*
X135449865Y-78080008D01*
X135446512Y-78083965D01*
X135442829Y-78087648D01*
X135439803Y-78091883D01*
X135439801Y-78091885D01*
X135431547Y-78103436D01*
X135427984Y-78108182D01*
X135396066Y-78148670D01*
X135393015Y-78157357D01*
X135387666Y-78164843D01*
X135384683Y-78174819D01*
X135384682Y-78174820D01*
X135372902Y-78214211D01*
X135371072Y-78219843D01*
X135353984Y-78268502D01*
X135353500Y-78274091D01*
X135353500Y-78276802D01*
X135353385Y-78279469D01*
X135353366Y-78279532D01*
X135353192Y-78279525D01*
X135353145Y-78280271D01*
X135351275Y-78286524D01*
X135351684Y-78296928D01*
X135353403Y-78340678D01*
X135353500Y-78345625D01*
X135353500Y-79985577D01*
X135333498Y-80053698D01*
X135279842Y-80100191D01*
X135271112Y-80103789D01*
X135257463Y-80108824D01*
X135083010Y-80212612D01*
X135078670Y-80216418D01*
X135078666Y-80216421D01*
X134934733Y-80342648D01*
X134930392Y-80346455D01*
X134804720Y-80505869D01*
X134802031Y-80510980D01*
X134802029Y-80510983D01*
X134789073Y-80535609D01*
X134710203Y-80685515D01*
X134650007Y-80879378D01*
X134626148Y-81080964D01*
X134639424Y-81283522D01*
X134640845Y-81289118D01*
X134640846Y-81289123D01*
X134661119Y-81368945D01*
X134689392Y-81480269D01*
X134691809Y-81485512D01*
X134729010Y-81566208D01*
X134774377Y-81664616D01*
X134891533Y-81830389D01*
X135036938Y-81972035D01*
X135205720Y-82084812D01*
X135211023Y-82087090D01*
X135211026Y-82087092D01*
X135333764Y-82139824D01*
X135392228Y-82164942D01*
X135465244Y-82181464D01*
X135584579Y-82208467D01*
X135584584Y-82208468D01*
X135590216Y-82209742D01*
X135595987Y-82209969D01*
X135595989Y-82209969D01*
X135655756Y-82212317D01*
X135793053Y-82217712D01*
X135900348Y-82202155D01*
X135988231Y-82189413D01*
X135988236Y-82189412D01*
X135993945Y-82188584D01*
X135999409Y-82186729D01*
X135999414Y-82186728D01*
X136128879Y-82142780D01*
X136199814Y-82139824D01*
X136258476Y-82172998D01*
X136420041Y-82334564D01*
X136537107Y-82451630D01*
X136571132Y-82513942D01*
X136574011Y-82540725D01*
X136574011Y-83569500D01*
X136554009Y-83637621D01*
X136500353Y-83684114D01*
X136448011Y-83695500D01*
X134930654Y-83695501D01*
X134849934Y-83695501D01*
X134814182Y-83702612D01*
X134787874Y-83707844D01*
X134787872Y-83707845D01*
X134775699Y-83710266D01*
X134765379Y-83717161D01*
X134765378Y-83717162D01*
X134704985Y-83757516D01*
X134691516Y-83766516D01*
X134635266Y-83850699D01*
X134620500Y-83924933D01*
X133554000Y-83924933D01*
X133554000Y-75425911D01*
X138985950Y-75425911D01*
X138995830Y-75438398D01*
X139026159Y-75458663D01*
X139036264Y-75464150D01*
X139212077Y-75539685D01*
X139223020Y-75543240D01*
X139409646Y-75585470D01*
X139421055Y-75586972D01*
X139612258Y-75594484D01*
X139623740Y-75593882D01*
X139813106Y-75566426D01*
X139824302Y-75563738D01*
X140005493Y-75502231D01*
X140016002Y-75497552D01*
X140125091Y-75436459D01*
X140134955Y-75426381D01*
X140134774Y-75425911D01*
X141525950Y-75425911D01*
X141535830Y-75438398D01*
X141566159Y-75458663D01*
X141576264Y-75464150D01*
X141752077Y-75539685D01*
X141763020Y-75543240D01*
X141949646Y-75585470D01*
X141961055Y-75586972D01*
X142152258Y-75594484D01*
X142163740Y-75593882D01*
X142353106Y-75566426D01*
X142364302Y-75563738D01*
X142545493Y-75502231D01*
X142556002Y-75497552D01*
X142665091Y-75436459D01*
X142674955Y-75426381D01*
X142674774Y-75425911D01*
X144065950Y-75425911D01*
X144075830Y-75438398D01*
X144106159Y-75458663D01*
X144116264Y-75464150D01*
X144292077Y-75539685D01*
X144303020Y-75543240D01*
X144489646Y-75585470D01*
X144501055Y-75586972D01*
X144692258Y-75594484D01*
X144703740Y-75593882D01*
X144893106Y-75566426D01*
X144904302Y-75563738D01*
X145085493Y-75502231D01*
X145096002Y-75497552D01*
X145205091Y-75436459D01*
X145214955Y-75426381D01*
X145214774Y-75425911D01*
X146605950Y-75425911D01*
X146615830Y-75438398D01*
X146646159Y-75458663D01*
X146656264Y-75464150D01*
X146832077Y-75539685D01*
X146843020Y-75543240D01*
X147029646Y-75585470D01*
X147041055Y-75586972D01*
X147232258Y-75594484D01*
X147243740Y-75593882D01*
X147433106Y-75566426D01*
X147444302Y-75563738D01*
X147625493Y-75502231D01*
X147636002Y-75497552D01*
X147745091Y-75436459D01*
X147754955Y-75426381D01*
X147754774Y-75425911D01*
X149145950Y-75425911D01*
X149155830Y-75438398D01*
X149186159Y-75458663D01*
X149196264Y-75464150D01*
X149372077Y-75539685D01*
X149383020Y-75543240D01*
X149569646Y-75585470D01*
X149581055Y-75586972D01*
X149772258Y-75594484D01*
X149783740Y-75593882D01*
X149973106Y-75566426D01*
X149984302Y-75563738D01*
X150165493Y-75502231D01*
X150176002Y-75497552D01*
X150285091Y-75436459D01*
X150294955Y-75426381D01*
X150292000Y-75418710D01*
X149732812Y-74859522D01*
X149718868Y-74851908D01*
X149717035Y-74852039D01*
X149710420Y-74856290D01*
X149152146Y-75414564D01*
X149145950Y-75425911D01*
X147754774Y-75425911D01*
X147752000Y-75418710D01*
X147192812Y-74859522D01*
X147178868Y-74851908D01*
X147177035Y-74852039D01*
X147170420Y-74856290D01*
X146612146Y-75414564D01*
X146605950Y-75425911D01*
X145214774Y-75425911D01*
X145212000Y-75418710D01*
X144652812Y-74859522D01*
X144638868Y-74851908D01*
X144637035Y-74852039D01*
X144630420Y-74856290D01*
X144072146Y-75414564D01*
X144065950Y-75425911D01*
X142674774Y-75425911D01*
X142672000Y-75418710D01*
X142112812Y-74859522D01*
X142098868Y-74851908D01*
X142097035Y-74852039D01*
X142090420Y-74856290D01*
X141532146Y-75414564D01*
X141525950Y-75425911D01*
X140134774Y-75425911D01*
X140132000Y-75418710D01*
X139572812Y-74859522D01*
X139558868Y-74851908D01*
X139557035Y-74852039D01*
X139550420Y-74856290D01*
X138992146Y-75414564D01*
X138985950Y-75425911D01*
X133554000Y-75425911D01*
X133554000Y-74464243D01*
X138452028Y-74464243D01*
X138464542Y-74655176D01*
X138466343Y-74666546D01*
X138513443Y-74852002D01*
X138517284Y-74862848D01*
X138597392Y-75036616D01*
X138603146Y-75046583D01*
X138608658Y-75054382D01*
X138619247Y-75062770D01*
X138632548Y-75055742D01*
X139187978Y-74500312D01*
X139194356Y-74488632D01*
X139924408Y-74488632D01*
X139924539Y-74490465D01*
X139928790Y-74497080D01*
X140487295Y-75055585D01*
X140499675Y-75062345D01*
X140506255Y-75057419D01*
X140570052Y-74943502D01*
X140574731Y-74932993D01*
X140636238Y-74751802D01*
X140638926Y-74740606D01*
X140666678Y-74549199D01*
X140667308Y-74541818D01*
X140668633Y-74491204D01*
X140668390Y-74483805D01*
X140666593Y-74464243D01*
X140992028Y-74464243D01*
X141004542Y-74655176D01*
X141006343Y-74666546D01*
X141053443Y-74852002D01*
X141057284Y-74862848D01*
X141137392Y-75036616D01*
X141143146Y-75046583D01*
X141148658Y-75054382D01*
X141159247Y-75062770D01*
X141172548Y-75055742D01*
X141727978Y-74500312D01*
X141734356Y-74488632D01*
X142464408Y-74488632D01*
X142464539Y-74490465D01*
X142468790Y-74497080D01*
X143027295Y-75055585D01*
X143039675Y-75062345D01*
X143046255Y-75057419D01*
X143110052Y-74943502D01*
X143114731Y-74932993D01*
X143176238Y-74751802D01*
X143178926Y-74740606D01*
X143206678Y-74549199D01*
X143207308Y-74541818D01*
X143208633Y-74491204D01*
X143208390Y-74483805D01*
X143206593Y-74464243D01*
X143532028Y-74464243D01*
X143544542Y-74655176D01*
X143546343Y-74666546D01*
X143593443Y-74852002D01*
X143597284Y-74862848D01*
X143677392Y-75036616D01*
X143683146Y-75046583D01*
X143688658Y-75054382D01*
X143699247Y-75062770D01*
X143712548Y-75055742D01*
X144267978Y-74500312D01*
X144274356Y-74488632D01*
X145004408Y-74488632D01*
X145004539Y-74490465D01*
X145008790Y-74497080D01*
X145567295Y-75055585D01*
X145579675Y-75062345D01*
X145586255Y-75057419D01*
X145650052Y-74943502D01*
X145654731Y-74932993D01*
X145716238Y-74751802D01*
X145718926Y-74740606D01*
X145746678Y-74549199D01*
X145747308Y-74541818D01*
X145748633Y-74491204D01*
X145748390Y-74483805D01*
X145746593Y-74464243D01*
X146072028Y-74464243D01*
X146084542Y-74655176D01*
X146086343Y-74666546D01*
X146133443Y-74852002D01*
X146137284Y-74862848D01*
X146217392Y-75036616D01*
X146223146Y-75046583D01*
X146228658Y-75054382D01*
X146239247Y-75062770D01*
X146252548Y-75055742D01*
X146807978Y-74500312D01*
X146814356Y-74488632D01*
X147544408Y-74488632D01*
X147544539Y-74490465D01*
X147548790Y-74497080D01*
X148107295Y-75055585D01*
X148119675Y-75062345D01*
X148126255Y-75057419D01*
X148190052Y-74943502D01*
X148194731Y-74932993D01*
X148256238Y-74751802D01*
X148258926Y-74740606D01*
X148286678Y-74549199D01*
X148287308Y-74541818D01*
X148288633Y-74491204D01*
X148288390Y-74483805D01*
X148286593Y-74464243D01*
X148612028Y-74464243D01*
X148624542Y-74655176D01*
X148626343Y-74666546D01*
X148673443Y-74852002D01*
X148677284Y-74862848D01*
X148757392Y-75036616D01*
X148763146Y-75046583D01*
X148768658Y-75054382D01*
X148779247Y-75062770D01*
X148792548Y-75055742D01*
X149347978Y-74500312D01*
X149354356Y-74488632D01*
X150084408Y-74488632D01*
X150084539Y-74490465D01*
X150088790Y-74497080D01*
X150647295Y-75055585D01*
X150659675Y-75062345D01*
X150666255Y-75057419D01*
X150730052Y-74943502D01*
X150734731Y-74932993D01*
X150796238Y-74751802D01*
X150798926Y-74740606D01*
X150826678Y-74549199D01*
X150827308Y-74541818D01*
X150828633Y-74491204D01*
X150828390Y-74483805D01*
X150810693Y-74291207D01*
X150808595Y-74279886D01*
X150756658Y-74095731D01*
X150752533Y-74084984D01*
X150668998Y-73915592D01*
X150662010Y-73910347D01*
X150649591Y-73917119D01*
X150092022Y-74474688D01*
X150084408Y-74488632D01*
X149354356Y-74488632D01*
X149355592Y-74486368D01*
X149355461Y-74484535D01*
X149351210Y-74477920D01*
X148791504Y-73918214D01*
X148779124Y-73911454D01*
X148773158Y-73915920D01*
X148698356Y-74058095D01*
X148693953Y-74068728D01*
X148637213Y-74251459D01*
X148634819Y-74262721D01*
X148612329Y-74452741D01*
X148612028Y-74464243D01*
X148286593Y-74464243D01*
X148270693Y-74291207D01*
X148268595Y-74279886D01*
X148216658Y-74095731D01*
X148212533Y-74084984D01*
X148128998Y-73915592D01*
X148122010Y-73910347D01*
X148109591Y-73917119D01*
X147552022Y-74474688D01*
X147544408Y-74488632D01*
X146814356Y-74488632D01*
X146815592Y-74486368D01*
X146815461Y-74484535D01*
X146811210Y-74477920D01*
X146251504Y-73918214D01*
X146239124Y-73911454D01*
X146233158Y-73915920D01*
X146158356Y-74058095D01*
X146153953Y-74068728D01*
X146097213Y-74251459D01*
X146094819Y-74262721D01*
X146072329Y-74452741D01*
X146072028Y-74464243D01*
X145746593Y-74464243D01*
X145730693Y-74291207D01*
X145728595Y-74279886D01*
X145676658Y-74095731D01*
X145672533Y-74084984D01*
X145588998Y-73915592D01*
X145582010Y-73910347D01*
X145569591Y-73917119D01*
X145012022Y-74474688D01*
X145004408Y-74488632D01*
X144274356Y-74488632D01*
X144275592Y-74486368D01*
X144275461Y-74484535D01*
X144271210Y-74477920D01*
X143711504Y-73918214D01*
X143699124Y-73911454D01*
X143693158Y-73915920D01*
X143618356Y-74058095D01*
X143613953Y-74068728D01*
X143557213Y-74251459D01*
X143554819Y-74262721D01*
X143532329Y-74452741D01*
X143532028Y-74464243D01*
X143206593Y-74464243D01*
X143190693Y-74291207D01*
X143188595Y-74279886D01*
X143136658Y-74095731D01*
X143132533Y-74084984D01*
X143048998Y-73915592D01*
X143042010Y-73910347D01*
X143029591Y-73917119D01*
X142472022Y-74474688D01*
X142464408Y-74488632D01*
X141734356Y-74488632D01*
X141735592Y-74486368D01*
X141735461Y-74484535D01*
X141731210Y-74477920D01*
X141171504Y-73918214D01*
X141159124Y-73911454D01*
X141153158Y-73915920D01*
X141078356Y-74058095D01*
X141073953Y-74068728D01*
X141017213Y-74251459D01*
X141014819Y-74262721D01*
X140992329Y-74452741D01*
X140992028Y-74464243D01*
X140666593Y-74464243D01*
X140650693Y-74291207D01*
X140648595Y-74279886D01*
X140596658Y-74095731D01*
X140592533Y-74084984D01*
X140508998Y-73915592D01*
X140502010Y-73910347D01*
X140489591Y-73917119D01*
X139932022Y-74474688D01*
X139924408Y-74488632D01*
X139194356Y-74488632D01*
X139195592Y-74486368D01*
X139195461Y-74484535D01*
X139191210Y-74477920D01*
X138631504Y-73918214D01*
X138619124Y-73911454D01*
X138613158Y-73915920D01*
X138538356Y-74058095D01*
X138533953Y-74068728D01*
X138477213Y-74251459D01*
X138474819Y-74262721D01*
X138452329Y-74452741D01*
X138452028Y-74464243D01*
X133554000Y-74464243D01*
X133554000Y-73549093D01*
X138985705Y-73549093D01*
X138989192Y-73557482D01*
X139547188Y-74115478D01*
X139561132Y-74123092D01*
X139562965Y-74122961D01*
X139569580Y-74118710D01*
X140127381Y-73560909D01*
X140133833Y-73549093D01*
X141525705Y-73549093D01*
X141529192Y-73557482D01*
X142087188Y-74115478D01*
X142101132Y-74123092D01*
X142102965Y-74122961D01*
X142109580Y-74118710D01*
X142667381Y-73560909D01*
X142673833Y-73549093D01*
X144065705Y-73549093D01*
X144069192Y-73557482D01*
X144627188Y-74115478D01*
X144641132Y-74123092D01*
X144642965Y-74122961D01*
X144649580Y-74118710D01*
X145207381Y-73560909D01*
X145213833Y-73549093D01*
X146605705Y-73549093D01*
X146609192Y-73557482D01*
X147167188Y-74115478D01*
X147181132Y-74123092D01*
X147182965Y-74122961D01*
X147189580Y-74118710D01*
X147747381Y-73560909D01*
X147753833Y-73549093D01*
X149145705Y-73549093D01*
X149149192Y-73557482D01*
X149707188Y-74115478D01*
X149721132Y-74123092D01*
X149722965Y-74122961D01*
X149729580Y-74118710D01*
X150287381Y-73560909D01*
X150294141Y-73548529D01*
X150288111Y-73540474D01*
X150228239Y-73502697D01*
X150217988Y-73497474D01*
X150040260Y-73426568D01*
X150029232Y-73423301D01*
X149841561Y-73385971D01*
X149830115Y-73384768D01*
X149638792Y-73382264D01*
X149627312Y-73383167D01*
X149438737Y-73415570D01*
X149427617Y-73418550D01*
X149248095Y-73484779D01*
X149237717Y-73489729D01*
X149155303Y-73538760D01*
X149145705Y-73549093D01*
X147753833Y-73549093D01*
X147754141Y-73548529D01*
X147748111Y-73540474D01*
X147688239Y-73502697D01*
X147677988Y-73497474D01*
X147500260Y-73426568D01*
X147489232Y-73423301D01*
X147301561Y-73385971D01*
X147290115Y-73384768D01*
X147098792Y-73382264D01*
X147087312Y-73383167D01*
X146898737Y-73415570D01*
X146887617Y-73418550D01*
X146708095Y-73484779D01*
X146697717Y-73489729D01*
X146615303Y-73538760D01*
X146605705Y-73549093D01*
X145213833Y-73549093D01*
X145214141Y-73548529D01*
X145208111Y-73540474D01*
X145148239Y-73502697D01*
X145137988Y-73497474D01*
X144960260Y-73426568D01*
X144949232Y-73423301D01*
X144761561Y-73385971D01*
X144750115Y-73384768D01*
X144558792Y-73382264D01*
X144547312Y-73383167D01*
X144358737Y-73415570D01*
X144347617Y-73418550D01*
X144168095Y-73484779D01*
X144157717Y-73489729D01*
X144075303Y-73538760D01*
X144065705Y-73549093D01*
X142673833Y-73549093D01*
X142674141Y-73548529D01*
X142668111Y-73540474D01*
X142608239Y-73502697D01*
X142597988Y-73497474D01*
X142420260Y-73426568D01*
X142409232Y-73423301D01*
X142221561Y-73385971D01*
X142210115Y-73384768D01*
X142018792Y-73382264D01*
X142007312Y-73383167D01*
X141818737Y-73415570D01*
X141807617Y-73418550D01*
X141628095Y-73484779D01*
X141617717Y-73489729D01*
X141535303Y-73538760D01*
X141525705Y-73549093D01*
X140133833Y-73549093D01*
X140134141Y-73548529D01*
X140128111Y-73540474D01*
X140068239Y-73502697D01*
X140057988Y-73497474D01*
X139880260Y-73426568D01*
X139869232Y-73423301D01*
X139681561Y-73385971D01*
X139670115Y-73384768D01*
X139478792Y-73382264D01*
X139467312Y-73383167D01*
X139278737Y-73415570D01*
X139267617Y-73418550D01*
X139088095Y-73484779D01*
X139077717Y-73489729D01*
X138995303Y-73538760D01*
X138985705Y-73549093D01*
X133554000Y-73549093D01*
X133554000Y-72885911D01*
X138985950Y-72885911D01*
X138995830Y-72898398D01*
X139026159Y-72918663D01*
X139036264Y-72924150D01*
X139212077Y-72999685D01*
X139223020Y-73003240D01*
X139409646Y-73045470D01*
X139421055Y-73046972D01*
X139612258Y-73054484D01*
X139623740Y-73053882D01*
X139813106Y-73026426D01*
X139824302Y-73023738D01*
X140005493Y-72962231D01*
X140016002Y-72957552D01*
X140125091Y-72896459D01*
X140134955Y-72886381D01*
X140134774Y-72885911D01*
X141525950Y-72885911D01*
X141535830Y-72898398D01*
X141566159Y-72918663D01*
X141576264Y-72924150D01*
X141752077Y-72999685D01*
X141763020Y-73003240D01*
X141949646Y-73045470D01*
X141961055Y-73046972D01*
X142152258Y-73054484D01*
X142163740Y-73053882D01*
X142353106Y-73026426D01*
X142364302Y-73023738D01*
X142545493Y-72962231D01*
X142556002Y-72957552D01*
X142665091Y-72896459D01*
X142674955Y-72886381D01*
X142674774Y-72885911D01*
X144065950Y-72885911D01*
X144075830Y-72898398D01*
X144106159Y-72918663D01*
X144116264Y-72924150D01*
X144292077Y-72999685D01*
X144303020Y-73003240D01*
X144489646Y-73045470D01*
X144501055Y-73046972D01*
X144692258Y-73054484D01*
X144703740Y-73053882D01*
X144893106Y-73026426D01*
X144904302Y-73023738D01*
X145085493Y-72962231D01*
X145096002Y-72957552D01*
X145205091Y-72896459D01*
X145214955Y-72886381D01*
X145214774Y-72885911D01*
X146605950Y-72885911D01*
X146615830Y-72898398D01*
X146646159Y-72918663D01*
X146656264Y-72924150D01*
X146832077Y-72999685D01*
X146843020Y-73003240D01*
X147029646Y-73045470D01*
X147041055Y-73046972D01*
X147232258Y-73054484D01*
X147243740Y-73053882D01*
X147433106Y-73026426D01*
X147444302Y-73023738D01*
X147625493Y-72962231D01*
X147636002Y-72957552D01*
X147745091Y-72896459D01*
X147754955Y-72886381D01*
X147754774Y-72885911D01*
X149145950Y-72885911D01*
X149155830Y-72898398D01*
X149186159Y-72918663D01*
X149196264Y-72924150D01*
X149372077Y-72999685D01*
X149383020Y-73003240D01*
X149569646Y-73045470D01*
X149581055Y-73046972D01*
X149772258Y-73054484D01*
X149783740Y-73053882D01*
X149973106Y-73026426D01*
X149984302Y-73023738D01*
X150165493Y-72962231D01*
X150176002Y-72957552D01*
X150285091Y-72896459D01*
X150294955Y-72886381D01*
X150292000Y-72878710D01*
X149732812Y-72319522D01*
X149718868Y-72311908D01*
X149717035Y-72312039D01*
X149710420Y-72316290D01*
X149152146Y-72874564D01*
X149145950Y-72885911D01*
X147754774Y-72885911D01*
X147752000Y-72878710D01*
X147192812Y-72319522D01*
X147178868Y-72311908D01*
X147177035Y-72312039D01*
X147170420Y-72316290D01*
X146612146Y-72874564D01*
X146605950Y-72885911D01*
X145214774Y-72885911D01*
X145212000Y-72878710D01*
X144652812Y-72319522D01*
X144638868Y-72311908D01*
X144637035Y-72312039D01*
X144630420Y-72316290D01*
X144072146Y-72874564D01*
X144065950Y-72885911D01*
X142674774Y-72885911D01*
X142672000Y-72878710D01*
X142112812Y-72319522D01*
X142098868Y-72311908D01*
X142097035Y-72312039D01*
X142090420Y-72316290D01*
X141532146Y-72874564D01*
X141525950Y-72885911D01*
X140134774Y-72885911D01*
X140132000Y-72878710D01*
X139572812Y-72319522D01*
X139558868Y-72311908D01*
X139557035Y-72312039D01*
X139550420Y-72316290D01*
X138992146Y-72874564D01*
X138985950Y-72885911D01*
X133554000Y-72885911D01*
X133554000Y-71924243D01*
X138452028Y-71924243D01*
X138464542Y-72115176D01*
X138466343Y-72126546D01*
X138513443Y-72312002D01*
X138517284Y-72322848D01*
X138597392Y-72496616D01*
X138603146Y-72506583D01*
X138608658Y-72514382D01*
X138619247Y-72522770D01*
X138632548Y-72515742D01*
X139187978Y-71960312D01*
X139194356Y-71948632D01*
X139924408Y-71948632D01*
X139924539Y-71950465D01*
X139928790Y-71957080D01*
X140487295Y-72515585D01*
X140499675Y-72522345D01*
X140506255Y-72517419D01*
X140570052Y-72403502D01*
X140574731Y-72392993D01*
X140636238Y-72211802D01*
X140638926Y-72200606D01*
X140666678Y-72009199D01*
X140667308Y-72001818D01*
X140668633Y-71951204D01*
X140668390Y-71943805D01*
X140666593Y-71924243D01*
X140992028Y-71924243D01*
X141004542Y-72115176D01*
X141006343Y-72126546D01*
X141053443Y-72312002D01*
X141057284Y-72322848D01*
X141137392Y-72496616D01*
X141143146Y-72506583D01*
X141148658Y-72514382D01*
X141159247Y-72522770D01*
X141172548Y-72515742D01*
X141727978Y-71960312D01*
X141734356Y-71948632D01*
X142464408Y-71948632D01*
X142464539Y-71950465D01*
X142468790Y-71957080D01*
X143027295Y-72515585D01*
X143039675Y-72522345D01*
X143046255Y-72517419D01*
X143110052Y-72403502D01*
X143114731Y-72392993D01*
X143176238Y-72211802D01*
X143178926Y-72200606D01*
X143206678Y-72009199D01*
X143207308Y-72001818D01*
X143208633Y-71951204D01*
X143208390Y-71943805D01*
X143206593Y-71924243D01*
X143532028Y-71924243D01*
X143544542Y-72115176D01*
X143546343Y-72126546D01*
X143593443Y-72312002D01*
X143597284Y-72322848D01*
X143677392Y-72496616D01*
X143683146Y-72506583D01*
X143688658Y-72514382D01*
X143699247Y-72522770D01*
X143712548Y-72515742D01*
X144267978Y-71960312D01*
X144274356Y-71948632D01*
X145004408Y-71948632D01*
X145004539Y-71950465D01*
X145008790Y-71957080D01*
X145567295Y-72515585D01*
X145579675Y-72522345D01*
X145586255Y-72517419D01*
X145650052Y-72403502D01*
X145654731Y-72392993D01*
X145716238Y-72211802D01*
X145718926Y-72200606D01*
X145746678Y-72009199D01*
X145747308Y-72001818D01*
X145748633Y-71951204D01*
X145748390Y-71943805D01*
X145746593Y-71924243D01*
X146072028Y-71924243D01*
X146084542Y-72115176D01*
X146086343Y-72126546D01*
X146133443Y-72312002D01*
X146137284Y-72322848D01*
X146217392Y-72496616D01*
X146223146Y-72506583D01*
X146228658Y-72514382D01*
X146239247Y-72522770D01*
X146252548Y-72515742D01*
X146807978Y-71960312D01*
X146814356Y-71948632D01*
X147544408Y-71948632D01*
X147544539Y-71950465D01*
X147548790Y-71957080D01*
X148107295Y-72515585D01*
X148119675Y-72522345D01*
X148126255Y-72517419D01*
X148190052Y-72403502D01*
X148194731Y-72392993D01*
X148256238Y-72211802D01*
X148258926Y-72200606D01*
X148286678Y-72009199D01*
X148287308Y-72001818D01*
X148288633Y-71951204D01*
X148288390Y-71943805D01*
X148286593Y-71924243D01*
X148612028Y-71924243D01*
X148624542Y-72115176D01*
X148626343Y-72126546D01*
X148673443Y-72312002D01*
X148677284Y-72322848D01*
X148757392Y-72496616D01*
X148763146Y-72506583D01*
X148768658Y-72514382D01*
X148779247Y-72522770D01*
X148792548Y-72515742D01*
X149347978Y-71960312D01*
X149354356Y-71948632D01*
X150084408Y-71948632D01*
X150084539Y-71950465D01*
X150088790Y-71957080D01*
X150647295Y-72515585D01*
X150659675Y-72522345D01*
X150666255Y-72517419D01*
X150730052Y-72403502D01*
X150734731Y-72392993D01*
X150796238Y-72211802D01*
X150798926Y-72200606D01*
X150826678Y-72009199D01*
X150827308Y-72001818D01*
X150828633Y-71951204D01*
X150828390Y-71943805D01*
X150810693Y-71751207D01*
X150808595Y-71739886D01*
X150756658Y-71555731D01*
X150752533Y-71544984D01*
X150668998Y-71375592D01*
X150662010Y-71370347D01*
X150649591Y-71377119D01*
X150092022Y-71934688D01*
X150084408Y-71948632D01*
X149354356Y-71948632D01*
X149355592Y-71946368D01*
X149355461Y-71944535D01*
X149351210Y-71937920D01*
X148791504Y-71378214D01*
X148779124Y-71371454D01*
X148773158Y-71375920D01*
X148698356Y-71518095D01*
X148693953Y-71528728D01*
X148637213Y-71711459D01*
X148634819Y-71722721D01*
X148612329Y-71912741D01*
X148612028Y-71924243D01*
X148286593Y-71924243D01*
X148270693Y-71751207D01*
X148268595Y-71739886D01*
X148216658Y-71555731D01*
X148212533Y-71544984D01*
X148128998Y-71375592D01*
X148122010Y-71370347D01*
X148109591Y-71377119D01*
X147552022Y-71934688D01*
X147544408Y-71948632D01*
X146814356Y-71948632D01*
X146815592Y-71946368D01*
X146815461Y-71944535D01*
X146811210Y-71937920D01*
X146251504Y-71378214D01*
X146239124Y-71371454D01*
X146233158Y-71375920D01*
X146158356Y-71518095D01*
X146153953Y-71528728D01*
X146097213Y-71711459D01*
X146094819Y-71722721D01*
X146072329Y-71912741D01*
X146072028Y-71924243D01*
X145746593Y-71924243D01*
X145730693Y-71751207D01*
X145728595Y-71739886D01*
X145676658Y-71555731D01*
X145672533Y-71544984D01*
X145588998Y-71375592D01*
X145582010Y-71370347D01*
X145569591Y-71377119D01*
X145012022Y-71934688D01*
X145004408Y-71948632D01*
X144274356Y-71948632D01*
X144275592Y-71946368D01*
X144275461Y-71944535D01*
X144271210Y-71937920D01*
X143711504Y-71378214D01*
X143699124Y-71371454D01*
X143693158Y-71375920D01*
X143618356Y-71518095D01*
X143613953Y-71528728D01*
X143557213Y-71711459D01*
X143554819Y-71722721D01*
X143532329Y-71912741D01*
X143532028Y-71924243D01*
X143206593Y-71924243D01*
X143190693Y-71751207D01*
X143188595Y-71739886D01*
X143136658Y-71555731D01*
X143132533Y-71544984D01*
X143048998Y-71375592D01*
X143042010Y-71370347D01*
X143029591Y-71377119D01*
X142472022Y-71934688D01*
X142464408Y-71948632D01*
X141734356Y-71948632D01*
X141735592Y-71946368D01*
X141735461Y-71944535D01*
X141731210Y-71937920D01*
X141171504Y-71378214D01*
X141159124Y-71371454D01*
X141153158Y-71375920D01*
X141078356Y-71518095D01*
X141073953Y-71528728D01*
X141017213Y-71711459D01*
X141014819Y-71722721D01*
X140992329Y-71912741D01*
X140992028Y-71924243D01*
X140666593Y-71924243D01*
X140650693Y-71751207D01*
X140648595Y-71739886D01*
X140596658Y-71555731D01*
X140592533Y-71544984D01*
X140508998Y-71375592D01*
X140502010Y-71370347D01*
X140489591Y-71377119D01*
X139932022Y-71934688D01*
X139924408Y-71948632D01*
X139194356Y-71948632D01*
X139195592Y-71946368D01*
X139195461Y-71944535D01*
X139191210Y-71937920D01*
X138631504Y-71378214D01*
X138619124Y-71371454D01*
X138613158Y-71375920D01*
X138538356Y-71518095D01*
X138533953Y-71528728D01*
X138477213Y-71711459D01*
X138474819Y-71722721D01*
X138452329Y-71912741D01*
X138452028Y-71924243D01*
X133554000Y-71924243D01*
X133554000Y-71009093D01*
X138985705Y-71009093D01*
X138989192Y-71017482D01*
X139547188Y-71575478D01*
X139561132Y-71583092D01*
X139562965Y-71582961D01*
X139569580Y-71578710D01*
X140127381Y-71020909D01*
X140133833Y-71009093D01*
X141525705Y-71009093D01*
X141529192Y-71017482D01*
X142087188Y-71575478D01*
X142101132Y-71583092D01*
X142102965Y-71582961D01*
X142109580Y-71578710D01*
X142667381Y-71020909D01*
X142673833Y-71009093D01*
X144065705Y-71009093D01*
X144069192Y-71017482D01*
X144627188Y-71575478D01*
X144641132Y-71583092D01*
X144642965Y-71582961D01*
X144649580Y-71578710D01*
X145207381Y-71020909D01*
X145213833Y-71009093D01*
X146605705Y-71009093D01*
X146609192Y-71017482D01*
X147167188Y-71575478D01*
X147181132Y-71583092D01*
X147182965Y-71582961D01*
X147189580Y-71578710D01*
X147747381Y-71020909D01*
X147753833Y-71009093D01*
X149145705Y-71009093D01*
X149149192Y-71017482D01*
X149707188Y-71575478D01*
X149721132Y-71583092D01*
X149722965Y-71582961D01*
X149729580Y-71578710D01*
X150287381Y-71020909D01*
X150294141Y-71008529D01*
X150288111Y-71000474D01*
X150228239Y-70962697D01*
X150217988Y-70957474D01*
X150040260Y-70886568D01*
X150029232Y-70883301D01*
X149841561Y-70845971D01*
X149830115Y-70844768D01*
X149638792Y-70842264D01*
X149627312Y-70843167D01*
X149438737Y-70875570D01*
X149427617Y-70878550D01*
X149248095Y-70944779D01*
X149237717Y-70949729D01*
X149155303Y-70998760D01*
X149145705Y-71009093D01*
X147753833Y-71009093D01*
X147754141Y-71008529D01*
X147748111Y-71000474D01*
X147688239Y-70962697D01*
X147677988Y-70957474D01*
X147500260Y-70886568D01*
X147489232Y-70883301D01*
X147301561Y-70845971D01*
X147290115Y-70844768D01*
X147098792Y-70842264D01*
X147087312Y-70843167D01*
X146898737Y-70875570D01*
X146887617Y-70878550D01*
X146708095Y-70944779D01*
X146697717Y-70949729D01*
X146615303Y-70998760D01*
X146605705Y-71009093D01*
X145213833Y-71009093D01*
X145214141Y-71008529D01*
X145208111Y-71000474D01*
X145148239Y-70962697D01*
X145137988Y-70957474D01*
X144960260Y-70886568D01*
X144949232Y-70883301D01*
X144761561Y-70845971D01*
X144750115Y-70844768D01*
X144558792Y-70842264D01*
X144547312Y-70843167D01*
X144358737Y-70875570D01*
X144347617Y-70878550D01*
X144168095Y-70944779D01*
X144157717Y-70949729D01*
X144075303Y-70998760D01*
X144065705Y-71009093D01*
X142673833Y-71009093D01*
X142674141Y-71008529D01*
X142668111Y-71000474D01*
X142608239Y-70962697D01*
X142597988Y-70957474D01*
X142420260Y-70886568D01*
X142409232Y-70883301D01*
X142221561Y-70845971D01*
X142210115Y-70844768D01*
X142018792Y-70842264D01*
X142007312Y-70843167D01*
X141818737Y-70875570D01*
X141807617Y-70878550D01*
X141628095Y-70944779D01*
X141617717Y-70949729D01*
X141535303Y-70998760D01*
X141525705Y-71009093D01*
X140133833Y-71009093D01*
X140134141Y-71008529D01*
X140128111Y-71000474D01*
X140068239Y-70962697D01*
X140057988Y-70957474D01*
X139880260Y-70886568D01*
X139869232Y-70883301D01*
X139681561Y-70845971D01*
X139670115Y-70844768D01*
X139478792Y-70842264D01*
X139467312Y-70843167D01*
X139278737Y-70875570D01*
X139267617Y-70878550D01*
X139088095Y-70944779D01*
X139077717Y-70949729D01*
X138995303Y-70998760D01*
X138985705Y-71009093D01*
X133554000Y-71009093D01*
X133554000Y-67380000D01*
X133574002Y-67311879D01*
X133627658Y-67265386D01*
X133680000Y-67254000D01*
X199620000Y-67254000D01*
X199688121Y-67274002D01*
G37*
%TD.AperFunction*%
%TD*%
%TA.AperFunction,Conductor*%
%TO.N,+24V*%
G36*
X172515931Y-97020002D02*
G01*
X172536905Y-97036905D01*
X173463095Y-97963095D01*
X173497121Y-98025407D01*
X173500000Y-98052190D01*
X173500000Y-101947810D01*
X173479998Y-102015931D01*
X173463095Y-102036905D01*
X171500000Y-104000000D01*
X171500000Y-107447810D01*
X171479998Y-107515931D01*
X171463095Y-107536905D01*
X164036905Y-114963095D01*
X163974593Y-114997121D01*
X163947810Y-115000000D01*
X159802190Y-115000000D01*
X159734069Y-114979998D01*
X159713095Y-114963095D01*
X159036905Y-114286905D01*
X159002879Y-114224593D01*
X159000000Y-114197810D01*
X159000000Y-112302190D01*
X159020002Y-112234069D01*
X159036905Y-112213095D01*
X159713095Y-111536905D01*
X159775407Y-111502879D01*
X159802190Y-111500000D01*
X163500000Y-111500000D01*
X167000000Y-108000000D01*
X167000000Y-104000000D01*
X165536905Y-102536905D01*
X165502879Y-102474593D01*
X165500000Y-102447810D01*
X165500000Y-97552190D01*
X165520002Y-97484069D01*
X165536905Y-97463095D01*
X165963095Y-97036905D01*
X166025407Y-97002879D01*
X166052190Y-97000000D01*
X172447810Y-97000000D01*
X172515931Y-97020002D01*
G37*
%TD.AperFunction*%
%TD*%
M02*
