M48
; DRILL file {KiCad (6.0.0-0)} date Monday, January 16, 2023 at 12:55:53 PM
; FORMAT={-:-/ absolute / inch / decimal}
; #@! TF.CreationDate,2023-01-16T12:55:53-05:00
; #@! TF.GenerationSoftware,Kicad,Pcbnew,(6.0.0-0)
; #@! TF.FileFunction,Plated,1,2,PTH
FMAT,2
INCH
; #@! TA.AperFunction,Plated,PTH,ViaDrill
T1C0.0157
; #@! TA.AperFunction,Plated,PTH,ComponentDrill
T2C0.0394
; #@! TA.AperFunction,Plated,PTH,ComponentDrill
T3C0.0433
; #@! TA.AperFunction,Plated,PTH,ComponentDrill
T4C0.0472
; #@! TA.AperFunction,Plated,PTH,ComponentDrill
T5C0.0551
; #@! TA.AperFunction,Plated,PTH,ComponentDrill
T6C0.0630
%
G90
G05
T1
X5.9569Y-3.7239
X5.9575Y-3.7961
X6.2996Y-4.5071
X6.3622Y-4.5748
X6.4252Y-4.5748
X6.4256Y-4.5071
X6.5354Y-3.8583
X6.5354Y-3.937
X6.5354Y-4.0157
X6.6142Y-3.8583
X6.6142Y-3.937
X6.6142Y-4.0157
X6.6929Y-4.0157
X6.811Y-3.937
X7.548Y-2.7898
T2
X5.3435Y-3.3386
X5.3439Y-3.1933
X5.4435Y-3.3386
X5.4439Y-3.1933
X5.4945Y-2.8326
X5.4945Y-2.9326
X5.5945Y-2.8326
X5.5945Y-2.9326
X5.5945Y-3.3386
X5.5949Y-3.1933
X5.6945Y-2.8326
X5.6945Y-2.9326
X5.6945Y-3.3386
X5.6949Y-3.1933
X5.7945Y-2.8326
X5.7945Y-2.9326
X5.8945Y-2.8326
X5.8945Y-2.9326
X5.9945Y-2.8326
X5.9945Y-2.9326
X6.0945Y-2.8326
X6.0945Y-2.9326
X6.1945Y-2.8326
X6.1945Y-2.9326
X6.2945Y-2.8326
X6.2945Y-2.9326
X6.3945Y-2.8326
X6.3945Y-2.9326
X6.4945Y-2.8326
X6.4945Y-2.9326
X6.5945Y-2.8326
X6.5945Y-2.9326
X6.6945Y-2.8326
X6.6945Y-2.9326
T3
X7.0354Y-4.1063
X7.0354Y-4.2063
X7.0354Y-4.3063
T4
X6.2402Y-3.4685
X6.437Y-3.4685
T5
X5.4461Y-4.326
X5.4461Y-4.5228
X5.4498Y-3.5984
X5.4498Y-3.7953
X7.0797Y-2.8661
X7.2766Y-2.8661
T6
X6.7144Y-3.9063
X6.7144Y-4.5063
T0
M30
