%TF.GenerationSoftware,KiCad,Pcbnew,(6.0.0-0)*%
%TF.CreationDate,2023-01-16T12:55:47-05:00*%
%TF.ProjectId,Spindle_Driver,5370696e-646c-4655-9f44-72697665722e,rev?*%
%TF.SameCoordinates,Original*%
%TF.FileFunction,Soldermask,Bot*%
%TF.FilePolarity,Negative*%
%FSLAX46Y46*%
G04 Gerber Fmt 4.6, Leading zero omitted, Abs format (unit mm)*
G04 Created by KiCad (PCBNEW (6.0.0-0)) date 2023-01-16 12:55:47*
%MOMM*%
%LPD*%
G01*
G04 APERTURE LIST*
G04 Aperture macros list*
%AMRoundRect*
0 Rectangle with rounded corners*
0 $1 Rounding radius*
0 $2 $3 $4 $5 $6 $7 $8 $9 X,Y pos of 4 corners*
0 Add a 4 corners polygon primitive as box body*
4,1,4,$2,$3,$4,$5,$6,$7,$8,$9,$2,$3,0*
0 Add four circle primitives for the rounded corners*
1,1,$1+$1,$2,$3*
1,1,$1+$1,$4,$5*
1,1,$1+$1,$6,$7*
1,1,$1+$1,$8,$9*
0 Add four rect primitives between the rounded corners*
20,1,$1+$1,$2,$3,$4,$5,0*
20,1,$1+$1,$4,$5,$6,$7,0*
20,1,$1+$1,$6,$7,$8,$9,0*
20,1,$1+$1,$8,$9,$2,$3,0*%
G04 Aperture macros list end*
%ADD10R,2.400000X2.400000*%
%ADD11C,2.400000*%
%ADD12R,1.700000X1.700000*%
%ADD13O,1.700000X1.700000*%
%ADD14R,2.800000X2.800000*%
%ADD15C,2.800000*%
%ADD16C,3.200000*%
%ADD17R,3.200000X3.200000*%
%ADD18O,3.200000X3.200000*%
%ADD19R,2.000000X1.905000*%
%ADD20O,2.000000X1.905000*%
%ADD21RoundRect,0.250000X-0.600000X0.600000X-0.600000X-0.600000X0.600000X-0.600000X0.600000X0.600000X0*%
%ADD22C,1.700000*%
G04 APERTURE END LIST*
D10*
%TO.C,C1*%
X163500000Y-88100000D03*
D11*
X158500000Y-88100000D03*
%TD*%
D12*
%TO.C,J5*%
X144650000Y-81110000D03*
D13*
X142110000Y-81110000D03*
%TD*%
D14*
%TO.C,J4*%
X138330000Y-109880000D03*
D15*
X138330000Y-114880000D03*
%TD*%
D12*
%TO.C,J9*%
X135725000Y-84800000D03*
D13*
X138265000Y-84800000D03*
%TD*%
D12*
%TO.C,J6*%
X142100000Y-84800000D03*
D13*
X144640000Y-84800000D03*
%TD*%
D16*
%TO.C,H2*%
X173000000Y-146000000D03*
%TD*%
D14*
%TO.C,J3*%
X138425000Y-91400000D03*
D15*
X138425000Y-96400000D03*
%TD*%
D12*
%TO.C,J7*%
X138275000Y-81110000D03*
D13*
X135735000Y-81110000D03*
%TD*%
D17*
%TO.C,D1*%
X170545000Y-99220000D03*
D18*
X170545000Y-114460000D03*
%TD*%
D19*
%TO.C,Q1*%
X178700000Y-104300000D03*
D20*
X178700000Y-106840000D03*
X178700000Y-109380000D03*
%TD*%
D21*
%TO.C,J8*%
X170040000Y-71947500D03*
D22*
X170040000Y-74487500D03*
X167500000Y-71947500D03*
X167500000Y-74487500D03*
X164960000Y-71947500D03*
X164960000Y-74487500D03*
X162420000Y-71947500D03*
X162420000Y-74487500D03*
X159880000Y-71947500D03*
X159880000Y-74487500D03*
X157340000Y-71947500D03*
X157340000Y-74487500D03*
X154800000Y-71947500D03*
X154800000Y-74487500D03*
X152260000Y-71947500D03*
X152260000Y-74487500D03*
X149720000Y-71947500D03*
X149720000Y-74487500D03*
X147180000Y-71947500D03*
X147180000Y-74487500D03*
X144640000Y-71947500D03*
X144640000Y-74487500D03*
X142100000Y-71947500D03*
X142100000Y-74487500D03*
X139560000Y-71947500D03*
X139560000Y-74487500D03*
%TD*%
D16*
%TO.C,H1*%
X196000000Y-124000000D03*
%TD*%
D14*
%TO.C,J1*%
X184825000Y-72800000D03*
D15*
X179825000Y-72800000D03*
%TD*%
M02*
