%TF.GenerationSoftware,KiCad,Pcbnew,(6.0.0-0)*%
%TF.CreationDate,2023-01-16T12:55:46-05:00*%
%TF.ProjectId,Spindle_Driver,5370696e-646c-4655-9f44-72697665722e,rev?*%
%TF.SameCoordinates,Original*%
%TF.FileFunction,Copper,L1,Top*%
%TF.FilePolarity,Positive*%
%FSLAX46Y46*%
G04 Gerber Fmt 4.6, Leading zero omitted, Abs format (unit mm)*
G04 Created by KiCad (PCBNEW (6.0.0-0)) date 2023-01-16 12:55:46*
%MOMM*%
%LPD*%
G01*
G04 APERTURE LIST*
G04 Aperture macros list*
%AMRoundRect*
0 Rectangle with rounded corners*
0 $1 Rounding radius*
0 $2 $3 $4 $5 $6 $7 $8 $9 X,Y pos of 4 corners*
0 Add a 4 corners polygon primitive as box body*
4,1,4,$2,$3,$4,$5,$6,$7,$8,$9,$2,$3,0*
0 Add four circle primitives for the rounded corners*
1,1,$1+$1,$2,$3*
1,1,$1+$1,$4,$5*
1,1,$1+$1,$6,$7*
1,1,$1+$1,$8,$9*
0 Add four rect primitives between the rounded corners*
20,1,$1+$1,$2,$3,$4,$5,0*
20,1,$1+$1,$4,$5,$6,$7,0*
20,1,$1+$1,$6,$7,$8,$9,0*
20,1,$1+$1,$8,$9,$2,$3,0*%
G04 Aperture macros list end*
%TA.AperFunction,SMDPad,CuDef*%
%ADD10RoundRect,0.237500X0.237500X-0.287500X0.237500X0.287500X-0.237500X0.287500X-0.237500X-0.287500X0*%
%TD*%
%TA.AperFunction,ComponentPad*%
%ADD11R,2.400000X2.400000*%
%TD*%
%TA.AperFunction,ComponentPad*%
%ADD12C,2.400000*%
%TD*%
%TA.AperFunction,SMDPad,CuDef*%
%ADD13R,3.500000X3.000000*%
%TD*%
%TA.AperFunction,ComponentPad*%
%ADD14R,1.700000X1.700000*%
%TD*%
%TA.AperFunction,ComponentPad*%
%ADD15O,1.700000X1.700000*%
%TD*%
%TA.AperFunction,ComponentPad*%
%ADD16R,2.800000X2.800000*%
%TD*%
%TA.AperFunction,ComponentPad*%
%ADD17C,2.800000*%
%TD*%
%TA.AperFunction,SMDPad,CuDef*%
%ADD18RoundRect,0.237500X-0.237500X0.300000X-0.237500X-0.300000X0.237500X-0.300000X0.237500X0.300000X0*%
%TD*%
%TA.AperFunction,SMDPad,CuDef*%
%ADD19RoundRect,0.237500X-0.250000X-0.237500X0.250000X-0.237500X0.250000X0.237500X-0.250000X0.237500X0*%
%TD*%
%TA.AperFunction,SMDPad,CuDef*%
%ADD20RoundRect,0.237500X0.287500X0.237500X-0.287500X0.237500X-0.287500X-0.237500X0.287500X-0.237500X0*%
%TD*%
%TA.AperFunction,SMDPad,CuDef*%
%ADD21RoundRect,0.237500X0.237500X-0.250000X0.237500X0.250000X-0.237500X0.250000X-0.237500X-0.250000X0*%
%TD*%
%TA.AperFunction,ComponentPad*%
%ADD22R,3.200000X3.200000*%
%TD*%
%TA.AperFunction,ComponentPad*%
%ADD23O,3.200000X3.200000*%
%TD*%
%TA.AperFunction,ComponentPad*%
%ADD24R,2.000000X1.905000*%
%TD*%
%TA.AperFunction,ComponentPad*%
%ADD25O,2.000000X1.905000*%
%TD*%
%TA.AperFunction,ComponentPad*%
%ADD26RoundRect,0.250000X-0.600000X0.600000X-0.600000X-0.600000X0.600000X-0.600000X0.600000X0.600000X0*%
%TD*%
%TA.AperFunction,ComponentPad*%
%ADD27C,1.700000*%
%TD*%
%TA.AperFunction,SMDPad,CuDef*%
%ADD28RoundRect,0.237500X-0.237500X0.250000X-0.237500X-0.250000X0.237500X-0.250000X0.237500X0.250000X0*%
%TD*%
%TA.AperFunction,SMDPad,CuDef*%
%ADD29RoundRect,0.237500X0.237500X-0.300000X0.237500X0.300000X-0.237500X0.300000X-0.237500X-0.300000X0*%
%TD*%
%TA.AperFunction,ViaPad*%
%ADD30C,0.800000*%
%TD*%
%TA.AperFunction,Conductor*%
%ADD31C,0.762000*%
%TD*%
%TA.AperFunction,Conductor*%
%ADD32C,0.508000*%
%TD*%
%TA.AperFunction,Conductor*%
%ADD33C,0.254000*%
%TD*%
G04 APERTURE END LIST*
D10*
%TO.P,D3,1,K*%
%TO.N,GND*%
X191700000Y-70875000D03*
%TO.P,D3,2,A*%
%TO.N,Net-(D3-Pad2)*%
X191700000Y-69125000D03*
%TD*%
D11*
%TO.P,C1,1*%
%TO.N,+24V*%
X163500000Y-88100000D03*
D12*
%TO.P,C1,2*%
%TO.N,GND*%
X158500000Y-88100000D03*
%TD*%
D13*
%TO.P,L2,1*%
%TO.N,/net_D*%
X161600000Y-104350000D03*
%TO.P,L2,2*%
%TO.N,/Motor-*%
X161600000Y-109850000D03*
%TD*%
D14*
%TO.P,J5,1,Pin_1*%
%TO.N,Net-(J5-Pad1)*%
X144650000Y-81110000D03*
D15*
%TO.P,J5,2,Pin_2*%
%TO.N,Net-(J5-Pad2)*%
X142110000Y-81110000D03*
%TD*%
D13*
%TO.P,L1,1*%
%TO.N,+24V*%
X153300000Y-104350000D03*
%TO.P,L1,2*%
%TO.N,/Motor+*%
X153300000Y-109850000D03*
%TD*%
D16*
%TO.P,J4,1,Pin_1*%
%TO.N,/Motor+*%
X138330000Y-109880000D03*
D17*
%TO.P,J4,2,Pin_2*%
%TO.N,/Motor-*%
X138330000Y-114880000D03*
%TD*%
D14*
%TO.P,J9,1,Pin_1*%
%TO.N,Net-(J8-Pad16)*%
X135725000Y-84800000D03*
D15*
%TO.P,J9,2,Pin_2*%
%TO.N,Net-(J8-Pad14)*%
X138265000Y-84800000D03*
%TD*%
D18*
%TO.P,C4,1*%
%TO.N,/Motor-*%
X161600000Y-114437500D03*
%TO.P,C4,2*%
%TO.N,GND*%
X161600000Y-116162500D03*
%TD*%
D14*
%TO.P,J6,1,Pin_1*%
%TO.N,Net-(J6-Pad1)*%
X142100000Y-84800000D03*
D15*
%TO.P,J6,2,Pin_2*%
%TO.N,Net-(J6-Pad2)*%
X144640000Y-84800000D03*
%TD*%
D19*
%TO.P,R2,1*%
%TO.N,/PWM*%
X149487500Y-92990000D03*
%TO.P,R2,2*%
%TO.N,Net-(Q1-Pad1)*%
X151312500Y-92990000D03*
%TD*%
D16*
%TO.P,J3,1,Pin_1*%
%TO.N,/PWM*%
X138425000Y-91400000D03*
D17*
%TO.P,J3,2,Pin_2*%
%TO.N,GND*%
X138425000Y-96400000D03*
%TD*%
D20*
%TO.P,D2,1,K*%
%TO.N,/net_D*%
X161660000Y-101410000D03*
%TO.P,D2,2,A*%
%TO.N,Net-(D2-Pad2)*%
X159910000Y-101410000D03*
%TD*%
D21*
%TO.P,R1,1*%
%TO.N,Net-(D2-Pad2)*%
X158300000Y-101412500D03*
%TO.P,R1,2*%
%TO.N,+24V*%
X158300000Y-99587500D03*
%TD*%
D14*
%TO.P,J7,1,Pin_1*%
%TO.N,Net-(J7-Pad1)*%
X138275000Y-81110000D03*
D15*
%TO.P,J7,2,Pin_2*%
%TO.N,/PWM*%
X135735000Y-81110000D03*
%TD*%
D22*
%TO.P,D1,1,K*%
%TO.N,+24V*%
X170545000Y-99220000D03*
D23*
%TO.P,D1,2,A*%
%TO.N,/net_D*%
X170545000Y-114460000D03*
%TD*%
D24*
%TO.P,Q1,1,G*%
%TO.N,Net-(Q1-Pad1)*%
X178700000Y-104300000D03*
D25*
%TO.P,Q1,2,D*%
%TO.N,/net_D*%
X178700000Y-106840000D03*
%TO.P,Q1,3,S*%
%TO.N,GND*%
X178700000Y-109380000D03*
%TD*%
D21*
%TO.P,R3,1*%
%TO.N,GND*%
X151305000Y-96412500D03*
%TO.P,R3,2*%
%TO.N,Net-(Q1-Pad1)*%
X151305000Y-94587500D03*
%TD*%
D26*
%TO.P,J8,1,Pin_1*%
%TO.N,+24V*%
X170040000Y-71947500D03*
D27*
%TO.P,J8,2,Pin_2*%
X170040000Y-74487500D03*
%TO.P,J8,3,Pin_3*%
X167500000Y-71947500D03*
%TO.P,J8,4,Pin_4*%
X167500000Y-74487500D03*
%TO.P,J8,5,Pin_5*%
X164960000Y-71947500D03*
%TO.P,J8,6,Pin_6*%
X164960000Y-74487500D03*
%TO.P,J8,7,Pin_7*%
X162420000Y-71947500D03*
%TO.P,J8,8,Pin_8*%
X162420000Y-74487500D03*
%TO.P,J8,9,Pin_9*%
%TO.N,Net-(J5-Pad1)*%
X159880000Y-71947500D03*
%TO.P,J8,10,Pin_10*%
%TO.N,Net-(J6-Pad2)*%
X159880000Y-74487500D03*
%TO.P,J8,11,Pin_11*%
%TO.N,Net-(J5-Pad2)*%
X157340000Y-71947500D03*
%TO.P,J8,12,Pin_12*%
%TO.N,Net-(J6-Pad1)*%
X157340000Y-74487500D03*
%TO.P,J8,13,Pin_13*%
%TO.N,Net-(J7-Pad1)*%
X154800000Y-71947500D03*
%TO.P,J8,14,Pin_14*%
%TO.N,Net-(J8-Pad14)*%
X154800000Y-74487500D03*
%TO.P,J8,15,Pin_15*%
%TO.N,/PWM*%
X152260000Y-71947500D03*
%TO.P,J8,16,Pin_16*%
%TO.N,Net-(J8-Pad16)*%
X152260000Y-74487500D03*
%TO.P,J8,17,Pin_17*%
%TO.N,GND*%
X149720000Y-71947500D03*
%TO.P,J8,18,Pin_18*%
X149720000Y-74487500D03*
%TO.P,J8,19,Pin_19*%
X147180000Y-71947500D03*
%TO.P,J8,20,Pin_20*%
X147180000Y-74487500D03*
%TO.P,J8,21,Pin_21*%
X144640000Y-71947500D03*
%TO.P,J8,22,Pin_22*%
X144640000Y-74487500D03*
%TO.P,J8,23,Pin_23*%
X142100000Y-71947500D03*
%TO.P,J8,24,Pin_24*%
X142100000Y-74487500D03*
%TO.P,J8,25,Pin_25*%
X139560000Y-71947500D03*
%TO.P,J8,26,Pin_26*%
X139560000Y-74487500D03*
%TD*%
D18*
%TO.P,C2,2*%
%TO.N,GND*%
X163200000Y-116162500D03*
%TO.P,C2,1*%
%TO.N,+24V*%
X163200000Y-114437500D03*
%TD*%
D28*
%TO.P,R4,1*%
%TO.N,Net-(D3-Pad2)*%
X190000000Y-69087500D03*
%TO.P,R4,2*%
%TO.N,+24V*%
X190000000Y-70912500D03*
%TD*%
D29*
%TO.P,C3,1*%
%TO.N,+24V*%
X160000000Y-114462500D03*
%TO.P,C3,2*%
%TO.N,/Motor-*%
X160000000Y-112737500D03*
%TD*%
D16*
%TO.P,J1,1,Pin_1*%
%TO.N,+24V*%
X184825000Y-72800000D03*
D17*
%TO.P,J1,2,Pin_2*%
%TO.N,GND*%
X179825000Y-72800000D03*
%TD*%
D30*
%TO.N,GND*%
X161600000Y-116200000D03*
X163200000Y-116200000D03*
%TO.N,+24V*%
X173000000Y-100000000D03*
X163210000Y-114480000D03*
X166000000Y-102000000D03*
X168000000Y-98000000D03*
X168000000Y-100000000D03*
X160010000Y-114480000D03*
X170000000Y-102000000D03*
X168000000Y-102000000D03*
X166000000Y-100000000D03*
X166000000Y-98000000D03*
%TO.N,GND*%
X151320000Y-96420000D03*
X191720000Y-70860000D03*
%TO.N,Net-(Q1-Pad1)*%
X151305000Y-94587500D03*
%TD*%
D31*
%TO.N,/Motor-*%
X161600000Y-114437500D02*
X161600000Y-113000000D01*
X161600000Y-114437500D02*
X161600000Y-114291778D01*
X161600000Y-114291778D02*
X160045722Y-112737500D01*
X160045722Y-112737500D02*
X160000000Y-112737500D01*
D32*
%TO.N,+24V*%
X184825000Y-72675000D02*
X184825000Y-72800000D01*
X186587500Y-70912500D02*
X184825000Y-72675000D01*
X190000000Y-70912500D02*
X186587500Y-70912500D01*
D31*
%TO.N,Net-(D2-Pad2)*%
X158302500Y-101410000D02*
X158300000Y-101412500D01*
X159910000Y-101410000D02*
X158302500Y-101410000D01*
D33*
%TO.N,Net-(D3-Pad2)*%
X190000000Y-69087500D02*
X191662500Y-69087500D01*
X191662500Y-69087500D02*
X191700000Y-69125000D01*
%TO.N,/PWM*%
X147897500Y-91400000D02*
X149487500Y-92990000D01*
X138425000Y-91400000D02*
X147897500Y-91400000D01*
%TO.N,Net-(J5-Pad2)*%
X142110000Y-78520000D02*
X142110000Y-81110000D01*
X156080000Y-76020000D02*
X154584960Y-77515040D01*
X157340000Y-71947500D02*
X156080000Y-73207500D01*
X156080000Y-73207500D02*
X156080000Y-76020000D01*
X154584960Y-77515040D02*
X143114960Y-77515040D01*
X143114960Y-77515040D02*
X142110000Y-78520000D01*
%TO.N,Net-(J6-Pad1)*%
X155607440Y-78022560D02*
X157340000Y-76290000D01*
X143390000Y-79320000D02*
X144687440Y-78022560D01*
X142100000Y-84800000D02*
X143390000Y-83510000D01*
X157340000Y-76290000D02*
X157340000Y-74487500D01*
X143390000Y-83510000D02*
X143390000Y-79320000D01*
X144687440Y-78022560D02*
X155607440Y-78022560D01*
%TO.N,Net-(J6-Pad2)*%
X146872400Y-79037600D02*
X157392400Y-79037600D01*
X159880000Y-76550000D02*
X159880000Y-74487500D01*
X144640000Y-84800000D02*
X146020000Y-83420000D01*
X157392400Y-79037600D02*
X159880000Y-76550000D01*
X146020000Y-83420000D02*
X146020000Y-79890000D01*
X146020000Y-79890000D02*
X146872400Y-79037600D01*
%TO.N,Net-(J7-Pad1)*%
X138275000Y-78895000D02*
X140670000Y-76500000D01*
X153550000Y-73197500D02*
X154800000Y-71947500D01*
X152400000Y-76500000D02*
X153550000Y-75350000D01*
X138275000Y-81110000D02*
X138275000Y-78895000D01*
X140670000Y-76500000D02*
X152400000Y-76500000D01*
X153550000Y-75350000D02*
X153550000Y-73197500D01*
%TO.N,Net-(J8-Pad14)*%
X139860000Y-78560000D02*
X141412480Y-77007520D01*
X139860000Y-83205000D02*
X139860000Y-78560000D01*
X153302480Y-77007520D02*
X154800000Y-75510000D01*
X138265000Y-84800000D02*
X139860000Y-83205000D01*
X154800000Y-75510000D02*
X154800000Y-74487500D01*
X141412480Y-77007520D02*
X153302480Y-77007520D01*
%TO.N,Net-(J8-Pad16)*%
X135725000Y-84800000D02*
X137044489Y-83480511D01*
X140462258Y-75990000D02*
X151780000Y-75990000D01*
X137044489Y-83480511D02*
X137044489Y-79407769D01*
X152260000Y-75510000D02*
X152260000Y-74487500D01*
X151780000Y-75990000D02*
X152260000Y-75510000D01*
X137044489Y-79407769D02*
X140462258Y-75990000D01*
%TO.N,Net-(Q1-Pad1)*%
X151305000Y-94587500D02*
X151305000Y-92997500D01*
X151305000Y-92997500D02*
X151312500Y-92990000D01*
%TO.N,Net-(J5-Pad1)*%
X144650000Y-81110000D02*
X144650000Y-79450000D01*
X144650000Y-79450000D02*
X145569920Y-78530080D01*
X158610000Y-76550000D02*
X158610000Y-73217500D01*
X156629920Y-78530080D02*
X158610000Y-76550000D01*
X158610000Y-73217500D02*
X159880000Y-71947500D01*
X145569920Y-78530080D02*
X156629920Y-78530080D01*
D31*
%TO.N,/net_D*%
X161600000Y-101470000D02*
X161660000Y-101410000D01*
X161600000Y-104350000D02*
X161600000Y-101470000D01*
%TD*%
%TA.AperFunction,Conductor*%
%TO.N,/Motor+*%
G36*
X155215931Y-108020002D02*
G01*
X155236905Y-108036905D01*
X155563095Y-108363095D01*
X155597121Y-108425407D01*
X155600000Y-108452190D01*
X155600000Y-111147810D01*
X155579998Y-111215931D01*
X155563095Y-111236905D01*
X155236905Y-111563095D01*
X155174593Y-111597121D01*
X155147810Y-111600000D01*
X137452190Y-111600000D01*
X137384069Y-111579998D01*
X137363095Y-111563095D01*
X136436905Y-110636905D01*
X136402879Y-110574593D01*
X136400000Y-110547810D01*
X136400000Y-108652190D01*
X136420002Y-108584069D01*
X136436905Y-108563095D01*
X136963095Y-108036905D01*
X137025407Y-108002879D01*
X137052190Y-108000000D01*
X155147810Y-108000000D01*
X155215931Y-108020002D01*
G37*
%TD.AperFunction*%
%TD*%
%TA.AperFunction,Conductor*%
%TO.N,/net_D*%
G36*
X164415931Y-102620002D02*
G01*
X164436905Y-102636905D01*
X167200000Y-105400000D01*
X177431765Y-105400000D01*
X177499886Y-105420002D01*
X177512781Y-105430394D01*
X177516516Y-105435984D01*
X177600699Y-105492234D01*
X177674933Y-105507000D01*
X177720816Y-105507000D01*
X179454809Y-105506999D01*
X179522930Y-105527001D01*
X179543904Y-105543904D01*
X179963095Y-105963095D01*
X179997121Y-106025407D01*
X180000000Y-106052190D01*
X180000000Y-107747810D01*
X179979998Y-107815931D01*
X179963095Y-107836905D01*
X179636905Y-108163095D01*
X179574593Y-108197121D01*
X179547810Y-108200000D01*
X179014856Y-108200000D01*
X178989304Y-108197382D01*
X178988044Y-108197121D01*
X178886790Y-108176152D01*
X178882179Y-108175886D01*
X178882178Y-108175886D01*
X178833945Y-108173105D01*
X178833941Y-108173105D01*
X178832122Y-108173000D01*
X178597832Y-108173000D01*
X178595045Y-108173249D01*
X178595039Y-108173249D01*
X178528206Y-108179214D01*
X178437895Y-108187274D01*
X178432481Y-108188755D01*
X178432476Y-108188756D01*
X178407702Y-108195534D01*
X178374454Y-108200000D01*
X176800000Y-108200000D01*
X174600000Y-110400000D01*
X174600000Y-113547810D01*
X174579998Y-113615931D01*
X174563095Y-113636905D01*
X172036905Y-116163095D01*
X171974593Y-116197121D01*
X171947810Y-116200000D01*
X169243232Y-116200000D01*
X169175111Y-116179998D01*
X169165875Y-116173458D01*
X167448643Y-114837833D01*
X167407152Y-114780223D01*
X167400000Y-114738375D01*
X167400000Y-110200000D01*
X163200000Y-106000000D01*
X159852190Y-106000000D01*
X159784069Y-105979998D01*
X159763095Y-105963095D01*
X159436905Y-105636905D01*
X159402879Y-105574593D01*
X159400000Y-105547810D01*
X159400000Y-103052190D01*
X159420002Y-102984069D01*
X159436905Y-102963095D01*
X159763095Y-102636905D01*
X159825407Y-102602879D01*
X159852190Y-102600000D01*
X164347810Y-102600000D01*
X164415931Y-102620002D01*
G37*
%TD.AperFunction*%
%TD*%
%TA.AperFunction,Conductor*%
%TO.N,/Motor-*%
G36*
X163415931Y-107820002D02*
G01*
X163436905Y-107836905D01*
X163763095Y-108163095D01*
X163797121Y-108225407D01*
X163800000Y-108252190D01*
X163800000Y-111347810D01*
X163779998Y-111415931D01*
X163763095Y-111436905D01*
X163436905Y-111763095D01*
X163374593Y-111797121D01*
X163347810Y-111800000D01*
X162600000Y-111800000D01*
X162200000Y-112200000D01*
X162200000Y-113347810D01*
X162179998Y-113415931D01*
X162163095Y-113436905D01*
X161836905Y-113763095D01*
X161774593Y-113797121D01*
X161747810Y-113800000D01*
X160616237Y-113800000D01*
X160548116Y-113779998D01*
X160540673Y-113774827D01*
X160525019Y-113763095D01*
X160476199Y-113726507D01*
X160467798Y-113723357D01*
X160467795Y-113723356D01*
X160389387Y-113693963D01*
X160344236Y-113677036D01*
X160284070Y-113670500D01*
X159715930Y-113670500D01*
X159655764Y-113677036D01*
X159610613Y-113693963D01*
X159532205Y-113723356D01*
X159532202Y-113723357D01*
X159523801Y-113726507D01*
X159516619Y-113731889D01*
X159516618Y-113731890D01*
X159448867Y-113782666D01*
X159414261Y-113800000D01*
X159400000Y-113800000D01*
X156036905Y-117163095D01*
X155974593Y-117197121D01*
X155947810Y-117200000D01*
X137252190Y-117200000D01*
X137184069Y-117179998D01*
X137163095Y-117163095D01*
X136436905Y-116436905D01*
X136402879Y-116374593D01*
X136400000Y-116347810D01*
X136400000Y-113852190D01*
X136420002Y-113784069D01*
X136436905Y-113763095D01*
X137363095Y-112836905D01*
X137425407Y-112802879D01*
X137452190Y-112800000D01*
X156000000Y-112800000D01*
X158400000Y-110400000D01*
X158400000Y-108852190D01*
X158420002Y-108784069D01*
X158436905Y-108763095D01*
X159363095Y-107836905D01*
X159425407Y-107802879D01*
X159452190Y-107800000D01*
X163347810Y-107800000D01*
X163415931Y-107820002D01*
G37*
%TD.AperFunction*%
%TD*%
%TA.AperFunction,Conductor*%
%TO.N,+24V*%
G36*
X187492023Y-69019258D02*
G01*
X187574102Y-69074102D01*
X188425898Y-69925898D01*
X188480742Y-70007977D01*
X188500000Y-70104796D01*
X188500000Y-72895204D01*
X188480742Y-72992023D01*
X188425898Y-73074102D01*
X178500000Y-83000000D01*
X178500000Y-96895204D01*
X178480742Y-96992023D01*
X178425898Y-97074102D01*
X172574102Y-102925898D01*
X172492023Y-102980742D01*
X172395204Y-103000000D01*
X166104796Y-103000000D01*
X166007977Y-102980742D01*
X165925898Y-102925898D01*
X163250000Y-100250000D01*
X157250000Y-100250000D01*
X156000000Y-101500000D01*
X156000000Y-106547000D01*
X155980742Y-106643819D01*
X155925898Y-106725898D01*
X155843819Y-106780742D01*
X155747000Y-106800000D01*
X150953000Y-106800000D01*
X150856181Y-106780742D01*
X150774102Y-106725898D01*
X150719258Y-106643819D01*
X150700000Y-106547000D01*
X150700000Y-98812356D01*
X150719258Y-98715537D01*
X150774102Y-98633458D01*
X150783353Y-98624662D01*
X161081515Y-89316708D01*
X161081516Y-89316707D01*
X161100000Y-89300000D01*
X161132813Y-83000000D01*
X161174816Y-74935453D01*
X161185739Y-74863225D01*
X161209349Y-74785512D01*
X161212370Y-74775569D01*
X161241529Y-74554090D01*
X161243156Y-74487500D01*
X161233120Y-74365427D01*
X161225703Y-74275207D01*
X161225702Y-74275202D01*
X161224852Y-74264861D01*
X161187039Y-74114320D01*
X161179420Y-74051369D01*
X161182292Y-73500000D01*
X161188275Y-72351148D01*
X161199199Y-72278919D01*
X161209350Y-72245508D01*
X161212370Y-72235569D01*
X161241529Y-72014090D01*
X161243156Y-71947500D01*
X161224852Y-71724861D01*
X161222325Y-71714802D01*
X161222323Y-71714788D01*
X161200000Y-71625919D01*
X161192380Y-71562966D01*
X161198700Y-70349558D01*
X161218463Y-70252841D01*
X161273733Y-70171049D01*
X161356097Y-70116633D01*
X161449552Y-70097885D01*
X172744857Y-70002162D01*
X172841835Y-70020599D01*
X172924376Y-70074745D01*
X172979913Y-70156357D01*
X173000000Y-70255153D01*
X173000000Y-75000000D01*
X174000000Y-76000000D01*
X180000000Y-76000000D01*
X182500000Y-73500000D01*
X182500000Y-70104796D01*
X182519258Y-70007977D01*
X182574102Y-69925898D01*
X183425898Y-69074102D01*
X183507977Y-69019258D01*
X183604796Y-69000000D01*
X187395204Y-69000000D01*
X187492023Y-69019258D01*
G37*
%TD.AperFunction*%
%TD*%
M02*
