%TF.GenerationSoftware,KiCad,Pcbnew,(6.0.0-0)*%
%TF.CreationDate,2023-01-16T12:55:47-05:00*%
%TF.ProjectId,Spindle_Driver,5370696e-646c-4655-9f44-72697665722e,rev?*%
%TF.SameCoordinates,Original*%
%TF.FileFunction,Soldermask,Top*%
%TF.FilePolarity,Negative*%
%FSLAX46Y46*%
G04 Gerber Fmt 4.6, Leading zero omitted, Abs format (unit mm)*
G04 Created by KiCad (PCBNEW (6.0.0-0)) date 2023-01-16 12:55:47*
%MOMM*%
%LPD*%
G01*
G04 APERTURE LIST*
G04 Aperture macros list*
%AMRoundRect*
0 Rectangle with rounded corners*
0 $1 Rounding radius*
0 $2 $3 $4 $5 $6 $7 $8 $9 X,Y pos of 4 corners*
0 Add a 4 corners polygon primitive as box body*
4,1,4,$2,$3,$4,$5,$6,$7,$8,$9,$2,$3,0*
0 Add four circle primitives for the rounded corners*
1,1,$1+$1,$2,$3*
1,1,$1+$1,$4,$5*
1,1,$1+$1,$6,$7*
1,1,$1+$1,$8,$9*
0 Add four rect primitives between the rounded corners*
20,1,$1+$1,$2,$3,$4,$5,0*
20,1,$1+$1,$4,$5,$6,$7,0*
20,1,$1+$1,$6,$7,$8,$9,0*
20,1,$1+$1,$8,$9,$2,$3,0*%
G04 Aperture macros list end*
%ADD10RoundRect,0.237500X0.237500X-0.287500X0.237500X0.287500X-0.237500X0.287500X-0.237500X-0.287500X0*%
%ADD11R,2.400000X2.400000*%
%ADD12C,2.400000*%
%ADD13R,3.500000X3.000000*%
%ADD14R,1.700000X1.700000*%
%ADD15O,1.700000X1.700000*%
%ADD16R,2.800000X2.800000*%
%ADD17C,2.800000*%
%ADD18RoundRect,0.237500X-0.237500X0.300000X-0.237500X-0.300000X0.237500X-0.300000X0.237500X0.300000X0*%
%ADD19C,3.200000*%
%ADD20RoundRect,0.237500X-0.250000X-0.237500X0.250000X-0.237500X0.250000X0.237500X-0.250000X0.237500X0*%
%ADD21RoundRect,0.237500X0.287500X0.237500X-0.287500X0.237500X-0.287500X-0.237500X0.287500X-0.237500X0*%
%ADD22RoundRect,0.237500X0.237500X-0.250000X0.237500X0.250000X-0.237500X0.250000X-0.237500X-0.250000X0*%
%ADD23R,3.200000X3.200000*%
%ADD24O,3.200000X3.200000*%
%ADD25R,2.000000X1.905000*%
%ADD26O,2.000000X1.905000*%
%ADD27RoundRect,0.250000X-0.600000X0.600000X-0.600000X-0.600000X0.600000X-0.600000X0.600000X0.600000X0*%
%ADD28C,1.700000*%
%ADD29RoundRect,0.237500X-0.237500X0.250000X-0.237500X-0.250000X0.237500X-0.250000X0.237500X0.250000X0*%
%ADD30RoundRect,0.237500X0.237500X-0.300000X0.237500X0.300000X-0.237500X0.300000X-0.237500X-0.300000X0*%
G04 APERTURE END LIST*
D10*
%TO.C,D3*%
X191700000Y-70875000D03*
X191700000Y-69125000D03*
%TD*%
D11*
%TO.C,C1*%
X163500000Y-88100000D03*
D12*
X158500000Y-88100000D03*
%TD*%
D13*
%TO.C,L2*%
X161600000Y-104350000D03*
X161600000Y-109850000D03*
%TD*%
D14*
%TO.C,J5*%
X144650000Y-81110000D03*
D15*
X142110000Y-81110000D03*
%TD*%
D13*
%TO.C,L1*%
X153300000Y-104350000D03*
X153300000Y-109850000D03*
%TD*%
D16*
%TO.C,J4*%
X138330000Y-109880000D03*
D17*
X138330000Y-114880000D03*
%TD*%
D14*
%TO.C,J9*%
X135725000Y-84800000D03*
D15*
X138265000Y-84800000D03*
%TD*%
D18*
%TO.C,C4*%
X161600000Y-114437500D03*
X161600000Y-116162500D03*
%TD*%
D14*
%TO.C,J6*%
X142100000Y-84800000D03*
D15*
X144640000Y-84800000D03*
%TD*%
D19*
%TO.C,H2*%
X173000000Y-146000000D03*
%TD*%
D20*
%TO.C,R2*%
X149487500Y-92990000D03*
X151312500Y-92990000D03*
%TD*%
D16*
%TO.C,J3*%
X138425000Y-91400000D03*
D17*
X138425000Y-96400000D03*
%TD*%
D21*
%TO.C,D2*%
X161660000Y-101410000D03*
X159910000Y-101410000D03*
%TD*%
D22*
%TO.C,R1*%
X158300000Y-101412500D03*
X158300000Y-99587500D03*
%TD*%
D14*
%TO.C,J7*%
X138275000Y-81110000D03*
D15*
X135735000Y-81110000D03*
%TD*%
D23*
%TO.C,D1*%
X170545000Y-99220000D03*
D24*
X170545000Y-114460000D03*
%TD*%
D25*
%TO.C,Q1*%
X178700000Y-104300000D03*
D26*
X178700000Y-106840000D03*
X178700000Y-109380000D03*
%TD*%
D22*
%TO.C,R3*%
X151305000Y-96412500D03*
X151305000Y-94587500D03*
%TD*%
D27*
%TO.C,J8*%
X170040000Y-71947500D03*
D28*
X170040000Y-74487500D03*
X167500000Y-71947500D03*
X167500000Y-74487500D03*
X164960000Y-71947500D03*
X164960000Y-74487500D03*
X162420000Y-71947500D03*
X162420000Y-74487500D03*
X159880000Y-71947500D03*
X159880000Y-74487500D03*
X157340000Y-71947500D03*
X157340000Y-74487500D03*
X154800000Y-71947500D03*
X154800000Y-74487500D03*
X152260000Y-71947500D03*
X152260000Y-74487500D03*
X149720000Y-71947500D03*
X149720000Y-74487500D03*
X147180000Y-71947500D03*
X147180000Y-74487500D03*
X144640000Y-71947500D03*
X144640000Y-74487500D03*
X142100000Y-71947500D03*
X142100000Y-74487500D03*
X139560000Y-71947500D03*
X139560000Y-74487500D03*
%TD*%
D18*
%TO.C,C2*%
X163200000Y-116162500D03*
X163200000Y-114437500D03*
%TD*%
D29*
%TO.C,R4*%
X190000000Y-69087500D03*
X190000000Y-70912500D03*
%TD*%
D30*
%TO.C,C3*%
X160000000Y-114462500D03*
X160000000Y-112737500D03*
%TD*%
D19*
%TO.C,H1*%
X196000000Y-124000000D03*
%TD*%
D16*
%TO.C,J1*%
X184825000Y-72800000D03*
D17*
X179825000Y-72800000D03*
%TD*%
M02*
